<svg xmlns="http://www.w3.org/2000/svg" xmlns:xlink="http://www.w3.org/1999/xlink" width="510" zoomAndPan="magnify" viewBox="0 0 382.5 225" height="300" preserveAspectRatio="xMidYMid meet" version="1.0"><defs><filter x="0%" y="0%" width="100%" height="100%" id="0136cab159"><feColorMatrix values="0 0 0 0 1 0 0 0 0 1 0 0 0 0 1 0 0 0 1 0" color-interpolation-filters="sRGB"/></filter><g/><clipPath id="4774f4f1a7"><path d="M 0 0.148438 L 382 0.148438 L 382 224.851562 L 0 224.851562 Z M 0 0.148438 " clip-rule="nonzero"/></clipPath><mask id="639589135f"><g filter="url(#0136cab159)"><rect x="-38.25" width="459" fill="#000000" y="-22.5" height="270" fill-opacity="0.25"/></g></mask><clipPath id="dd8a559259"><path d="M 0 0.148438 L 382 0.148438 L 382 224.851562 L 0 224.851562 Z M 0 0.148438 " clip-rule="nonzero"/></clipPath><clipPath id="f661ce29bc"><rect x="0" width="382" y="0" height="225"/></clipPath><mask id="4a853f9838"><g filter="url(#0136cab159)"><rect x="-38.25" width="459" fill="#000000" y="-22.5" height="270" fill-opacity="0.25"/></g></mask><clipPath id="e9f2987011"><path d="M 0 0.148438 L 382 0.148438 L 382 224.851562 L 0 224.851562 Z M 0 0.148438 " clip-rule="nonzero"/></clipPath><clipPath id="8bb796265f"><rect x="0" width="382" y="0" height="225"/></clipPath><clipPath id="58ce51cb58"><path d="M 136.070312 79.890625 L 246 79.890625 L 246 145.109375 L 136.070312 145.109375 Z M 136.070312 79.890625 " clip-rule="nonzero"/></clipPath><clipPath id="540df5f13a"><path d="M 142.0625 79.890625 L 239.9375 79.890625 C 243.246094 79.890625 245.929688 82.574219 245.929688 85.882812 L 245.929688 139.117188 C 245.929688 142.425781 243.246094 145.109375 239.9375 145.109375 L 142.0625 145.109375 C 138.753906 145.109375 136.070312 142.425781 136.070312 139.117188 L 136.070312 85.882812 C 136.070312 82.574219 138.753906 79.890625 142.0625 79.890625 Z M 142.0625 79.890625 " clip-rule="nonzero"/></clipPath><mask id="ed73c21c4c"><g filter="url(#0136cab159)"><rect x="-38.25" width="459" fill="#000000" y="-22.5" height="270" fill-opacity="0.39"/></g></mask><clipPath id="5380d237c0"><path d="M 0.804688 0.113281 L 80.949219 0.113281 L 80.949219 80.261719 L 0.804688 80.261719 Z M 0.804688 0.113281 " clip-rule="nonzero"/></clipPath><clipPath id="88bfe61dc5"><rect x="0" width="82" y="0" height="82"/></clipPath><mask id="4482a4a2c5"><g filter="url(#0136cab159)"><rect x="-38.25" width="459" fill="#000000" y="-22.5" height="270" fill-opacity="0.37"/></g></mask><clipPath id="e323b8de12"><path d="M 35 0.0507812 L 51 0.0507812 L 51 18 L 35 18 Z M 35 0.0507812 " clip-rule="nonzero"/></clipPath><clipPath id="ce000f1a4f"><path d="M 50 0.0507812 L 67 0.0507812 L 67 18 L 50 18 Z M 50 0.0507812 " clip-rule="nonzero"/></clipPath><clipPath id="8e2b3eb690"><rect x="0" width="98" y="0" height="35"/></clipPath><mask id="1f1e800e44"><g filter="url(#0136cab159)"><rect x="-38.25" width="459" fill="#000000" y="-22.5" height="270" fill-opacity="0.37"/></g></mask><clipPath id="99501e919a"><rect x="0" width="88" y="0" height="13"/></clipPath></defs><g clip-path="url(#4774f4f1a7)"><path fill="#ffffff" d="M 0 0.148438 L 382 0.148438 L 382 224.851562 L 0 224.851562 Z M 0 0.148438 " fill-opacity="1" fill-rule="nonzero"/><path fill="#efefef" d="M 0 0.148438 L 382 0.148438 L 382 224.851562 L 0 224.851562 Z M 0 0.148438 " fill-opacity="1" fill-rule="nonzero"/><g mask="url(#639589135f)"><g transform="matrix(1, 0, 0, 1, 0, -0.000000000000012573)"><g clip-path="url(#f661ce29bc)"><g clip-path="url(#dd8a559259)"><path stroke-linecap="butt" transform="matrix(0.645607, 0.379769, -0.379769, 0.645607, 0.759279, -1.143389)" fill="none" stroke-linejoin="miter" d="M 0.000712874 2.000531 L 591.692967 2.001877 " stroke="#000000" stroke-width="4" stroke-opacity="1" stroke-miterlimit="4"/></g></g></g></g><g mask="url(#4a853f9838)"><g transform="matrix(1, 0, 0, 1, 0, -0.000000000000012573)"><g clip-path="url(#8bb796265f)"><g clip-path="url(#e9f2987011)"><path stroke-linecap="butt" transform="matrix(-0.645607, 0.379769, -0.379769, -0.645607, 382.756709, 1.439037)" fill="none" stroke-linejoin="miter" d="M 0.00165632 2.000023 L 591.693943 1.998696 " stroke="#000000" stroke-width="4" stroke-opacity="1" stroke-miterlimit="4"/></g></g></g></g></g><g clip-path="url(#58ce51cb58)"><g clip-path="url(#540df5f13a)"><path fill="#efefef" d="M 136.070312 79.890625 L 245.871094 79.890625 L 245.871094 145.109375 L 136.070312 145.109375 Z M 136.070312 79.890625 " fill-opacity="1" fill-rule="nonzero"/></g></g><g mask="url(#ed73c21c4c)"><g transform="matrix(1, 0, 0, 1, 150, 65)"><g clip-path="url(#88bfe61dc5)"><path fill="#ffffff" d="M 72.765625 44.089844 C 68.351562 44.089844 64.769531 41.835938 64.769531 37.410156 C 64.769531 41.835938 61.191406 44.089844 56.777344 44.089844 C 52.359375 44.089844 48.78125 41.417969 48.78125 37.410156 C 48.78125 41.835938 45.203125 44.089844 40.785156 44.089844 C 36.371094 44.089844 32.792969 41.417969 32.792969 37.410156 C 32.792969 41.835938 29.210938 44.089844 24.796875 44.089844 C 20.382812 44.089844 16.800781 41.417969 16.800781 37.410156 C 16.800781 41.835938 13.222656 44.089844 8.808594 44.089844 C 7.378906 44.089844 6.046875 43.726562 4.808594 43.003906 L 4.808594 78.820312 L 76.761719 78.820312 L 76.761719 43.003906 C 75.527344 43.726562 74.195312 44.089844 72.765625 44.089844 Z M 72.765625 44.089844 " fill-opacity="1" fill-rule="nonzero"/><path fill="#ededed" d="M 64.769531 37.410156 C 64.769531 41.835938 61.191406 44.089844 56.777344 44.089844 C 52.359375 44.089844 48.78125 41.417969 48.78125 37.410156 C 48.78125 41.835938 45.203125 44.089844 40.785156 44.089844 C 36.371094 44.089844 32.792969 41.417969 32.792969 37.410156 C 32.792969 41.835938 29.210938 44.089844 24.796875 44.089844 C 20.382812 44.089844 16.800781 41.417969 16.800781 37.410156 C 16.800781 41.835938 13.222656 44.089844 8.808594 44.089844 C 7.378906 44.089844 6.046875 43.726562 4.808594 43.003906 L 4.808594 47.015625 C 6.046875 47.734375 7.378906 48.097656 8.808594 48.097656 C 11.8125 48.097656 14.433594 47.050781 15.796875 44.988281 C 16.296875 44.234375 17.410156 44.257812 17.9375 44.992188 C 19.335938 46.933594 21.882812 48.097656 24.796875 48.097656 C 27.804688 48.097656 30.421875 47.050781 31.789062 44.988281 C 32.285156 44.234375 33.398438 44.257812 33.925781 44.992188 C 35.324219 46.933594 37.875 48.097656 40.785156 48.097656 C 43.792969 48.097656 46.410156 47.050781 47.777344 44.988281 C 48.273438 44.234375 49.390625 44.257812 49.917969 44.992188 C 51.316406 46.933594 53.863281 48.097656 56.777344 48.097656 C 59.734375 48.097656 62.320312 47.082031 63.703125 45.082031 C 63.824219 44.910156 63.980469 44.773438 64.167969 44.675781 C 64.355469 44.574219 64.558594 44.527344 64.769531 44.527344 C 64.984375 44.527344 65.183594 44.574219 65.371094 44.675781 C 65.5625 44.773438 65.71875 44.910156 65.839844 45.082031 C 67.222656 47.082031 69.804688 48.097656 72.765625 48.097656 C 74.195312 48.097656 75.527344 47.734375 76.761719 47.015625 L 76.761719 43.003906 C 75.527344 43.726562 74.195312 44.089844 72.765625 44.089844 C 68.351562 44.089844 64.769531 41.835938 64.769531 37.410156 Z M 64.769531 37.410156 " fill-opacity="1" fill-rule="nonzero"/><path fill="#a88251" d="M 23.464844 20.046875 L 14.136719 20.046875 L 2.144531 40.5 C 2.507812 41.054688 2.933594 41.550781 3.421875 42 C 3.910156 42.445312 4.445312 42.824219 5.027344 43.136719 C 5.605469 43.449219 6.21875 43.6875 6.859375 43.847656 C 7.496094 44.007812 8.148438 44.089844 8.808594 44.089844 C 13.222656 44.089844 16.800781 41.835938 16.800781 37.410156 C 16.800781 41.417969 20.382812 44.089844 24.796875 44.089844 C 29.210938 44.089844 32.792969 41.835938 32.792969 37.410156 C 32.792969 41.417969 36.371094 44.089844 40.785156 44.089844 C 45.203125 44.089844 48.78125 41.835938 48.78125 37.410156 C 48.78125 41.417969 52.359375 44.089844 56.777344 44.089844 C 61.191406 44.089844 64.769531 41.835938 64.769531 37.410156 C 64.769531 41.835938 68.351562 44.089844 72.765625 44.089844 C 73.425781 44.089844 74.074219 44.007812 74.714844 43.847656 C 75.355469 43.6875 75.964844 43.449219 76.546875 43.136719 C 77.128906 42.824219 77.664062 42.445312 78.148438 42 C 78.636719 41.550781 79.0625 41.054688 79.425781 40.5 L 67.433594 20.046875 L 58.109375 20.046875 " fill-opacity="1" fill-rule="nonzero"/><path fill="#d6b387" d="M 48.78125 37.410156 C 48.78125 41.417969 52.359375 44.089844 56.777344 44.089844 C 61.191406 44.089844 64.769531 41.835938 64.769531 37.410156 L 59.441406 20.046875 L 48.78125 20.046875 Z M 48.78125 37.410156 " fill-opacity="1" fill-rule="nonzero"/><path fill="#d6b387" d="M 32.792969 37.410156 C 32.792969 41.835938 29.210938 44.089844 24.796875 44.089844 C 20.382812 44.089844 16.800781 41.417969 16.800781 37.410156 L 22.132812 20.046875 L 32.792969 20.046875 Z M 32.792969 37.410156 " fill-opacity="1" fill-rule="nonzero"/><path fill="#a88251" d="M 14.136719 14.703125 L 67.433594 14.703125 L 67.433594 20.046875 L 14.136719 20.046875 Z M 14.136719 14.703125 " fill-opacity="1" fill-rule="nonzero"/><path fill="#6bd9ff" d="M 11.472656 49.433594 L 32.792969 49.433594 L 32.792969 78.820312 L 11.472656 78.820312 Z M 11.472656 49.433594 " fill-opacity="1" fill-rule="nonzero"/><path fill="#ffffff" d="M 32.792969 60.117188 L 14.136719 78.820312 L 18.136719 78.820312 L 32.792969 64.125 Z M 32.792969 60.117188 " fill-opacity="1" fill-rule="nonzero"/><path fill="#ffffff" d="M 32.792969 52.105469 L 11.472656 73.476562 L 11.472656 77.484375 L 32.792969 56.113281 Z M 32.792969 52.105469 " fill-opacity="1" fill-rule="nonzero"/><path fill="#bd925b" d="M 18.136719 54.777344 L 28.792969 54.777344 L 28.792969 60.117188 L 18.136719 60.117188 Z M 18.136719 54.777344 " fill-opacity="1" fill-rule="nonzero"/><path fill="#ffffff" d="M 40.785156 1.34375 C 40.21875 1.34375 39.652344 1.375 39.089844 1.429688 C 38.523438 1.484375 37.964844 1.566406 37.40625 1.679688 C 36.851562 1.789062 36.300781 1.929688 35.757812 2.09375 C 35.214844 2.257812 34.683594 2.449219 34.15625 2.667969 C 33.632812 2.886719 33.121094 3.128906 32.621094 3.394531 C 32.121094 3.664062 31.632812 3.957031 31.164062 4.273438 C 30.691406 4.589844 30.234375 4.925781 29.796875 5.285156 C 29.359375 5.648438 28.9375 6.03125 28.539062 6.429688 C 28.136719 6.832031 27.757812 7.253906 27.398438 7.695312 C 27.035156 8.132812 26.699219 8.589844 26.382812 9.0625 C 26.070312 9.535156 25.777344 10.023438 25.511719 10.523438 C 25.242188 11.027344 25 11.539062 24.78125 12.066406 C 24.566406 12.589844 24.375 13.125 24.210938 13.667969 C 24.046875 14.214844 23.90625 14.765625 23.796875 15.324219 C 23.6875 15.878906 23.605469 16.441406 23.546875 17.007812 C 23.492188 17.574219 23.464844 18.140625 23.464844 18.710938 C 23.464844 19.277344 23.492188 19.847656 23.546875 20.414062 C 23.605469 20.976562 23.6875 21.539062 23.796875 22.097656 C 23.90625 22.65625 24.046875 23.207031 24.210938 23.75 C 24.375 24.296875 24.566406 24.828125 24.78125 25.355469 C 25 25.882812 25.242188 26.394531 25.511719 26.894531 C 25.777344 27.398438 26.070312 27.882812 26.382812 28.359375 C 26.699219 28.832031 27.035156 29.285156 27.398438 29.726562 C 27.757812 30.164062 28.136719 30.585938 28.539062 30.988281 C 28.9375 31.390625 29.359375 31.773438 29.796875 32.132812 C 30.234375 32.496094 30.691406 32.832031 31.164062 33.148438 C 31.632812 33.464844 32.121094 33.757812 32.621094 34.023438 C 33.121094 34.292969 33.632812 34.535156 34.15625 34.753906 C 34.683594 34.972656 35.214844 35.164062 35.757812 35.328125 C 36.300781 35.492188 36.851562 35.628906 37.40625 35.742188 C 37.964844 35.851562 38.523438 35.9375 39.089844 35.992188 C 39.652344 36.046875 40.21875 36.074219 40.785156 36.074219 C 41.355469 36.074219 41.917969 36.046875 42.484375 35.992188 C 43.050781 35.9375 43.609375 35.851562 44.164062 35.742188 C 44.722656 35.628906 45.273438 35.492188 45.816406 35.328125 C 46.359375 35.164062 46.890625 34.972656 47.414062 34.753906 C 47.9375 34.535156 48.453125 34.292969 48.953125 34.023438 C 49.453125 33.757812 49.9375 33.464844 50.410156 33.148438 C 50.882812 32.832031 51.335938 32.496094 51.773438 32.132812 C 52.214844 31.773438 52.632812 31.390625 53.035156 30.988281 C 53.4375 30.585938 53.816406 30.164062 54.175781 29.726562 C 54.535156 29.285156 54.875 28.832031 55.1875 28.359375 C 55.503906 27.882812 55.796875 27.398438 56.0625 26.894531 C 56.332031 26.394531 56.574219 25.882812 56.789062 25.355469 C 57.007812 24.828125 57.199219 24.296875 57.363281 23.75 C 57.527344 23.207031 57.664062 22.65625 57.777344 22.097656 C 57.886719 21.539062 57.96875 20.976562 58.023438 20.414062 C 58.082031 19.847656 58.109375 19.277344 58.109375 18.710938 C 58.109375 18.140625 58.082031 17.574219 58.023438 17.007812 C 57.96875 16.441406 57.886719 15.878906 57.777344 15.324219 C 57.664062 14.765625 57.527344 14.214844 57.363281 13.667969 C 57.199219 13.125 57.007812 12.589844 56.789062 12.066406 C 56.574219 11.539062 56.332031 11.027344 56.0625 10.523438 C 55.796875 10.023438 55.503906 9.535156 55.1875 9.0625 C 54.875 8.589844 54.535156 8.132812 54.175781 7.695312 C 53.816406 7.253906 53.4375 6.832031 53.035156 6.429688 C 52.632812 6.03125 52.214844 5.648438 51.773438 5.285156 C 51.335938 4.925781 50.882812 4.589844 50.410156 4.273438 C 49.9375 3.957031 49.453125 3.664062 48.953125 3.394531 C 48.453125 3.128906 47.9375 2.886719 47.414062 2.667969 C 46.890625 2.449219 46.359375 2.257812 45.816406 2.09375 C 45.273438 1.929688 44.722656 1.789062 44.164062 1.679688 C 43.609375 1.566406 43.050781 1.484375 42.484375 1.429688 C 41.917969 1.375 41.355469 1.34375 40.785156 1.34375 Z M 40.785156 1.34375 " fill-opacity="1" fill-rule="nonzero"/><path fill="#a88251" d="M 28.792969 16.039062 C 28.792969 21.617188 30.929688 26.527344 34.164062 29.394531 L 43.414062 29.394531 C 44.6875 28.246094 45.722656 26.910156 46.527344 25.390625 C 47.628906 23.292969 48.320312 21.066406 48.59375 18.710938 C 48.714844 17.824219 48.777344 16.933594 48.78125 16.039062 Z M 28.792969 16.039062 " fill-opacity="1" fill-rule="nonzero"/><path fill="#d6b387" d="M 51.078125 55.726562 C 52.570312 55.160156 53.167969 53.085938 52.417969 51.089844 C 51.664062 49.097656 49.84375 47.9375 48.351562 48.503906 C 46.859375 49.066406 46.261719 51.144531 47.015625 53.136719 C 47.765625 55.132812 49.585938 56.292969 51.078125 55.726562 Z M 51.078125 55.726562 " fill-opacity="1" fill-rule="nonzero"/><path fill="#d6b387" d="M 45.65625 71.601562 C 45.65625 77.777344 49.796875 73.144531 54.902344 73.144531 C 60.007812 73.144531 64.144531 77.777344 64.144531 71.601562 C 64.144531 69.949219 63.523438 69.097656 62.464844 68.453125 C 62.011719 68.175781 61.601562 67.84375 61.230469 67.457031 C 60.863281 67.070312 60.550781 66.644531 60.292969 66.179688 C 60.035156 65.710938 59.839844 65.21875 59.710938 64.699219 C 59.582031 64.183594 59.519531 63.65625 59.523438 63.125 L 59.523438 63.105469 C 59.523438 60.972656 57.453125 59.246094 54.902344 59.246094 C 52.351562 59.246094 50.28125 60.972656 50.28125 63.105469 L 50.28125 63.125 C 50.285156 63.65625 50.222656 64.183594 50.09375 64.699219 C 49.964844 65.21875 49.769531 65.710938 49.511719 66.179688 C 49.253906 66.644531 48.941406 67.070312 48.570312 67.457031 C 48.203125 67.84375 47.792969 68.175781 47.339844 68.453125 C 46.28125 69.097656 45.65625 69.949219 45.65625 71.601562 Z M 45.65625 71.601562 " fill-opacity="1" fill-rule="nonzero"/><path fill="#d6b387" d="M 40.644531 57.125 C 39.347656 58.054688 39.300781 60.214844 40.539062 61.949219 C 41.773438 63.6875 43.828125 64.335938 45.128906 63.40625 C 46.425781 62.476562 46.472656 60.316406 45.238281 58.582031 C 44 56.847656 41.945312 56.195312 40.644531 57.125 Z M 40.644531 57.125 " fill-opacity="1" fill-rule="nonzero"/><path fill="#d6b387" d="M 61.066406 48.523438 C 61.425781 48.65625 61.738281 48.875 62.003906 49.183594 C 62.269531 49.488281 62.464844 49.859375 62.59375 50.292969 C 62.726562 50.726562 62.777344 51.1875 62.753906 51.683594 C 62.726562 52.179688 62.625 52.664062 62.449219 53.148438 C 62.273438 53.628906 62.035156 54.0625 61.738281 54.457031 C 61.4375 54.851562 61.097656 55.171875 60.71875 55.417969 C 60.339844 55.664062 59.949219 55.816406 59.550781 55.878906 C 59.152344 55.941406 58.773438 55.90625 58.410156 55.773438 C 58.050781 55.640625 57.742188 55.421875 57.476562 55.113281 C 57.210938 54.808594 57.011719 54.4375 56.882812 54.003906 C 56.753906 53.574219 56.699219 53.109375 56.726562 52.613281 C 56.75 52.117188 56.851562 51.632812 57.027344 51.152344 C 57.203125 50.671875 57.441406 50.234375 57.742188 49.839844 C 58.042969 49.445312 58.382812 49.125 58.761719 48.878906 C 59.140625 48.632812 59.527344 48.480469 59.929688 48.417969 C 60.328125 48.355469 60.707031 48.390625 61.066406 48.523438 Z M 61.066406 48.523438 " fill-opacity="1" fill-rule="nonzero"/><path fill="#d6b387" d="M 69.011719 61.894531 C 70.234375 60.148438 70.164062 57.988281 68.855469 57.070312 C 67.550781 56.152344 65.5 56.824219 64.28125 58.570312 C 63.058594 60.320312 63.128906 62.476562 64.4375 63.394531 C 65.746094 64.3125 67.792969 63.640625 69.011719 61.894531 Z M 69.011719 61.894531 " fill-opacity="1" fill-rule="nonzero"/><path fill="#a8793c" d="M 47.261719 16.039062 C 46.984375 18.394531 46.296875 20.621094 45.195312 22.71875 L 45.167969 22.765625 C 43.8125 25.257812 41.125 26.726562 38.292969 26.726562 L 32.832031 26.726562 C 31.78125 25.769531 30.894531 24.679688 30.171875 23.460938 C 31.113281 25.859375 32.484375 27.90625 34.164062 29.394531 L 43.414062 29.394531 C 44.6875 28.246094 45.722656 26.910156 46.527344 25.390625 C 47.628906 23.292969 48.320312 21.066406 48.59375 18.710938 C 48.714844 17.824219 48.777344 16.933594 48.78125 16.039062 Z M 47.261719 16.039062 " fill-opacity="1" fill-rule="nonzero"/><g clip-path="url(#5380d237c0)"><path fill="#000000" d="M 3.570312 43.847656 L 3.570312 78.921875 C 3.570312 79.101562 3.605469 79.269531 3.671875 79.433594 C 3.738281 79.597656 3.835938 79.742188 3.960938 79.867188 C 4.085938 79.992188 4.230469 80.089844 4.394531 80.15625 C 4.558594 80.226562 4.726562 80.257812 4.902344 80.257812 L 76.855469 80.257812 C 77.03125 80.257812 77.203125 80.226562 77.367188 80.15625 C 77.527344 80.089844 77.671875 79.992188 77.796875 79.867188 C 77.921875 79.742188 78.019531 79.597656 78.085938 79.433594 C 78.152344 79.269531 78.1875 79.101562 78.1875 78.921875 L 78.1875 43.847656 C 79.160156 43.167969 79.972656 42.335938 80.628906 41.34375 C 80.769531 41.132812 80.84375 40.898438 80.851562 40.640625 C 80.859375 40.386719 80.796875 40.148438 80.667969 39.929688 L 68.859375 19.785156 L 68.859375 14.804688 C 68.859375 14.628906 68.828125 14.457031 68.757812 14.296875 C 68.691406 14.132812 68.59375 13.988281 68.46875 13.863281 C 68.34375 13.738281 68.203125 13.640625 68.039062 13.574219 C 67.875 13.503906 67.703125 13.472656 67.527344 13.472656 L 58.746094 13.472656 C 58.464844 12.511719 58.105469 11.582031 57.671875 10.683594 C 57.238281 9.78125 56.734375 8.921875 56.164062 8.101562 C 55.59375 7.28125 54.960938 6.511719 54.265625 5.792969 C 53.570312 5.074219 52.824219 4.417969 52.023438 3.820312 C 51.222656 3.222656 50.382812 2.691406 49.496094 2.230469 C 48.613281 1.769531 47.699219 1.378906 46.75 1.0625 C 45.804688 0.75 44.835938 0.511719 43.851562 0.351562 C 42.867188 0.191406 41.878906 0.113281 40.878906 0.113281 C 39.882812 0.113281 38.890625 0.191406 37.90625 0.351562 C 36.921875 0.511719 35.953125 0.75 35.007812 1.0625 C 34.0625 1.378906 33.144531 1.769531 32.261719 2.230469 C 31.375 2.691406 30.535156 3.222656 29.734375 3.820312 C 28.933594 4.417969 28.1875 5.074219 27.492188 5.792969 C 26.800781 6.511719 26.167969 7.28125 25.59375 8.101562 C 25.023438 8.921875 24.519531 9.78125 24.089844 10.683594 C 23.65625 11.582031 23.296875 12.511719 23.011719 13.472656 L 14.230469 13.472656 C 14.054688 13.472656 13.882812 13.503906 13.71875 13.574219 C 13.558594 13.640625 13.414062 13.738281 13.289062 13.863281 C 13.164062 13.988281 13.066406 14.132812 13 14.296875 C 12.933594 14.457031 12.898438 14.628906 12.898438 14.804688 L 12.898438 19.785156 L 1.089844 39.929688 C 0.960938 40.148438 0.898438 40.386719 0.90625 40.640625 C 0.914062 40.898438 0.988281 41.132812 1.128906 41.34375 C 1.785156 42.335938 2.597656 43.167969 3.570312 43.847656 Z M 19.558594 56.214844 L 27.554688 56.214844 L 27.554688 58.886719 L 19.558594 58.886719 Z M 22.226562 53.542969 L 23.558594 51.761719 L 24.890625 53.542969 Z M 18.894531 53.542969 L 18.226562 53.542969 C 18.050781 53.542969 17.882812 53.578125 17.71875 53.644531 C 17.554688 53.714844 17.410156 53.808594 17.285156 53.933594 C 17.160156 54.058594 17.0625 54.203125 16.996094 54.367188 C 16.929688 54.53125 16.894531 54.703125 16.894531 54.878906 L 16.894531 60.222656 C 16.894531 60.398438 16.929688 60.570312 16.996094 60.734375 C 17.0625 60.898438 17.160156 61.042969 17.285156 61.167969 C 17.410156 61.292969 17.554688 61.390625 17.71875 61.457031 C 17.882812 61.523438 18.050781 61.558594 18.226562 61.558594 L 28.886719 61.558594 C 29.0625 61.558594 29.234375 61.523438 29.398438 61.457031 C 29.558594 61.390625 29.703125 61.292969 29.828125 61.167969 C 29.953125 61.042969 30.050781 60.898438 30.117188 60.734375 C 30.1875 60.570312 30.21875 60.398438 30.21875 60.222656 L 30.21875 54.878906 C 30.21875 54.703125 30.1875 54.53125 30.117188 54.367188 C 30.050781 54.203125 29.953125 54.058594 29.828125 53.933594 C 29.703125 53.808594 29.558594 53.714844 29.398438 53.644531 C 29.234375 53.578125 29.0625 53.542969 28.886719 53.542969 L 28.222656 53.542969 L 26.222656 50.871094 L 31.550781 50.871094 L 31.550781 77.585938 L 12.898438 77.585938 L 12.898438 50.871094 L 20.894531 50.871094 Z M 75.523438 77.585938 L 34.21875 77.585938 L 34.21875 49.535156 C 34.21875 49.359375 34.183594 49.1875 34.117188 49.023438 C 34.046875 48.863281 33.953125 48.71875 33.828125 48.59375 C 33.703125 48.464844 33.558594 48.371094 33.394531 48.300781 C 33.230469 48.234375 33.0625 48.199219 32.882812 48.199219 L 11.566406 48.199219 C 11.390625 48.199219 11.21875 48.234375 11.054688 48.300781 C 10.890625 48.371094 10.75 48.464844 10.625 48.59375 C 10.5 48.71875 10.402344 48.863281 10.335938 49.023438 C 10.265625 49.1875 10.234375 49.359375 10.234375 49.535156 L 10.234375 77.585938 L 6.234375 77.585938 L 6.234375 45.125 C 7.105469 45.390625 7.992188 45.523438 8.902344 45.527344 C 12.550781 45.527344 15.414062 44.152344 16.960938 41.855469 C 18.578125 44.097656 21.460938 45.527344 24.890625 45.527344 C 28.539062 45.527344 31.40625 44.152344 32.953125 41.855469 C 34.566406 44.097656 37.453125 45.527344 40.878906 45.527344 C 44.527344 45.527344 47.394531 44.152344 48.941406 41.855469 C 50.558594 44.097656 53.441406 45.527344 56.867188 45.527344 C 60.464844 45.527344 63.300781 44.191406 64.863281 41.953125 C 66.425781 44.191406 69.261719 45.527344 72.859375 45.527344 C 73.765625 45.523438 74.65625 45.390625 75.523438 45.125 Z M 31.550781 34.984375 L 31.550781 37.515625 C 31.550781 41.453125 28.109375 42.859375 24.890625 42.859375 C 21.09375 42.859375 18.332031 40.679688 18.246094 37.660156 L 22.726562 23.054688 C 23.019531 24.296875 23.433594 25.5 23.96875 26.65625 C 24.503906 27.816406 25.152344 28.90625 25.910156 29.933594 C 26.667969 30.960938 27.523438 31.898438 28.472656 32.746094 C 29.425781 33.597656 30.449219 34.34375 31.550781 34.984375 Z M 59.03125 23.054688 L 63.519531 37.683594 C 63.421875 41.492188 60.042969 42.859375 56.867188 42.859375 C 53.007812 42.859375 50.207031 40.609375 50.207031 37.515625 L 50.207031 34.984375 C 51.308594 34.34375 52.335938 33.597656 53.285156 32.746094 C 54.234375 31.898438 55.089844 30.960938 55.847656 29.933594 C 56.605469 28.90625 57.253906 27.816406 57.789062 26.65625 C 58.328125 25.5 58.738281 24.296875 59.03125 23.054688 Z M 47.542969 37.515625 C 47.542969 41.453125 44.101562 42.855469 40.878906 42.855469 C 37.019531 42.855469 34.21875 40.609375 34.21875 37.515625 L 34.21875 36.261719 C 36.359375 37.097656 38.582031 37.515625 40.878906 37.515625 C 43.179688 37.515625 45.398438 37.097656 47.542969 36.261719 Z M 72.859375 42.855469 C 69.636719 42.855469 66.195312 41.453125 66.195312 37.515625 C 66.164062 37.386719 66.144531 37.253906 66.136719 37.121094 L 61.335938 21.484375 L 66.765625 21.484375 L 77.921875 40.515625 C 77.289062 41.257812 76.53125 41.835938 75.648438 42.246094 C 74.761719 42.652344 73.832031 42.859375 72.859375 42.859375 Z M 66.195312 16.140625 L 66.195312 18.8125 L 59.535156 18.8125 C 59.527344 17.917969 59.457031 17.027344 59.320312 16.140625 Z M 40.878906 2.785156 C 41.402344 2.785156 41.925781 2.808594 42.445312 2.863281 C 42.96875 2.914062 43.484375 2.992188 44 3.09375 C 44.511719 3.195312 45.019531 3.324219 45.519531 3.476562 C 46.023438 3.628906 46.515625 3.804688 47 4.003906 C 47.480469 4.207031 47.953125 4.429688 48.417969 4.675781 C 48.878906 4.925781 49.328125 5.195312 49.761719 5.484375 C 50.199219 5.777344 50.617188 6.089844 51.023438 6.421875 C 51.429688 6.757812 51.816406 7.109375 52.1875 7.480469 C 52.554688 7.851562 52.90625 8.238281 53.238281 8.644531 C 53.570312 9.050781 53.882812 9.472656 54.175781 9.910156 C 54.464844 10.34375 54.734375 10.792969 54.980469 11.257812 C 55.226562 11.71875 55.453125 12.195312 55.652344 12.679688 C 55.851562 13.164062 56.027344 13.660156 56.179688 14.160156 C 56.332031 14.664062 56.460938 15.171875 56.5625 15.6875 C 56.664062 16.203125 56.742188 16.71875 56.792969 17.242188 C 56.84375 17.765625 56.867188 18.289062 56.867188 18.8125 C 56.867188 19.339844 56.84375 19.863281 56.792969 20.386719 C 56.742188 20.90625 56.664062 21.425781 56.5625 21.941406 C 56.460938 22.457031 56.332031 22.964844 56.179688 23.464844 C 56.027344 23.96875 55.851562 24.460938 55.652344 24.949219 C 55.453125 25.433594 55.226562 25.90625 54.980469 26.371094 C 54.734375 26.832031 54.464844 27.28125 54.175781 27.71875 C 53.882812 28.15625 53.570312 28.578125 53.238281 28.984375 C 52.90625 29.386719 52.554688 29.777344 52.1875 30.148438 C 51.816406 30.519531 51.429688 30.871094 51.023438 31.203125 C 50.617188 31.539062 50.199219 31.851562 49.761719 32.140625 C 49.328125 32.433594 48.878906 32.703125 48.417969 32.949219 C 47.953125 33.199219 47.480469 33.421875 47 33.621094 C 46.515625 33.824219 46.023438 34 45.519531 34.152344 C 45.019531 34.304688 44.511719 34.433594 44 34.535156 C 43.484375 34.636719 42.96875 34.714844 42.445312 34.765625 C 41.925781 34.816406 41.402344 34.84375 40.878906 34.84375 C 40.355469 34.84375 39.832031 34.816406 39.3125 34.765625 C 38.789062 34.714844 38.273438 34.636719 37.761719 34.535156 C 37.246094 34.433594 36.738281 34.304688 36.238281 34.152344 C 35.738281 34 35.246094 33.824219 34.761719 33.621094 C 34.277344 33.421875 33.804688 33.199219 33.34375 32.949219 C 32.878906 32.703125 32.429688 32.433594 31.996094 32.140625 C 31.5625 31.851562 31.140625 31.539062 30.734375 31.203125 C 30.332031 30.871094 29.945312 30.519531 29.574219 30.148438 C 29.203125 29.777344 28.851562 29.386719 28.519531 28.984375 C 28.1875 28.578125 27.875 28.15625 27.585938 27.71875 C 27.292969 27.28125 27.023438 26.832031 26.777344 26.371094 C 26.53125 25.90625 26.308594 25.433594 26.105469 24.949219 C 25.90625 24.460938 25.730469 23.96875 25.578125 23.464844 C 25.425781 22.964844 25.300781 22.457031 25.195312 21.941406 C 25.09375 21.425781 25.019531 20.90625 24.96875 20.386719 C 24.914062 19.863281 24.890625 19.339844 24.890625 18.8125 C 24.890625 18.289062 24.917969 17.765625 24.96875 17.242188 C 25.019531 16.722656 25.097656 16.203125 25.199219 15.6875 C 25.304688 15.171875 25.429688 14.664062 25.582031 14.164062 C 25.734375 13.660156 25.910156 13.167969 26.113281 12.683594 C 26.3125 12.199219 26.535156 11.722656 26.785156 11.261719 C 27.03125 10.796875 27.300781 10.347656 27.589844 9.914062 C 27.882812 9.476562 28.191406 9.054688 28.523438 8.648438 C 28.855469 8.246094 29.207031 7.855469 29.578125 7.484375 C 29.949219 7.113281 30.335938 6.761719 30.742188 6.429688 C 31.144531 6.097656 31.566406 5.785156 32 5.492188 C 32.4375 5.199219 32.882812 4.929688 33.347656 4.683594 C 33.808594 4.433594 34.28125 4.210938 34.761719 4.011719 C 35.246094 3.808594 35.738281 3.632812 36.238281 3.480469 C 36.742188 3.328125 37.246094 3.199219 37.761719 3.097656 C 38.273438 2.992188 38.792969 2.914062 39.3125 2.863281 C 39.832031 2.8125 40.355469 2.785156 40.878906 2.785156 Z M 22.4375 16.140625 C 22.304688 17.027344 22.230469 17.917969 22.226562 18.8125 L 15.5625 18.8125 L 15.5625 16.140625 Z M 14.992188 21.484375 L 20.421875 21.484375 L 15.621094 37.121094 C 15.609375 37.1875 15.605469 37.25 15.601562 37.316406 C 15.585938 37.382812 15.570312 37.449219 15.5625 37.515625 C 15.5625 41.453125 12.121094 42.855469 8.902344 42.855469 C 7.925781 42.859375 6.996094 42.652344 6.113281 42.246094 C 5.226562 41.835938 4.46875 41.257812 3.835938 40.515625 Z M 14.992188 21.484375 " fill-opacity="1" fill-rule="nonzero"/></g><path fill="#000000" d="M 15.5625 66.902344 L 16.894531 66.902344 C 17.070312 66.902344 17.242188 66.867188 17.40625 66.800781 C 17.570312 66.730469 17.710938 66.636719 17.835938 66.511719 C 17.960938 66.382812 18.058594 66.242188 18.125 66.078125 C 18.195312 65.914062 18.226562 65.742188 18.226562 65.566406 C 18.226562 65.386719 18.195312 65.21875 18.125 65.054688 C 18.058594 64.890625 17.960938 64.746094 17.835938 64.621094 C 17.710938 64.496094 17.570312 64.398438 17.40625 64.332031 C 17.242188 64.261719 17.070312 64.230469 16.894531 64.230469 L 15.5625 64.230469 C 15.386719 64.230469 15.214844 64.261719 15.054688 64.332031 C 14.890625 64.398438 14.746094 64.496094 14.621094 64.621094 C 14.496094 64.746094 14.398438 64.890625 14.332031 65.054688 C 14.265625 65.21875 14.230469 65.386719 14.230469 65.566406 C 14.230469 65.742188 14.265625 65.914062 14.332031 66.078125 C 14.398438 66.242188 14.496094 66.382812 14.621094 66.511719 C 14.746094 66.636719 14.890625 66.730469 15.054688 66.800781 C 15.214844 66.867188 15.386719 66.902344 15.5625 66.902344 Z M 15.5625 66.902344 " fill-opacity="1" fill-rule="nonzero"/><path fill="#000000" d="M 33.371094 30.5 C 33.625 30.722656 33.917969 30.835938 34.257812 30.835938 L 43.503906 30.835938 C 43.84375 30.835938 44.136719 30.722656 44.386719 30.5 C 45.566406 29.429688 46.558594 28.203125 47.363281 26.828125 L 49.539062 26.828125 C 50.132812 26.828125 50.703125 26.722656 51.253906 26.503906 C 51.804688 26.289062 52.296875 25.976562 52.726562 25.570312 C 53.160156 25.167969 53.503906 24.695312 53.757812 24.160156 C 54.007812 23.621094 54.15625 23.058594 54.191406 22.46875 C 54.230469 21.875 54.160156 21.296875 53.976562 20.730469 C 53.796875 20.167969 53.515625 19.65625 53.140625 19.199219 C 52.765625 18.742188 52.316406 18.367188 51.796875 18.082031 C 51.28125 17.796875 50.726562 17.613281 50.140625 17.539062 C 50.167969 17.074219 50.207031 16.613281 50.207031 16.144531 C 50.207031 15.964844 50.171875 15.796875 50.105469 15.632812 C 50.035156 15.46875 49.941406 15.324219 49.816406 15.199219 C 49.691406 15.074219 49.546875 14.976562 49.382812 14.910156 C 49.21875 14.839844 49.050781 14.808594 48.875 14.808594 L 28.886719 14.808594 C 28.710938 14.808594 28.539062 14.839844 28.375 14.910156 C 28.214844 14.976562 28.070312 15.074219 27.945312 15.199219 C 27.820312 15.324219 27.722656 15.46875 27.65625 15.632812 C 27.589844 15.796875 27.554688 15.964844 27.554688 16.144531 C 27.554688 21.898438 29.730469 27.265625 33.371094 30.5 Z M 51.539062 22.152344 C 51.539062 22.417969 51.488281 22.675781 51.386719 22.917969 C 51.285156 23.164062 51.140625 23.382812 50.953125 23.570312 C 50.765625 23.757812 50.550781 23.902344 50.304688 24.003906 C 50.058594 24.105469 49.804688 24.15625 49.539062 24.15625 L 48.703125 24.15625 C 49.210938 22.867188 49.589844 21.542969 49.835938 20.179688 C 50.070312 20.214844 50.292969 20.289062 50.503906 20.40625 C 50.714844 20.519531 50.894531 20.667969 51.050781 20.847656 C 51.207031 21.03125 51.328125 21.234375 51.414062 21.457031 C 51.496094 21.683594 51.539062 21.914062 51.539062 22.152344 Z M 47.496094 17.476562 C 47.46875 17.925781 47.414062 18.367188 47.355469 18.808594 C 47.355469 18.808594 47.355469 18.8125 47.355469 18.8125 L 47.355469 18.816406 C 46.851562 22.566406 45.304688 25.921875 42.984375 28.164062 L 34.777344 28.164062 C 32.183594 25.65625 30.546875 21.761719 30.261719 17.476562 Z M 47.496094 17.476562 " fill-opacity="1" fill-rule="nonzero"/><path fill="#000000" d="M 34.21875 13.472656 C 34.394531 13.472656 34.5625 13.4375 34.726562 13.371094 C 34.890625 13.300781 35.035156 13.207031 35.160156 13.078125 C 35.285156 12.953125 35.378906 12.808594 35.449219 12.648438 C 35.515625 12.484375 35.550781 12.3125 35.550781 12.136719 L 35.550781 8.128906 C 35.550781 7.949219 35.515625 7.78125 35.449219 7.617188 C 35.378906 7.453125 35.285156 7.308594 35.160156 7.183594 C 35.035156 7.058594 34.890625 6.960938 34.726562 6.894531 C 34.5625 6.828125 34.394531 6.792969 34.21875 6.792969 C 34.039062 6.792969 33.871094 6.828125 33.707031 6.894531 C 33.542969 6.960938 33.398438 7.058594 33.273438 7.183594 C 33.148438 7.308594 33.054688 7.453125 32.984375 7.617188 C 32.917969 7.78125 32.882812 7.949219 32.882812 8.128906 L 32.882812 12.136719 C 32.882812 12.3125 32.917969 12.484375 32.984375 12.648438 C 33.054688 12.808594 33.148438 12.953125 33.273438 13.078125 C 33.398438 13.207031 33.542969 13.300781 33.707031 13.371094 C 33.871094 13.4375 34.039062 13.472656 34.21875 13.472656 Z M 34.21875 13.472656 " fill-opacity="1" fill-rule="nonzero"/><path fill="#000000" d="M 38.214844 13.472656 C 38.390625 13.472656 38.5625 13.4375 38.722656 13.371094 C 38.886719 13.300781 39.03125 13.207031 39.15625 13.078125 C 39.28125 12.953125 39.378906 12.808594 39.445312 12.648438 C 39.511719 12.484375 39.546875 12.3125 39.546875 12.136719 L 39.546875 8.128906 C 39.546875 7.949219 39.511719 7.78125 39.445312 7.617188 C 39.378906 7.453125 39.28125 7.308594 39.15625 7.183594 C 39.03125 7.058594 38.886719 6.960938 38.722656 6.894531 C 38.5625 6.828125 38.390625 6.792969 38.214844 6.792969 C 38.039062 6.792969 37.867188 6.828125 37.703125 6.894531 C 37.542969 6.960938 37.398438 7.058594 37.273438 7.183594 C 37.148438 7.308594 37.050781 7.453125 36.984375 7.617188 C 36.914062 7.78125 36.882812 7.949219 36.882812 8.128906 L 36.882812 12.136719 C 36.882812 12.3125 36.914062 12.484375 36.984375 12.648438 C 37.050781 12.808594 37.148438 12.953125 37.273438 13.078125 C 37.398438 13.207031 37.542969 13.300781 37.703125 13.371094 C 37.867188 13.4375 38.039062 13.472656 38.214844 13.472656 Z M 38.214844 13.472656 " fill-opacity="1" fill-rule="nonzero"/><path fill="#000000" d="M 42.210938 13.472656 C 42.386719 13.472656 42.558594 13.4375 42.722656 13.371094 C 42.886719 13.300781 43.027344 13.207031 43.152344 13.078125 C 43.277344 12.953125 43.375 12.808594 43.441406 12.648438 C 43.511719 12.484375 43.542969 12.3125 43.542969 12.136719 L 43.542969 8.128906 C 43.542969 7.949219 43.511719 7.78125 43.441406 7.617188 C 43.375 7.453125 43.277344 7.308594 43.152344 7.183594 C 43.027344 7.058594 42.886719 6.960938 42.722656 6.894531 C 42.558594 6.828125 42.386719 6.792969 42.210938 6.792969 C 42.035156 6.792969 41.863281 6.828125 41.703125 6.894531 C 41.539062 6.960938 41.394531 7.058594 41.269531 7.183594 C 41.144531 7.308594 41.046875 7.453125 40.980469 7.617188 C 40.914062 7.78125 40.878906 7.949219 40.878906 8.128906 L 40.878906 12.136719 C 40.878906 12.3125 40.914062 12.484375 40.980469 12.648438 C 41.046875 12.808594 41.144531 12.953125 41.269531 13.078125 C 41.394531 13.207031 41.539062 13.300781 41.703125 13.371094 C 41.863281 13.4375 42.035156 13.472656 42.210938 13.472656 Z M 42.210938 13.472656 " fill-opacity="1" fill-rule="nonzero"/><path fill="#000000" d="M 48.148438 56.625 C 48.828125 57.070312 49.574219 57.296875 50.386719 57.304688 C 50.820312 57.308594 51.238281 57.230469 51.640625 57.078125 C 52.75 56.660156 53.597656 55.691406 53.960938 54.417969 C 54.300781 53.164062 54.230469 51.933594 53.757812 50.722656 C 52.730469 47.996094 50.191406 46.523438 47.976562 47.355469 C 46.867188 47.777344 46.023438 48.746094 45.65625 50.019531 C 45.5 50.628906 45.4375 51.25 45.472656 51.882812 C 45.507812 52.511719 45.636719 53.125 45.863281 53.714844 C 46.085938 54.304688 46.390625 54.851562 46.78125 55.347656 C 47.171875 55.84375 47.628906 56.269531 48.148438 56.625 Z M 48.214844 50.761719 C 48.292969 50.492188 48.484375 50.019531 48.917969 49.855469 C 49.019531 49.820312 49.125 49.800781 49.234375 49.800781 C 49.914062 49.800781 50.8125 50.472656 51.265625 51.667969 C 51.527344 52.320312 51.574219 52.992188 51.402344 53.675781 C 51.324219 53.941406 51.132812 54.417969 50.699219 54.578125 C 50.269531 54.742188 49.8125 54.515625 49.578125 54.367188 C 49.007812 53.957031 48.601562 53.425781 48.355469 52.769531 C 48.105469 52.113281 48.0625 51.445312 48.214844 50.761719 Z M 48.214844 50.761719 " fill-opacity="1" fill-rule="nonzero"/><path fill="#000000" d="M 63.246094 67.417969 C 62.523438 66.964844 61.957031 66.367188 61.546875 65.617188 C 61.136719 64.867188 60.9375 64.0625 60.949219 63.210938 C 60.949219 60.34375 58.277344 58.011719 54.996094 58.011719 C 51.710938 58.011719 49.039062 60.34375 49.039062 63.234375 C 49.046875 64.085938 48.847656 64.882812 48.4375 65.628906 C 48.027344 66.371094 47.460938 66.96875 46.742188 67.417969 C 45.15625 68.378906 44.417969 69.742188 44.417969 71.703125 C 44.417969 73.109375 44.578125 74.835938 45.820312 75.734375 C 47.148438 76.691406 48.828125 76.128906 50.613281 75.535156 C 51.941406 75.089844 53.453125 74.582031 54.996094 74.582031 C 56.539062 74.582031 58.046875 75.089844 59.375 75.535156 C 60.464844 75.898438 61.515625 76.25 62.472656 76.25 C 63.097656 76.265625 63.660156 76.09375 64.167969 75.734375 C 65.410156 74.835938 65.570312 73.109375 65.570312 71.703125 C 65.570312 69.742188 64.832031 68.378906 63.246094 67.417969 Z M 62.621094 73.5625 C 62.308594 73.699219 61.050781 73.277344 60.21875 73 C 58.773438 72.515625 56.96875 71.914062 54.996094 71.914062 C 53.019531 71.914062 51.214844 72.515625 49.769531 73 C 48.9375 73.277344 47.683594 73.695312 47.382812 73.570312 C 47.378906 73.566406 47.082031 73.269531 47.082031 71.703125 C 47.082031 70.542969 47.433594 70.121094 48.121094 69.703125 C 48.671875 69.359375 49.171875 68.957031 49.621094 68.484375 C 50.066406 68.015625 50.449219 67.496094 50.761719 66.925781 C 51.078125 66.359375 51.3125 65.757812 51.472656 65.128906 C 51.632812 64.5 51.710938 63.859375 51.703125 63.210938 C 51.703125 61.816406 53.179688 60.683594 54.992188 60.683594 C 56.808594 60.683594 58.28125 61.816406 58.28125 63.222656 C 58.277344 63.871094 58.355469 64.507812 58.515625 65.136719 C 58.675781 65.765625 58.914062 66.363281 59.226562 66.933594 C 59.539062 67.5 59.921875 68.019531 60.367188 68.488281 C 60.816406 68.957031 61.316406 69.363281 61.867188 69.703125 C 62.554688 70.121094 62.90625 70.542969 62.90625 71.703125 C 62.90625 73.253906 62.613281 73.5625 62.621094 73.5625 Z M 62.621094 73.5625 " fill-opacity="1" fill-rule="nonzero"/><path fill="#000000" d="M 46.414062 57.910156 C 45.671875 56.839844 44.6875 56.101562 43.460938 55.683594 C 42.199219 55.285156 40.925781 55.453125 39.964844 56.144531 C 39.003906 56.832031 38.433594 57.988281 38.402344 59.308594 C 38.394531 60.609375 38.777344 61.785156 39.546875 62.832031 C 40.671875 64.40625 42.300781 65.277344 43.832031 65.277344 C 44.628906 65.285156 45.347656 65.058594 45.996094 64.597656 C 47.921875 63.214844 48.101562 60.277344 46.414062 57.910156 Z M 44.445312 62.421875 C 43.847656 62.851562 42.578125 62.488281 41.714844 61.277344 C 41.292969 60.710938 41.078125 60.078125 41.066406 59.371094 C 41.070312 59.09375 41.140625 58.585938 41.515625 58.316406 C 41.695312 58.191406 41.894531 58.136719 42.113281 58.140625 C 42.296875 58.144531 42.476562 58.175781 42.65625 58.230469 C 43.316406 58.46875 43.847656 58.878906 44.246094 59.460938 C 45.109375 60.671875 45.042969 61.996094 44.445312 62.421875 Z M 44.445312 62.421875 " fill-opacity="1" fill-rule="nonzero"/><path fill="#000000" d="M 58.046875 57.132812 C 58.449219 57.28125 58.863281 57.355469 59.292969 57.355469 C 61.144531 57.355469 62.976562 55.941406 63.792969 53.710938 C 64.257812 52.496094 64.316406 51.261719 63.964844 50.011719 C 63.585938 48.746094 62.730469 47.785156 61.617188 47.375 C 59.398438 46.558594 56.871094 48.058594 55.871094 50.792969 C 54.867188 53.53125 55.824219 56.3125 58.046875 57.132812 Z M 58.371094 51.714844 C 58.882812 50.316406 60.011719 49.625 60.699219 49.882812 C 61.132812 50.042969 61.332031 50.511719 61.410156 50.78125 C 61.589844 51.464844 61.550781 52.132812 61.292969 52.789062 C 60.78125 54.1875 59.648438 54.878906 58.964844 54.625 C 58.273438 54.371094 57.859375 53.113281 58.371094 51.714844 Z M 58.371094 51.714844 " fill-opacity="1" fill-rule="nonzero"/><path fill="#000000" d="M 69.714844 56.082031 C 68.746094 55.402344 67.472656 55.246094 66.214844 55.65625 C 65.621094 55.871094 65.078125 56.171875 64.574219 56.558594 C 64.074219 56.941406 63.644531 57.390625 63.28125 57.910156 C 62.921875 58.425781 62.644531 58.988281 62.457031 59.589844 C 62.265625 60.191406 62.171875 60.808594 62.171875 61.441406 C 62.214844 62.765625 62.796875 63.914062 63.765625 64.59375 C 64.40625 65.042969 65.113281 65.261719 65.894531 65.253906 C 67.4375 65.253906 69.078125 64.367188 70.195312 62.765625 C 71.863281 60.378906 71.652344 57.441406 69.714844 56.082031 Z M 68.015625 61.234375 C 67.160156 62.453125 65.894531 62.828125 65.292969 62.40625 C 64.917969 62.140625 64.84375 61.632812 64.835938 61.355469 C 64.855469 60.652344 65.0625 60.015625 65.464844 59.441406 C 65.867188 58.867188 66.394531 58.453125 67.042969 58.195312 C 67.226562 58.136719 67.410156 58.101562 67.601562 58.101562 C 67.8125 58.09375 68.007812 58.152344 68.183594 58.269531 C 68.789062 58.691406 68.867188 60.015625 68.015625 61.234375 Z M 68.015625 61.234375 " fill-opacity="1" fill-rule="nonzero"/></g></g></g><g mask="url(#4482a4a2c5)"><g transform="matrix(1, 0, 0, 1, 142, 43)"><g clip-path="url(#8e2b3eb690)"><g fill="#000000" fill-opacity="1"><g transform="translate(10.211487, 32.252428)"><g><path d="M 10.8125 -11.609375 C 11.4375 -10.859375 11.671875 -9.96875 11.515625 -8.9375 C 11.367188 -7.90625 10.867188 -7.023438 10.015625 -6.296875 C 9.148438 -5.578125 8.195312 -5.222656 7.15625 -5.234375 C 6.113281 -5.253906 5.273438 -5.644531 4.640625 -6.40625 C 4.003906 -7.15625 3.765625 -8.050781 3.921875 -9.09375 C 4.078125 -10.132812 4.585938 -11.015625 5.453125 -11.734375 C 6.304688 -12.460938 7.253906 -12.804688 8.296875 -12.765625 C 9.347656 -12.734375 10.1875 -12.347656 10.8125 -11.609375 Z M -7.171875 -10.40625 C -7.335938 -10.613281 -7.425781 -10.847656 -7.4375 -11.109375 C -7.457031 -11.367188 -7.316406 -11.628906 -7.015625 -11.890625 L -3.328125 -14.984375 C -3.003906 -15.265625 -2.65625 -15.179688 -2.28125 -14.734375 C -1.914062 -14.296875 -1.894531 -13.941406 -2.21875 -13.671875 L -5.0625 -11.28125 C -5.113281 -11.226562 -5.132812 -11.179688 -5.125 -11.140625 C -5.125 -11.109375 -5.109375 -11.078125 -5.078125 -11.046875 L -1.5625 -6.859375 C -1.519531 -6.816406 -1.472656 -6.789062 -1.421875 -6.78125 C -1.378906 -6.78125 -1.347656 -6.800781 -1.328125 -6.84375 C -0.992188 -7.3125 -0.671875 -7.898438 -0.359375 -8.609375 C -0.0546875 -9.316406 0.171875 -10.117188 0.328125 -11.015625 C 0.441406 -11.660156 0.804688 -11.878906 1.421875 -11.671875 C 2.046875 -11.472656 2.304688 -11.085938 2.203125 -10.515625 C 2.066406 -9.742188 1.753906 -8.75 1.265625 -7.53125 C 0.785156 -6.320312 0.171875 -5.226562 -0.578125 -4.25 C -0.742188 -4.050781 -0.953125 -3.921875 -1.203125 -3.859375 C -1.460938 -3.804688 -1.675781 -3.878906 -1.84375 -4.078125 Z M 4.453125 -12.140625 C 4.804688 -11.722656 4.722656 -11.296875 4.203125 -10.859375 C 3.691406 -10.429688 3.257812 -10.425781 2.90625 -10.84375 L -1.4375 -16.015625 C -1.789062 -16.429688 -1.707031 -16.851562 -1.1875 -17.28125 C -0.675781 -17.71875 -0.242188 -17.726562 0.109375 -17.3125 L 1.625 -15.515625 L 2.59375 -16.328125 C 2.726562 -16.441406 2.859375 -16.492188 2.984375 -16.484375 L 1.390625 -18.390625 C 1.035156 -18.804688 1.113281 -19.234375 1.625 -19.671875 C 2.144531 -20.109375 2.582031 -20.117188 2.9375 -19.703125 L 7.28125 -14.53125 C 7.632812 -14.113281 7.550781 -13.6875 7.03125 -13.25 C 6.519531 -12.8125 6.085938 -12.800781 5.734375 -13.21875 L 3.921875 -15.390625 C 3.898438 -15.253906 3.820312 -15.128906 3.6875 -15.015625 L 2.71875 -14.203125 Z M 9.265625 -10.3125 C 8.929688 -10.707031 8.503906 -10.910156 7.984375 -10.921875 C 7.460938 -10.941406 6.988281 -10.769531 6.5625 -10.40625 C 6.132812 -10.050781 5.882812 -9.613281 5.8125 -9.09375 C 5.738281 -8.582031 5.867188 -8.128906 6.203125 -7.734375 C 6.523438 -7.347656 6.945312 -7.144531 7.46875 -7.125 C 7.988281 -7.101562 8.460938 -7.269531 8.890625 -7.625 C 9.316406 -7.988281 9.566406 -8.429688 9.640625 -8.953125 C 9.710938 -9.472656 9.585938 -9.925781 9.265625 -10.3125 Z M 9.265625 -10.3125 "/></g></g></g><g fill="#000000" fill-opacity="1"><g transform="translate(22.048344, 22.014184)"><g><path d="M 13.828125 -7.796875 C 14.203125 -6.890625 14.160156 -5.96875 13.703125 -5.03125 C 13.242188 -4.09375 12.492188 -3.40625 11.453125 -2.96875 C 10.410156 -2.539062 9.394531 -2.492188 8.40625 -2.828125 C 7.414062 -3.171875 6.734375 -3.800781 6.359375 -4.71875 C 5.984375 -5.625 6.023438 -6.539062 6.484375 -7.46875 C 6.941406 -8.40625 7.691406 -9.085938 8.734375 -9.515625 C 9.773438 -9.953125 10.789062 -10 11.78125 -9.65625 C 12.78125 -9.3125 13.460938 -8.691406 13.828125 -7.796875 Z M -3.6875 -12.109375 C -3.78125 -12.347656 -3.796875 -12.59375 -3.734375 -12.84375 C -3.671875 -13.09375 -3.453125 -13.296875 -3.078125 -13.453125 L 1.375 -15.296875 C 1.757812 -15.453125 2.054688 -15.265625 2.265625 -14.734375 C 2.484375 -14.203125 2.40625 -13.859375 2.03125 -13.703125 L -1.40625 -12.28125 C -1.476562 -12.25 -1.515625 -12.21875 -1.515625 -12.1875 C -1.515625 -12.15625 -1.503906 -12.113281 -1.484375 -12.0625 L 0.59375 -7.015625 C 0.613281 -6.960938 0.644531 -6.925781 0.6875 -6.90625 C 0.738281 -6.882812 0.78125 -6.890625 0.8125 -6.921875 C 1.269531 -7.265625 1.75 -7.722656 2.25 -8.296875 C 2.757812 -8.878906 3.226562 -9.582031 3.65625 -10.40625 C 3.96875 -10.976562 4.382812 -11.070312 4.90625 -10.6875 C 5.425781 -10.3125 5.550781 -9.867188 5.28125 -9.359375 C 4.925781 -8.660156 4.332031 -7.804688 3.5 -6.796875 C 2.664062 -5.785156 1.742188 -4.925781 0.734375 -4.21875 C 0.515625 -4.082031 0.273438 -4.023438 0.015625 -4.046875 C -0.242188 -4.078125 -0.421875 -4.210938 -0.515625 -4.453125 Z M 7.921875 -10.234375 C 8.128906 -9.722656 7.921875 -9.335938 7.296875 -9.078125 C 6.679688 -8.816406 6.269531 -8.941406 6.0625 -9.453125 L 3.484375 -15.6875 C 3.273438 -16.1875 3.476562 -16.566406 4.09375 -16.828125 C 4.71875 -17.085938 5.132812 -16.96875 5.34375 -16.46875 L 6.234375 -14.296875 L 7.40625 -14.78125 C 7.570312 -14.84375 7.71875 -14.847656 7.84375 -14.796875 L 6.890625 -17.09375 C 6.679688 -17.59375 6.890625 -17.972656 7.515625 -18.234375 C 8.148438 -18.492188 8.570312 -18.375 8.78125 -17.875 L 11.359375 -11.640625 C 11.566406 -11.128906 11.351562 -10.742188 10.71875 -10.484375 C 10.09375 -10.222656 9.675781 -10.347656 9.46875 -10.859375 L 8.390625 -13.46875 C 8.335938 -13.351562 8.226562 -13.265625 8.0625 -13.203125 L 6.890625 -12.71875 Z M 11.953125 -7.03125 C 11.753906 -7.5 11.410156 -7.816406 10.921875 -7.984375 C 10.429688 -8.160156 9.925781 -8.140625 9.40625 -7.921875 C 8.894531 -7.710938 8.523438 -7.375 8.296875 -6.90625 C 8.066406 -6.4375 8.050781 -5.96875 8.25 -5.5 C 8.445312 -5.019531 8.789062 -4.691406 9.28125 -4.515625 C 9.769531 -4.335938 10.269531 -4.351562 10.78125 -4.5625 C 11.300781 -4.78125 11.675781 -5.125 11.90625 -5.59375 C 12.132812 -6.070312 12.148438 -6.550781 11.953125 -7.03125 Z M 11.953125 -7.03125 "/></g></g></g><g clip-path="url(#e323b8de12)"><g fill="#000000" fill-opacity="1"><g transform="translate(36.554878, 16.011842)"><g><path d="M 4.40625 0.78125 C 4.007812 0.820312 3.722656 0.742188 3.546875 0.546875 C 3.367188 0.359375 3.265625 0.132812 3.234375 -0.125 L 3.046875 -2.015625 C 3.015625 -2.265625 3.066406 -2.503906 3.203125 -2.734375 C 3.335938 -2.960938 3.601562 -3.097656 4 -3.140625 L 10.8125 -3.875 C 10.882812 -3.875 10.921875 -3.890625 10.921875 -3.921875 C 10.929688 -3.953125 10.9375 -3.992188 10.9375 -4.046875 L 10.890625 -4.359375 C 10.890625 -4.410156 10.878906 -4.453125 10.859375 -4.484375 C 10.847656 -4.515625 10.804688 -4.53125 10.734375 -4.53125 L 3.40625 -3.75 C 2.988281 -3.695312 2.75 -3.941406 2.6875 -4.484375 C 2.625 -5.023438 2.804688 -5.320312 3.234375 -5.375 L 11.65625 -6.265625 C 12.050781 -6.304688 12.335938 -6.226562 12.515625 -6.03125 C 12.691406 -5.84375 12.796875 -5.625 12.828125 -5.375 L 13.03125 -3.453125 C 13.0625 -3.203125 13.007812 -2.960938 12.875 -2.734375 C 12.738281 -2.515625 12.472656 -2.382812 12.078125 -2.34375 L 5.265625 -1.625 C 5.191406 -1.613281 5.148438 -1.59375 5.140625 -1.5625 C 5.140625 -1.53125 5.140625 -1.488281 5.140625 -1.4375 L 5.171875 -1.140625 C 5.179688 -1.097656 5.191406 -1.054688 5.203125 -1.015625 C 5.210938 -0.984375 5.253906 -0.972656 5.328125 -0.984375 L 12.953125 -1.796875 C 13.398438 -1.835938 13.648438 -1.582031 13.703125 -1.03125 C 13.753906 -0.488281 13.5625 -0.195312 13.125 -0.15625 Z M 0.3125 -5.734375 C -0.113281 -5.691406 -0.359375 -5.929688 -0.421875 -6.453125 C -0.484375 -6.984375 -0.296875 -7.269531 0.140625 -7.3125 L 12.796875 -8.65625 C 13.234375 -8.707031 13.476562 -8.46875 13.53125 -7.9375 C 13.582031 -7.414062 13.394531 -7.128906 12.96875 -7.078125 Z M 1.109375 -12.078125 C 0.691406 -12.035156 0.445312 -12.296875 0.375 -12.859375 C 0.3125 -13.429688 0.492188 -13.738281 0.921875 -13.78125 L 10.8125 -14.828125 C 11.25 -14.878906 11.492188 -14.617188 11.546875 -14.046875 C 11.609375 -13.484375 11.425781 -13.175781 11 -13.125 Z M 8.53125 -8.890625 C 8.125 -8.847656 7.832031 -8.921875 7.65625 -9.109375 C 7.476562 -9.296875 7.375 -9.519531 7.34375 -9.78125 L 7.15625 -11.640625 C 7.09375 -12.179688 7.394531 -12.488281 8.0625 -12.5625 C 8.738281 -12.632812 9.109375 -12.398438 9.171875 -11.859375 L 9.265625 -10.859375 C 9.273438 -10.804688 9.285156 -10.765625 9.296875 -10.734375 C 9.316406 -10.710938 9.363281 -10.707031 9.4375 -10.71875 L 11.234375 -10.90625 C 11.648438 -10.957031 11.890625 -10.695312 11.953125 -10.125 C 12.015625 -9.550781 11.832031 -9.238281 11.40625 -9.1875 Z M 5.359375 -9.578125 C 5.390625 -9.316406 5.335938 -9.070312 5.203125 -8.84375 C 5.078125 -8.625 4.8125 -8.492188 4.40625 -8.453125 L 1.5 -8.140625 C 1.070312 -8.097656 0.832031 -8.363281 0.78125 -8.9375 C 0.726562 -9.507812 0.910156 -9.816406 1.328125 -9.859375 L 3.140625 -10.046875 C 3.210938 -10.054688 3.25 -10.070312 3.25 -10.09375 C 3.257812 -10.125 3.257812 -10.164062 3.25 -10.21875 L 3.15625 -11.21875 C 3.09375 -11.757812 3.394531 -12.066406 4.0625 -12.140625 C 4.738281 -12.210938 5.109375 -11.976562 5.171875 -11.4375 Z M 5.359375 -9.578125 "/></g></g></g></g><g clip-path="url(#ce000f1a4f)"><g fill="#000000" fill-opacity="1"><g transform="translate(49.760868, 14.288934)"><g><path d="M 9.40625 -7.140625 C 9.382812 -7.035156 9.347656 -6.9375 9.296875 -6.84375 L 11 -6.53125 L 11.84375 -11.265625 C 11.9375 -11.796875 12.3125 -12.003906 12.96875 -11.890625 C 13.632812 -11.773438 13.921875 -11.453125 13.828125 -10.921875 L 11.578125 1.671875 C 11.484375 2.210938 11.101562 2.425781 10.4375 2.3125 C 9.78125 2.195312 9.5 1.867188 9.59375 1.328125 L 10.703125 -4.84375 L 8.734375 -5.203125 C 8.328125 -5.273438 8.164062 -5.59375 8.25 -6.15625 L 8.28125 -6.3125 L 8.171875 -6.328125 L 4.6875 -6.953125 C 4.613281 -6.960938 4.566406 -6.953125 4.546875 -6.921875 C 4.523438 -6.898438 4.507812 -6.867188 4.5 -6.828125 L 3.859375 -3.171875 C 3.847656 -3.128906 3.851562 -3.085938 3.875 -3.046875 C 3.90625 -3.003906 3.941406 -2.976562 3.984375 -2.96875 C 4.628906 -2.820312 5.429688 -2.800781 6.390625 -2.90625 C 7.347656 -3.019531 8.226562 -3.179688 9.03125 -3.390625 C 9.476562 -3.503906 9.765625 -3.269531 9.890625 -2.6875 C 10.023438 -2.113281 9.789062 -1.75 9.1875 -1.59375 C 8.414062 -1.363281 7.488281 -1.195312 6.40625 -1.09375 C 5.332031 -1 4.050781 -1.066406 2.5625 -1.296875 C 2.269531 -1.335938 2.039062 -1.488281 1.875 -1.75 C 1.707031 -2.007812 1.644531 -2.265625 1.6875 -2.515625 L 2.671875 -8.015625 C 2.710938 -8.265625 2.828125 -8.484375 3.015625 -8.671875 C 3.203125 -8.859375 3.5 -8.914062 3.90625 -8.84375 L 7.390625 -8.21875 C 7.460938 -8.207031 7.503906 -8.21875 7.515625 -8.25 C 7.535156 -8.28125 7.550781 -8.316406 7.5625 -8.359375 L 7.9375 -10.484375 C 7.945312 -10.535156 7.945312 -10.578125 7.9375 -10.609375 C 7.9375 -10.640625 7.898438 -10.660156 7.828125 -10.671875 L 3.90625 -11.375 C 3.5 -11.445312 3.34375 -11.765625 3.4375 -12.328125 C 3.539062 -12.898438 3.800781 -13.148438 4.21875 -13.078125 L 9.21875 -12.1875 C 9.625 -12.113281 9.882812 -11.957031 10 -11.71875 C 10.113281 -11.488281 10.144531 -11.25 10.09375 -11 Z M 14.765625 2.234375 C 14.671875 2.773438 14.289062 2.988281 13.625 2.875 C 12.957031 2.757812 12.671875 2.429688 12.765625 1.890625 L 15.015625 -10.703125 C 15.109375 -11.234375 15.488281 -11.441406 16.15625 -11.328125 C 16.820312 -11.210938 17.109375 -10.890625 17.015625 -10.359375 Z M 14.765625 2.234375 "/></g></g></g></g><g fill="#000000" fill-opacity="1"><g transform="translate(64.814248, 16.834362)"><g><path d="M 12.421875 5.875 C 12.171875 6.351562 11.742188 6.441406 11.140625 6.140625 C 10.535156 5.835938 10.359375 5.445312 10.609375 4.96875 L 16.390625 -6.453125 C 16.640625 -6.929688 17.066406 -7.019531 17.671875 -6.71875 C 18.273438 -6.414062 18.453125 -6.023438 18.203125 -5.546875 Z M 11.890625 -2.671875 C 11.148438 -1.210938 10.171875 -0.128906 8.953125 0.578125 C 7.734375 1.285156 6.539062 1.34375 5.375 0.75 C 4.207031 0.164062 3.539062 -0.820312 3.375 -2.21875 C 3.207031 -3.625 3.5 -5.066406 4.25 -6.546875 C 5 -8.035156 5.988281 -9.128906 7.21875 -9.828125 C 8.445312 -10.523438 9.644531 -10.582031 10.8125 -10 C 11.988281 -9.394531 12.648438 -8.390625 12.796875 -6.984375 C 12.941406 -5.585938 12.640625 -4.148438 11.890625 -2.671875 Z M 10.109375 -3.578125 C 10.660156 -4.671875 10.953125 -5.671875 10.984375 -6.578125 C 11.015625 -7.492188 10.703125 -8.117188 10.046875 -8.453125 C 9.410156 -8.765625 8.722656 -8.644531 7.984375 -8.09375 C 7.242188 -7.550781 6.597656 -6.734375 6.046875 -5.640625 C 5.492188 -4.566406 5.210938 -3.566406 5.203125 -2.640625 C 5.191406 -1.710938 5.503906 -1.09375 6.140625 -0.78125 C 6.796875 -0.445312 7.484375 -0.5625 8.203125 -1.125 C 8.921875 -1.6875 9.554688 -2.503906 10.109375 -3.578125 Z M 10.109375 -3.578125 "/></g></g></g><g fill="#000000" fill-opacity="1"><g transform="translate(77.800336, 23.419859)"><g><path d="M 14.390625 2.71875 C 14.367188 3.28125 14.035156 3.535156 13.390625 3.484375 C 12.742188 3.429688 12.429688 3.128906 12.453125 2.578125 L 12.765625 -4.203125 L 6.046875 -3.1875 C 5.503906 -3.113281 5.171875 -3.394531 5.046875 -4.03125 C 4.921875 -4.664062 5.140625 -5.023438 5.703125 -5.109375 L 13.28125 -6.25 C 13.695312 -6.3125 13.992188 -6.148438 14.171875 -5.765625 C 14.554688 -5.640625 14.75 -5.363281 14.75 -4.9375 Z M 1.46875 -0.265625 C 1.15625 -0.554688 1.1875 -0.914062 1.5625 -1.34375 C 1.9375 -1.769531 2.285156 -1.835938 2.609375 -1.546875 L 11.203125 6.1875 C 11.535156 6.488281 11.503906 6.847656 11.109375 7.265625 C 10.722656 7.679688 10.375 7.75 10.0625 7.46875 Z M 1.46875 -0.265625 "/></g></g></g></g></g></g><g mask="url(#1f1e800e44)"><g transform="matrix(1, 0, 0, 1, 147, 151)"><g clip-path="url(#99501e919a)"><g fill="#000000" fill-opacity="1"><g transform="translate(1.031098, 8.390905)"><g><path d="M 6.390625 1.046875 L 7.671875 1.046875 C 7.878906 1.046875 8.023438 1.007812 8.109375 0.9375 C 8.191406 0.851562 8.234375 0.710938 8.234375 0.515625 L 8.234375 -6.796875 L 6.390625 -6.796875 Z M 3.515625 -2.890625 C 3.515625 -2.617188 3.507812 -2.367188 3.5 -2.140625 C 3.488281 -1.921875 3.476562 -1.726562 3.46875 -1.5625 C 3.425781 -1.226562 3.378906 -0.972656 3.328125 -0.796875 C 3.265625 -0.597656 3.191406 -0.476562 3.109375 -0.4375 C 3.023438 -0.375 2.921875 -0.34375 2.796875 -0.34375 C 2.671875 -0.34375 2.570312 -0.375 2.5 -0.4375 C 2.40625 -0.488281 2.332031 -0.601562 2.28125 -0.78125 C 2.21875 -0.957031 2.171875 -1.210938 2.140625 -1.546875 C 2.128906 -1.722656 2.117188 -1.921875 2.109375 -2.140625 C 2.109375 -2.367188 2.109375 -2.617188 2.109375 -2.890625 C 2.109375 -3.171875 2.109375 -3.421875 2.109375 -3.640625 C 2.117188 -3.867188 2.128906 -4.066406 2.140625 -4.234375 C 2.171875 -4.566406 2.21875 -4.820312 2.28125 -5 C 2.332031 -5.175781 2.40625 -5.296875 2.5 -5.359375 C 2.582031 -5.410156 2.679688 -5.4375 2.796875 -5.4375 C 2.898438 -5.4375 3.003906 -5.410156 3.109375 -5.359375 C 3.203125 -5.296875 3.273438 -5.175781 3.328125 -5 C 3.378906 -4.8125 3.425781 -4.550781 3.46875 -4.21875 C 3.476562 -4.050781 3.488281 -3.859375 3.5 -3.640625 C 3.507812 -3.421875 3.515625 -3.171875 3.515625 -2.890625 Z M 5.34375 -2.890625 C 5.34375 -3.210938 5.332031 -3.515625 5.3125 -3.796875 C 5.289062 -4.085938 5.265625 -4.359375 5.234375 -4.609375 C 5.148438 -5.097656 5.015625 -5.507812 4.828125 -5.84375 C 4.628906 -6.175781 4.367188 -6.425781 4.046875 -6.59375 C 3.878906 -6.675781 3.6875 -6.738281 3.46875 -6.78125 C 3.257812 -6.820312 3.03125 -6.84375 2.78125 -6.84375 C 2.507812 -6.84375 2.269531 -6.820312 2.0625 -6.78125 C 1.851562 -6.738281 1.664062 -6.675781 1.5 -6.59375 C 1.164062 -6.414062 0.910156 -6.164062 0.734375 -5.84375 C 0.648438 -5.675781 0.578125 -5.488281 0.515625 -5.28125 C 0.453125 -5.070312 0.40625 -4.84375 0.375 -4.59375 C 0.34375 -4.351562 0.316406 -4.085938 0.296875 -3.796875 C 0.285156 -3.515625 0.28125 -3.210938 0.28125 -2.890625 C 0.28125 -2.566406 0.285156 -2.257812 0.296875 -1.96875 C 0.316406 -1.6875 0.34375 -1.425781 0.375 -1.1875 C 0.40625 -0.9375 0.453125 -0.707031 0.515625 -0.5 C 0.578125 -0.289062 0.648438 -0.101562 0.734375 0.0625 C 0.921875 0.394531 1.175781 0.644531 1.5 0.8125 C 1.664062 0.882812 1.851562 0.941406 2.0625 0.984375 C 2.269531 1.035156 2.507812 1.0625 2.78125 1.0625 C 3.03125 1.0625 3.257812 1.035156 3.46875 0.984375 C 3.6875 0.941406 3.878906 0.882812 4.046875 0.8125 C 4.367188 0.644531 4.628906 0.394531 4.828125 0.0625 C 5.015625 -0.269531 5.148438 -0.6875 5.234375 -1.1875 C 5.265625 -1.425781 5.289062 -1.6875 5.3125 -1.96875 C 5.332031 -2.257812 5.34375 -2.566406 5.34375 -2.890625 Z M 5.34375 -2.890625 "/></g></g></g><g fill="#000000" fill-opacity="1"><g transform="translate(10.019417, 8.390905)"><g><path d="M 5.4375 -6.796875 L 0.375 -6.796875 L 0.375 0.03125 C 0.375 0.394531 0.460938 0.65625 0.640625 0.8125 C 0.804688 0.96875 1.0625 1.046875 1.40625 1.046875 C 1.769531 1.046875 2.132812 1.019531 2.5 0.96875 C 2.84375 0.914062 3.210938 0.828125 3.609375 0.703125 L 3.609375 1.046875 L 4.890625 1.046875 C 5.085938 1.046875 5.234375 1.007812 5.328125 0.9375 C 5.398438 0.851562 5.4375 0.710938 5.4375 0.515625 Z M 6.390625 1.046875 L 7.671875 1.046875 C 7.878906 1.046875 8.023438 1.007812 8.109375 0.9375 C 8.191406 0.851562 8.234375 0.710938 8.234375 0.515625 L 8.234375 -6.796875 L 6.390625 -6.796875 Z M 2.5625 -0.390625 C 2.4375 -0.390625 2.347656 -0.414062 2.296875 -0.46875 C 2.234375 -0.519531 2.203125 -0.613281 2.203125 -0.75 L 2.203125 -5.40625 L 3.609375 -5.40625 L 3.609375 -0.578125 C 3.515625 -0.546875 3.421875 -0.515625 3.328125 -0.484375 C 3.234375 -0.460938 3.140625 -0.445312 3.046875 -0.4375 C 2.859375 -0.40625 2.695312 -0.390625 2.5625 -0.390625 Z M 2.5625 -0.390625 "/></g></g></g><g fill="#000000" fill-opacity="1"><g transform="translate(19.007736, 8.390905)"><g><path d="M 0.21875 -6.796875 L 0.21875 -5.3125 L 1.9375 -5.3125 L 1.9375 -2.90625 C 1.9375 -2.707031 1.925781 -2.523438 1.90625 -2.359375 C 1.882812 -2.191406 1.851562 -2.035156 1.8125 -1.890625 C 1.71875 -1.585938 1.601562 -1.34375 1.46875 -1.15625 C 1.3125 -0.945312 1.117188 -0.78125 0.890625 -0.65625 C 0.648438 -0.519531 0.394531 -0.421875 0.125 -0.359375 L 0.125 1.046875 C 0.738281 0.984375 1.269531 0.835938 1.71875 0.609375 C 2.164062 0.359375 2.539062 0.03125 2.84375 -0.375 C 3.125 0.0195312 3.5 0.347656 3.96875 0.609375 C 4.425781 0.847656 4.957031 0.992188 5.5625 1.046875 L 5.5625 -0.359375 C 5.269531 -0.421875 5.019531 -0.519531 4.8125 -0.65625 C 4.570312 -0.78125 4.378906 -0.945312 4.234375 -1.15625 C 4.078125 -1.351562 3.960938 -1.597656 3.890625 -1.890625 C 3.847656 -2.035156 3.816406 -2.191406 3.796875 -2.359375 C 3.773438 -2.523438 3.765625 -2.707031 3.765625 -2.90625 L 3.765625 -5.3125 L 4.9375 -5.3125 C 5.144531 -5.3125 5.289062 -5.347656 5.375 -5.421875 C 5.457031 -5.503906 5.5 -5.644531 5.5 -5.84375 L 5.5 -6.796875 Z M 6.390625 1.046875 L 7.671875 1.046875 C 7.878906 1.046875 8.023438 1.007812 8.109375 0.9375 C 8.191406 0.851562 8.234375 0.710938 8.234375 0.515625 L 8.234375 -6.796875 L 6.390625 -6.796875 Z M 6.390625 1.046875 "/></g></g></g><g fill="#000000" fill-opacity="1"><g transform="translate(27.996055, 8.390905)"><g/></g></g><g fill="#000000" fill-opacity="1"><g transform="translate(30.512789, 8.390905)"><g><path d="M 0.78125 -6.796875 L 0.78125 -5.4375 L 2.953125 -5.4375 C 2.835938 -5.34375 2.703125 -5.25 2.546875 -5.15625 C 2.398438 -5.0625 2.238281 -4.972656 2.0625 -4.890625 C 1.875 -4.804688 1.664062 -4.734375 1.4375 -4.671875 C 1.21875 -4.609375 0.972656 -4.550781 0.703125 -4.5 L 0.703125 -3.09375 C 1.128906 -3.125 1.539062 -3.195312 1.9375 -3.3125 C 2.125 -3.351562 2.304688 -3.40625 2.484375 -3.46875 C 2.660156 -3.539062 2.832031 -3.613281 3 -3.6875 C 3.320312 -3.832031 3.613281 -4.003906 3.875 -4.203125 C 4.132812 -4.390625 4.335938 -4.59375 4.484375 -4.8125 C 4.648438 -4.59375 4.863281 -4.390625 5.125 -4.203125 C 5.363281 -4.003906 5.65625 -3.832031 6 -3.6875 C 6.320312 -3.53125 6.679688 -3.40625 7.078125 -3.3125 C 7.453125 -3.195312 7.859375 -3.125 8.296875 -3.09375 L 8.296875 -4.5 C 8.015625 -4.550781 7.757812 -4.609375 7.53125 -4.671875 C 7.3125 -4.734375 7.113281 -4.804688 6.9375 -4.890625 C 6.75 -4.972656 6.582031 -5.0625 6.4375 -5.15625 C 6.289062 -5.25 6.160156 -5.34375 6.046875 -5.4375 L 7.640625 -5.4375 C 7.847656 -5.4375 7.992188 -5.476562 8.078125 -5.5625 C 8.148438 -5.632812 8.1875 -5.769531 8.1875 -5.96875 L 8.1875 -6.796875 Z M 0.34375 -2.796875 L 0.34375 -1.484375 L 3.671875 -1.484375 L 3.671875 -0.421875 L 4.9375 -0.421875 C 5.144531 -0.421875 5.289062 -0.457031 5.375 -0.53125 C 5.457031 -0.613281 5.5 -0.753906 5.5 -0.953125 L 5.5 -1.484375 L 8.0625 -1.484375 C 8.269531 -1.484375 8.421875 -1.519531 8.515625 -1.59375 C 8.585938 -1.675781 8.625 -1.816406 8.625 -2.015625 L 8.625 -2.796875 Z M 1.96875 1.40625 L 7.578125 1.40625 C 7.773438 1.40625 7.921875 1.367188 8.015625 1.296875 C 8.085938 1.203125 8.125 1.0625 8.125 0.875 L 8.125 0 L 3.03125 0 C 2.90625 0 2.816406 -0.0195312 2.765625 -0.0625 C 2.703125 -0.09375 2.671875 -0.1875 2.671875 -0.34375 L 2.671875 -1.15625 L 0.84375 -1.15625 L 0.84375 0.34375 C 0.84375 0.71875 0.925781 0.988281 1.09375 1.15625 C 1.257812 1.320312 1.550781 1.40625 1.96875 1.40625 Z M 1.96875 1.40625 "/></g></g></g><g fill="#000000" fill-opacity="1"><g transform="translate(39.501107, 8.390905)"><g><path d="M 5.4375 -6.796875 L 3.609375 -6.796875 L 3.609375 -4.046875 L 2.203125 -4.046875 L 2.203125 -6.796875 L 0.375 -6.796875 L 0.375 0.03125 C 0.375 0.394531 0.460938 0.65625 0.640625 0.8125 C 0.804688 0.96875 1.0625 1.046875 1.40625 1.046875 C 1.769531 1.046875 2.132812 1.019531 2.5 0.96875 C 2.84375 0.914062 3.210938 0.828125 3.609375 0.703125 L 3.609375 1.046875 L 4.890625 1.046875 C 5.085938 1.046875 5.234375 1.007812 5.328125 0.9375 C 5.398438 0.851562 5.4375 0.710938 5.4375 0.515625 Z M 6.390625 1.046875 L 7.671875 1.046875 C 7.878906 1.046875 8.023438 1.007812 8.109375 0.9375 C 8.191406 0.851562 8.234375 0.710938 8.234375 0.515625 L 8.234375 -6.796875 L 6.390625 -6.796875 Z M 2.5625 -0.390625 C 2.4375 -0.390625 2.347656 -0.414062 2.296875 -0.46875 C 2.234375 -0.519531 2.203125 -0.613281 2.203125 -0.75 L 2.203125 -2.640625 L 3.609375 -2.640625 L 3.609375 -0.578125 C 3.515625 -0.546875 3.421875 -0.515625 3.328125 -0.484375 C 3.234375 -0.460938 3.140625 -0.445312 3.046875 -0.4375 C 2.859375 -0.40625 2.695312 -0.390625 2.5625 -0.390625 Z M 2.5625 -0.390625 "/></g></g></g><g fill="#000000" fill-opacity="1"><g transform="translate(48.489426, 8.390905)"><g/></g></g><g fill="#000000" fill-opacity="1"><g transform="translate(51.00616, 8.390905)"><g><path d="M 0.34375 -3.34375 L 0.34375 -2.015625 L 3.5625 -2.015625 L 3.5625 -1.703125 L 2.765625 -1.703125 C 2.628906 -1.703125 2.5 -1.691406 2.375 -1.671875 C 2.25 -1.660156 2.128906 -1.648438 2.015625 -1.640625 C 1.765625 -1.578125 1.546875 -1.492188 1.359375 -1.390625 C 1.179688 -1.273438 1.035156 -1.113281 0.921875 -0.90625 C 0.804688 -0.707031 0.75 -0.453125 0.75 -0.140625 C 0.75 0.191406 0.804688 0.460938 0.921875 0.671875 C 1.035156 0.867188 1.1875 1.019531 1.375 1.125 C 1.550781 1.238281 1.765625 1.3125 2.015625 1.34375 C 2.265625 1.382812 2.519531 1.40625 2.78125 1.40625 L 6.203125 1.40625 C 6.453125 1.40625 6.703125 1.382812 6.953125 1.34375 C 7.179688 1.3125 7.394531 1.238281 7.59375 1.125 C 7.78125 1.019531 7.929688 0.867188 8.046875 0.671875 C 8.160156 0.453125 8.21875 0.1875 8.21875 -0.125 C 8.21875 -0.4375 8.164062 -0.691406 8.0625 -0.890625 C 7.945312 -1.085938 7.796875 -1.253906 7.609375 -1.390625 C 7.421875 -1.492188 7.207031 -1.578125 6.96875 -1.640625 C 6.84375 -1.648438 6.710938 -1.660156 6.578125 -1.671875 C 6.453125 -1.691406 6.320312 -1.703125 6.1875 -1.703125 L 5.40625 -1.703125 L 5.40625 -2.015625 L 8.0625 -2.015625 C 8.269531 -2.015625 8.421875 -2.054688 8.515625 -2.140625 C 8.585938 -2.210938 8.625 -2.347656 8.625 -2.546875 L 8.625 -3.34375 Z M 0.78125 -6.796875 L 0.78125 -5.578125 L 2.953125 -5.578125 C 2.734375 -5.421875 2.441406 -5.289062 2.078125 -5.1875 C 1.710938 -5.082031 1.25 -5.03125 0.6875 -5.03125 L 0.6875 -3.703125 C 0.90625 -3.703125 1.113281 -3.707031 1.3125 -3.71875 C 1.519531 -3.738281 1.722656 -3.765625 1.921875 -3.796875 C 2.304688 -3.847656 2.660156 -3.929688 2.984375 -4.046875 C 3.148438 -4.097656 3.304688 -4.15625 3.453125 -4.21875 C 3.597656 -4.289062 3.734375 -4.363281 3.859375 -4.4375 C 4.109375 -4.59375 4.316406 -4.773438 4.484375 -4.984375 C 4.640625 -4.765625 4.847656 -4.582031 5.109375 -4.4375 C 5.234375 -4.363281 5.367188 -4.289062 5.515625 -4.21875 C 5.660156 -4.15625 5.816406 -4.097656 5.984375 -4.046875 C 6.316406 -3.929688 6.671875 -3.847656 7.046875 -3.796875 C 7.242188 -3.765625 7.441406 -3.738281 7.640625 -3.71875 C 7.847656 -3.707031 8.0625 -3.703125 8.28125 -3.703125 L 8.28125 -5.03125 C 7.71875 -5.03125 7.253906 -5.082031 6.890625 -5.1875 C 6.515625 -5.289062 6.222656 -5.421875 6.015625 -5.578125 L 7.640625 -5.578125 C 7.847656 -5.578125 7.992188 -5.617188 8.078125 -5.703125 C 8.148438 -5.773438 8.1875 -5.910156 8.1875 -6.109375 L 8.1875 -6.796875 Z M 6.015625 0.109375 L 2.984375 0.109375 C 2.859375 0.109375 2.769531 0.09375 2.71875 0.0625 C 2.65625 0.0195312 2.625 -0.0507812 2.625 -0.15625 C 2.625 -0.257812 2.660156 -0.332031 2.734375 -0.375 C 2.796875 -0.40625 2.878906 -0.421875 2.984375 -0.421875 L 6.015625 -0.421875 C 6.109375 -0.421875 6.191406 -0.40625 6.265625 -0.375 C 6.328125 -0.320312 6.359375 -0.25 6.359375 -0.15625 C 6.359375 0.0195312 6.242188 0.109375 6.015625 0.109375 Z M 6.015625 0.109375 "/></g></g></g><g fill="#000000" fill-opacity="1"><g transform="translate(59.994479, 8.390905)"><g><path d="M 6.390625 1.125 L 6.390625 1.40625 L 7.671875 1.40625 C 7.878906 1.40625 8.023438 1.367188 8.109375 1.296875 C 8.191406 1.203125 8.234375 1.0625 8.234375 0.875 L 8.234375 -2.203125 L 6.390625 -2.203125 L 6.390625 -1.75 L 2.390625 -1.75 L 2.390625 -2.203125 L 0.5625 -2.203125 L 0.5625 0.34375 C 0.5625 0.71875 0.644531 0.988281 0.8125 1.15625 C 0.96875 1.320312 1.257812 1.40625 1.6875 1.40625 C 1.875 1.40625 2.0625 1.398438 2.25 1.390625 C 2.445312 1.390625 2.644531 1.390625 2.84375 1.390625 C 3.039062 1.378906 3.238281 1.367188 3.4375 1.359375 C 3.644531 1.359375 3.847656 1.351562 4.046875 1.34375 C 4.242188 1.332031 4.441406 1.316406 4.640625 1.296875 C 4.847656 1.285156 5.050781 1.269531 5.25 1.25 C 5.445312 1.238281 5.640625 1.222656 5.828125 1.203125 C 6.023438 1.179688 6.210938 1.15625 6.390625 1.125 Z M 5.25 -4.703125 C 5.25 -4.960938 5.207031 -5.226562 5.125 -5.5 C 5.03125 -5.757812 4.878906 -6 4.671875 -6.21875 C 4.453125 -6.425781 4.1875 -6.597656 3.875 -6.734375 C 3.707031 -6.796875 3.523438 -6.84375 3.328125 -6.875 C 3.128906 -6.90625 2.914062 -6.921875 2.6875 -6.921875 C 2.445312 -6.921875 2.222656 -6.90625 2.015625 -6.875 C 1.816406 -6.84375 1.640625 -6.796875 1.484375 -6.734375 C 1.148438 -6.578125 0.894531 -6.398438 0.71875 -6.203125 C 0.507812 -5.984375 0.375 -5.742188 0.3125 -5.484375 C 0.226562 -5.234375 0.1875 -4.972656 0.1875 -4.703125 C 0.1875 -4.429688 0.226562 -4.175781 0.3125 -3.9375 C 0.375 -3.6875 0.507812 -3.457031 0.71875 -3.25 C 0.90625 -3.03125 1.160156 -2.859375 1.484375 -2.734375 C 1.796875 -2.609375 2.195312 -2.546875 2.6875 -2.546875 C 3.15625 -2.546875 3.550781 -2.609375 3.875 -2.734375 C 4.195312 -2.859375 4.460938 -3.03125 4.671875 -3.25 C 4.878906 -3.445312 5.03125 -3.675781 5.125 -3.9375 C 5.207031 -4.1875 5.25 -4.441406 5.25 -4.703125 Z M 6.390625 -2.5 L 7.671875 -2.5 C 7.878906 -2.5 8.023438 -2.535156 8.109375 -2.609375 C 8.191406 -2.691406 8.234375 -2.832031 8.234375 -3.03125 L 8.234375 -6.796875 L 6.390625 -6.796875 Z M 3.421875 -4.703125 C 3.421875 -4.546875 3.40625 -4.421875 3.375 -4.328125 C 3.34375 -4.273438 3.316406 -4.226562 3.296875 -4.1875 C 3.273438 -4.15625 3.25 -4.125 3.21875 -4.09375 C 3.132812 -4.03125 3.054688 -3.988281 2.984375 -3.96875 C 2.941406 -3.957031 2.894531 -3.945312 2.84375 -3.9375 C 2.800781 -3.9375 2.753906 -3.9375 2.703125 -3.9375 C 2.597656 -3.9375 2.507812 -3.945312 2.4375 -3.96875 C 2.34375 -3.988281 2.273438 -4.03125 2.234375 -4.09375 C 2.171875 -4.132812 2.117188 -4.210938 2.078125 -4.328125 C 2.035156 -4.410156 2.015625 -4.535156 2.015625 -4.703125 C 2.015625 -4.867188 2.035156 -5.003906 2.078125 -5.109375 C 2.109375 -5.222656 2.160156 -5.3125 2.234375 -5.375 C 2.285156 -5.4375 2.351562 -5.476562 2.4375 -5.5 C 2.476562 -5.507812 2.519531 -5.515625 2.5625 -5.515625 C 2.613281 -5.523438 2.660156 -5.53125 2.703125 -5.53125 C 2.890625 -5.53125 3.0625 -5.472656 3.21875 -5.359375 C 3.351562 -5.234375 3.421875 -5.015625 3.421875 -4.703125 Z M 2.640625 0.078125 C 2.535156 0.078125 2.46875 0.0625 2.4375 0.03125 C 2.40625 0 2.390625 -0.0625 2.390625 -0.15625 L 2.390625 -0.4375 L 6.390625 -0.4375 L 6.390625 -0.125 C 6.097656 -0.0703125 5.78125 -0.0351562 5.4375 -0.015625 C 5.257812 -0.00390625 5.082031 0.00390625 4.90625 0.015625 C 4.726562 0.0234375 4.554688 0.0351562 4.390625 0.046875 C 4.210938 0.0546875 4.039062 0.0625 3.875 0.0625 C 3.71875 0.0703125 3.5625 0.078125 3.40625 0.078125 Z M 2.640625 0.078125 "/></g></g></g><g fill="#000000" fill-opacity="1"><g transform="translate(68.982797, 8.390905)"><g><path d="M 2.203125 -6.796875 L 0.375 -6.796875 L 0.375 0.03125 C 0.375 0.394531 0.460938 0.65625 0.640625 0.8125 C 0.804688 0.96875 1.0625 1.046875 1.40625 1.046875 C 1.882812 1.046875 2.347656 1.023438 2.796875 0.984375 C 3.242188 0.953125 3.675781 0.894531 4.09375 0.8125 C 4.5 0.726562 4.890625 0.632812 5.265625 0.53125 C 5.648438 0.425781 6.023438 0.3125 6.390625 0.1875 L 6.390625 1.046875 L 7.671875 1.046875 C 7.878906 1.046875 8.023438 1.007812 8.109375 0.9375 C 8.191406 0.851562 8.234375 0.710938 8.234375 0.515625 L 8.234375 -6.796875 L 6.390625 -6.796875 L 6.390625 -1.21875 C 6.128906 -1.101562 5.820312 -1.003906 5.46875 -0.921875 C 5.101562 -0.804688 4.75 -0.710938 4.40625 -0.640625 C 4.21875 -0.597656 4.039062 -0.5625 3.875 -0.53125 C 3.707031 -0.507812 3.546875 -0.484375 3.390625 -0.453125 C 3.222656 -0.429688 3.066406 -0.414062 2.921875 -0.40625 C 2.785156 -0.394531 2.664062 -0.390625 2.5625 -0.390625 C 2.4375 -0.390625 2.347656 -0.414062 2.296875 -0.46875 C 2.234375 -0.519531 2.203125 -0.613281 2.203125 -0.75 Z M 2.203125 -6.796875 "/></g></g></g><g fill="#000000" fill-opacity="1"><g transform="translate(77.971116, 8.390905)"><g><path d="M 2.203125 -0.75 L 2.203125 -5.40625 L 4.703125 -5.40625 C 4.910156 -5.40625 5.054688 -5.441406 5.140625 -5.515625 C 5.222656 -5.597656 5.265625 -5.734375 5.265625 -5.921875 L 5.265625 -6.796875 L 0.375 -6.796875 L 0.375 0.03125 C 0.375 0.394531 0.460938 0.65625 0.640625 0.8125 C 0.804688 0.96875 1.0625 1.046875 1.40625 1.046875 C 1.757812 1.046875 2.117188 1.03125 2.484375 1 C 2.847656 0.976562 3.222656 0.941406 3.609375 0.890625 C 3.984375 0.835938 4.359375 0.765625 4.734375 0.671875 C 5.109375 0.585938 5.484375 0.488281 5.859375 0.375 L 5.859375 1.046875 L 7.140625 1.046875 C 7.335938 1.046875 7.484375 1.007812 7.578125 0.9375 C 7.648438 0.851562 7.6875 0.710938 7.6875 0.515625 L 7.6875 -2.46875 L 8.265625 -2.46875 C 8.472656 -2.46875 8.617188 -2.503906 8.703125 -2.578125 C 8.785156 -2.648438 8.828125 -2.785156 8.828125 -2.984375 L 8.828125 -3.859375 L 7.6875 -3.859375 L 7.6875 -6.796875 L 5.859375 -6.796875 L 5.859375 -1.03125 C 5.710938 -0.976562 5.5625 -0.925781 5.40625 -0.875 C 5.257812 -0.832031 5.109375 -0.796875 4.953125 -0.765625 C 4.785156 -0.722656 4.625 -0.6875 4.46875 -0.65625 C 4.3125 -0.625 4.15625 -0.59375 4 -0.5625 C 3.695312 -0.5 3.421875 -0.457031 3.171875 -0.4375 C 3.035156 -0.414062 2.914062 -0.398438 2.8125 -0.390625 C 2.71875 -0.390625 2.632812 -0.390625 2.5625 -0.390625 C 2.4375 -0.390625 2.347656 -0.414062 2.296875 -0.46875 C 2.234375 -0.519531 2.203125 -0.613281 2.203125 -0.75 Z M 2.203125 -0.75 "/></g></g></g></g></g></g></svg>