<svg width="50" height="50" viewBox="0 0 50 50" fill="none" xmlns="http://www.w3.org/2000/svg">
<circle cx="25" cy="25" r="24.5" fill="#F8F8F8" stroke="#ABABAB"/>
<g clip-path="url(#clip0_602_320)">
<path d="M29.6875 25.9375C29.6875 27.1807 29.1936 28.373 28.3146 29.2521C27.4355 30.1311 26.2432 30.625 25 30.625C23.7568 30.625 22.5645 30.1311 21.6854 29.2521C20.8064 28.373 20.3125 27.1807 20.3125 25.9375C20.3125 24.6943 20.8064 23.502 21.6854 22.6229C22.5645 21.7439 23.7568 21.25 25 21.25C26.2432 21.25 27.4355 21.7439 28.3146 22.6229C29.1936 23.502 29.6875 24.6943 29.6875 25.9375Z" fill="#404040"/>
<path d="M13.75 17.5C12.7554 17.5 11.8016 17.8951 11.0983 18.5983C10.3951 19.3016 10 20.2554 10 21.25V32.5C10 33.4946 10.3951 34.4484 11.0983 35.1516C11.8016 35.8549 12.7554 36.25 13.75 36.25H36.25C37.2446 36.25 38.1984 35.8549 38.9016 35.1516C39.6049 34.4484 40 33.4946 40 32.5V21.25C40 20.2554 39.6049 19.3016 38.9016 18.5983C38.1984 17.8951 37.2446 17.5 36.25 17.5H34.0525C33.058 17.4998 32.1043 17.1046 31.4012 16.4013L29.8488 14.8487C29.1457 14.1454 28.192 13.7502 27.1975 13.75H22.8025C21.808 13.7502 20.8543 14.1454 20.1512 14.8487L18.5988 16.4013C17.8957 17.1046 16.942 17.4998 15.9475 17.5H13.75ZM14.6875 21.25C14.4389 21.25 14.2004 21.1512 14.0246 20.9754C13.8488 20.7996 13.75 20.5611 13.75 20.3125C13.75 20.0639 13.8488 19.8254 14.0246 19.6496C14.2004 19.4738 14.4389 19.375 14.6875 19.375C14.9361 19.375 15.1746 19.4738 15.3504 19.6496C15.5262 19.8254 15.625 20.0639 15.625 20.3125C15.625 20.5611 15.5262 20.7996 15.3504 20.9754C15.1746 21.1512 14.9361 21.25 14.6875 21.25ZM31.5625 25.9375C31.5625 27.678 30.8711 29.3472 29.6404 30.5779C28.4097 31.8086 26.7405 32.5 25 32.5C23.2595 32.5 21.5903 31.8086 20.3596 30.5779C19.1289 29.3472 18.4375 27.678 18.4375 25.9375C18.4375 24.197 19.1289 22.5278 20.3596 21.2971C21.5903 20.0664 23.2595 19.375 25 19.375C26.7405 19.375 28.4097 20.0664 29.6404 21.2971C30.8711 22.5278 31.5625 24.197 31.5625 25.9375Z" fill="#404040"/>
</g>
<defs>
<clipPath id="clip0_602_320">
<rect width="30" height="30" fill="white" transform="translate(10 10)"/>
</clipPath>
</defs>
</svg>
