<svg xmlns="http://www.w3.org/2000/svg" xmlns:xlink="http://www.w3.org/1999/xlink" width="300" zoomAndPan="magnify" viewBox="0 0 224.87999 225" height="300" preserveAspectRatio="xMidYMid meet" version="1.0"><defs><filter x="0%" y="0%" width="100%" height="100%" id="cfe7c1cb8b"><feColorMatrix values="0 0 0 0 1 0 0 0 0 1 0 0 0 0 1 0 0 0 1 0" color-interpolation-filters="sRGB"/></filter><g/><clipPath id="0fb1535241"><path d="M 0 0.0585938 L 224.761719 0.0585938 L 224.761719 224.9375 L 0 224.9375 Z M 0 0.0585938 " clip-rule="nonzero"/></clipPath><mask id="08240b36ca"><g filter="url(#cfe7c1cb8b)"><rect x="-22.487999" width="269.855988" fill="#000000" y="-22.5" height="270" fill-opacity="0.41"/></g></mask><clipPath id="c4c0833589"><path d="M 0.402344 0.242188 L 134.582031 0.242188 L 134.582031 133.671875 L 0.402344 133.671875 Z M 0.402344 0.242188 " clip-rule="nonzero"/></clipPath><clipPath id="272c037715"><rect x="0" width="135" y="0" height="135"/></clipPath><mask id="c606705e83"><g filter="url(#cfe7c1cb8b)"><rect x="-22.487999" width="269.855988" fill="#000000" y="-22.5" height="270" fill-opacity="0.41"/></g></mask><clipPath id="9b9f8495de"><path d="M 95 0.171875 L 126 0.171875 L 126 33 L 95 33 Z M 95 0.171875 " clip-rule="nonzero"/></clipPath><clipPath id="23775946c4"><path d="M 149 20 L 184.609375 20 L 184.609375 55 L 149 55 Z M 149 20 " clip-rule="nonzero"/></clipPath><clipPath id="14da4e0ae3"><rect x="0" width="185" y="0" height="62"/></clipPath><mask id="e3fb274e6d"><g filter="url(#cfe7c1cb8b)"><rect x="-22.487999" width="269.855988" fill="#000000" y="-22.5" height="270" fill-opacity="0.41"/></g></mask><clipPath id="7bf4757dc9"><rect x="0" width="75" y="0" height="18"/></clipPath></defs><g clip-path="url(#0fb1535241)"><path fill="#ffffff" d="M 0 0.0585938 L 224.878906 0.0585938 L 224.878906 224.941406 L 0 224.941406 Z M 0 0.0585938 " fill-opacity="1" fill-rule="nonzero"/><path fill="#ffffff" d="M 0 0.0585938 L 224.878906 0.0585938 L 224.878906 224.941406 L 0 224.941406 Z M 0 0.0585938 " fill-opacity="1" fill-rule="nonzero"/></g><g mask="url(#08240b36ca)"><g transform="matrix(1, 0, 0, 1, 45, 54)"><g clip-path="url(#272c037715)"><path fill="#ffffff" d="M 120.875 73.453125 C 113.480469 73.453125 107.492188 69.703125 107.492188 62.332031 C 107.492188 69.703125 101.5 73.453125 94.105469 73.453125 C 86.714844 73.453125 80.722656 69.003906 80.722656 62.332031 C 80.722656 69.703125 74.730469 73.453125 67.339844 73.453125 C 59.945312 73.453125 53.953125 69.003906 53.953125 62.332031 C 53.953125 69.703125 47.964844 73.453125 40.570312 73.453125 C 33.179688 73.453125 27.1875 69.003906 27.1875 62.332031 C 27.1875 69.703125 21.195312 73.453125 13.804688 73.453125 C 11.410156 73.453125 9.179688 72.851562 7.113281 71.644531 L 7.113281 131.273438 L 127.566406 131.273438 L 127.566406 71.648438 C 125.5 72.851562 123.269531 73.453125 120.875 73.453125 Z M 120.875 73.453125 " fill-opacity="1" fill-rule="nonzero"/><path fill="#ededed" d="M 107.492188 62.332031 C 107.492188 69.703125 101.5 73.453125 94.105469 73.453125 C 86.714844 73.453125 80.722656 69.003906 80.722656 62.332031 C 80.722656 69.703125 74.730469 73.453125 67.339844 73.453125 C 59.945312 73.453125 53.953125 69.003906 53.953125 62.332031 C 53.953125 69.703125 47.964844 73.453125 40.570312 73.453125 C 33.179688 73.453125 27.1875 69.003906 27.1875 62.332031 C 27.1875 69.703125 21.195312 73.453125 13.804688 73.453125 C 11.410156 73.453125 9.179688 72.851562 7.113281 71.644531 L 7.113281 78.320312 C 9.179688 79.523438 11.410156 80.125 13.804688 80.121094 C 18.835938 80.121094 23.21875 78.382812 25.507812 74.949219 C 26.339844 73.695312 28.207031 73.734375 29.089844 74.957031 C 31.429688 78.1875 35.695312 80.121094 40.570312 80.121094 C 45.605469 80.121094 49.988281 78.382812 52.273438 74.949219 C 53.109375 73.695312 54.972656 73.734375 55.855469 74.957031 C 58.195312 78.1875 62.464844 80.121094 67.339844 80.121094 C 72.371094 80.121094 76.753906 78.382812 79.042969 74.949219 C 79.875 73.695312 81.742188 73.734375 82.625 74.957031 C 84.964844 78.1875 89.230469 80.121094 94.105469 80.121094 C 99.0625 80.121094 103.386719 78.4375 105.699219 75.105469 C 105.800781 74.964844 105.917969 74.835938 106.050781 74.71875 C 106.183594 74.605469 106.328125 74.507812 106.480469 74.425781 C 106.636719 74.34375 106.800781 74.285156 106.972656 74.242188 C 107.140625 74.199219 107.316406 74.179688 107.492188 74.179688 C 107.664062 74.179688 107.839844 74.199219 108.007812 74.242188 C 108.179688 74.285156 108.34375 74.34375 108.5 74.425781 C 108.652344 74.507812 108.796875 74.605469 108.929688 74.71875 C 109.0625 74.835938 109.179688 74.964844 109.28125 75.105469 C 111.59375 78.4375 115.917969 80.121094 120.875 80.121094 C 123.265625 80.125 125.5 79.523438 127.566406 78.320312 L 127.566406 71.648438 C 125.5 72.851562 123.269531 73.453125 120.875 73.453125 C 113.480469 73.453125 107.492188 69.703125 107.492188 62.332031 Z M 107.492188 62.332031 " fill-opacity="1" fill-rule="nonzero"/><path fill="#a88251" d="M 38.339844 33.425781 L 22.726562 33.425781 L 2.648438 67.480469 C 3.257812 68.398438 3.972656 69.230469 4.789062 69.972656 C 5.605469 70.714844 6.5 71.34375 7.472656 71.867188 C 8.445312 72.386719 9.46875 72.78125 10.539062 73.050781 C 11.609375 73.320312 12.699219 73.453125 13.804688 73.453125 C 21.195312 73.453125 27.1875 69.703125 27.1875 62.332031 C 27.1875 69.003906 33.179688 73.453125 40.570312 73.453125 C 47.964844 73.453125 53.953125 69.703125 53.953125 62.332031 C 53.953125 69.003906 59.945312 73.453125 67.339844 73.453125 C 74.730469 73.453125 80.722656 69.703125 80.722656 62.332031 C 80.722656 69.003906 86.714844 73.453125 94.105469 73.453125 C 101.5 73.453125 107.492188 69.703125 107.492188 62.332031 C 107.492188 69.703125 113.480469 73.453125 120.875 73.453125 C 121.980469 73.453125 123.066406 73.320312 124.136719 73.050781 C 125.210938 72.78125 126.230469 72.386719 127.207031 71.867188 C 128.179688 71.34375 129.074219 70.714844 129.890625 69.972656 C 130.707031 69.230469 131.417969 68.398438 132.027344 67.480469 L 111.953125 33.425781 L 96.335938 33.425781 " fill-opacity="1" fill-rule="nonzero"/><path fill="#d6b387" d="M 80.722656 62.332031 C 80.722656 69.003906 86.714844 73.453125 94.105469 73.453125 C 101.5 73.453125 107.492188 69.703125 107.492188 62.332031 L 98.566406 33.425781 L 80.722656 33.425781 Z M 80.722656 62.332031 " fill-opacity="1" fill-rule="nonzero"/><path fill="#d6b387" d="M 53.953125 62.332031 C 53.953125 69.703125 47.964844 73.453125 40.570312 73.453125 C 33.179688 73.453125 27.1875 69.003906 27.1875 62.332031 L 36.109375 33.425781 L 53.953125 33.425781 Z M 53.953125 62.332031 " fill-opacity="1" fill-rule="nonzero"/><path fill="#a88251" d="M 22.726562 24.527344 L 111.953125 24.527344 L 111.953125 33.425781 L 22.726562 33.425781 Z M 22.726562 24.527344 " fill-opacity="1" fill-rule="nonzero"/><path fill="#6bd9ff" d="M 18.265625 82.347656 L 53.953125 82.347656 L 53.953125 131.273438 L 18.265625 131.273438 Z M 18.265625 82.347656 " fill-opacity="1" fill-rule="nonzero"/><path fill="#ffffff" d="M 53.953125 100.136719 L 22.726562 131.273438 L 29.417969 131.273438 L 53.953125 106.808594 Z M 53.953125 100.136719 " fill-opacity="1" fill-rule="nonzero"/><path fill="#ffffff" d="M 53.953125 86.796875 L 18.265625 122.375 L 18.265625 129.046875 L 53.953125 93.46875 Z M 53.953125 86.796875 " fill-opacity="1" fill-rule="nonzero"/><path fill="#bd925b" d="M 29.417969 91.242188 L 47.261719 91.242188 L 47.261719 100.136719 L 29.417969 100.136719 Z M 29.417969 91.242188 " fill-opacity="1" fill-rule="nonzero"/><path fill="#ffffff" d="M 67.339844 2.289062 C 66.390625 2.289062 65.441406 2.335938 64.496094 2.429688 C 63.550781 2.523438 62.613281 2.660156 61.679688 2.847656 C 60.75 3.03125 59.828125 3.261719 58.921875 3.535156 C 58.011719 3.8125 57.117188 4.128906 56.242188 4.492188 C 55.363281 4.855469 54.507812 5.257812 53.667969 5.703125 C 52.832031 6.152344 52.019531 6.636719 51.226562 7.164062 C 50.4375 7.6875 49.675781 8.253906 48.941406 8.851562 C 48.207031 9.453125 47.503906 10.089844 46.832031 10.757812 C 46.164062 11.429688 45.523438 12.128906 44.921875 12.859375 C 44.320312 13.59375 43.753906 14.351562 43.226562 15.140625 C 42.699219 15.925781 42.210938 16.738281 41.765625 17.574219 C 41.316406 18.40625 40.910156 19.261719 40.546875 20.136719 C 40.183594 21.011719 39.863281 21.902344 39.589844 22.808594 C 39.3125 23.714844 39.082031 24.632812 38.898438 25.558594 C 38.710938 26.488281 38.574219 27.425781 38.480469 28.367188 C 38.386719 29.308594 38.339844 30.253906 38.339844 31.199219 C 38.339844 32.148438 38.386719 33.09375 38.480469 34.035156 C 38.574219 34.976562 38.710938 35.910156 38.898438 36.839844 C 39.082031 37.769531 39.3125 38.6875 39.589844 39.59375 C 39.863281 40.5 40.183594 41.390625 40.546875 42.261719 C 40.910156 43.136719 41.316406 43.992188 41.765625 44.828125 C 42.210938 45.664062 42.699219 46.472656 43.226562 47.261719 C 43.753906 48.050781 44.320312 48.808594 44.921875 49.539062 C 45.523438 50.273438 46.164062 50.972656 46.832031 51.644531 C 47.503906 52.3125 48.207031 52.945312 48.941406 53.546875 C 49.675781 54.148438 50.4375 54.710938 51.226562 55.238281 C 52.019531 55.765625 52.832031 56.25 53.667969 56.695312 C 54.507812 57.144531 55.363281 57.546875 56.242188 57.910156 C 57.117188 58.273438 58.011719 58.589844 58.921875 58.863281 C 59.828125 59.140625 60.75 59.371094 61.679688 59.554688 C 62.613281 59.738281 63.550781 59.878906 64.496094 59.972656 C 65.441406 60.0625 66.390625 60.109375 67.339844 60.109375 C 68.289062 60.109375 69.234375 60.0625 70.179688 59.972656 C 71.125 59.878906 72.066406 59.738281 72.996094 59.554688 C 73.925781 59.371094 74.847656 59.140625 75.757812 58.863281 C 76.664062 58.589844 77.558594 58.273438 78.4375 57.910156 C 79.3125 57.546875 80.171875 57.144531 81.007812 56.695312 C 81.847656 56.25 82.660156 55.765625 83.449219 55.238281 C 84.238281 54.710938 85 54.148438 85.734375 53.546875 C 86.46875 52.945312 87.171875 52.3125 87.84375 51.644531 C 88.515625 50.972656 89.152344 50.273438 89.753906 49.539062 C 90.355469 48.808594 90.921875 48.050781 91.449219 47.261719 C 91.976562 46.472656 92.464844 45.664062 92.914062 44.828125 C 93.359375 43.992188 93.765625 43.136719 94.128906 42.261719 C 94.492188 41.390625 94.8125 40.5 95.089844 39.59375 C 95.363281 38.6875 95.59375 37.769531 95.78125 36.839844 C 95.964844 35.910156 96.105469 34.976562 96.199219 34.035156 C 96.289062 33.09375 96.335938 32.148438 96.335938 31.199219 C 96.335938 30.253906 96.289062 29.308594 96.199219 28.367188 C 96.105469 27.425781 95.964844 26.488281 95.78125 25.558594 C 95.59375 24.632812 95.363281 23.714844 95.089844 22.808594 C 94.8125 21.902344 94.492188 21.011719 94.128906 20.136719 C 93.765625 19.261719 93.359375 18.40625 92.914062 17.574219 C 92.464844 16.738281 91.976562 15.925781 91.449219 15.140625 C 90.921875 14.351562 90.355469 13.59375 89.753906 12.859375 C 89.152344 12.128906 88.515625 11.429688 87.84375 10.757812 C 87.171875 10.089844 86.46875 9.453125 85.734375 8.851562 C 85 8.253906 84.238281 7.6875 83.449219 7.164062 C 82.660156 6.636719 81.847656 6.152344 81.007812 5.703125 C 80.171875 5.257812 79.3125 4.855469 78.4375 4.492188 C 77.558594 4.128906 76.664062 3.8125 75.757812 3.535156 C 74.847656 3.261719 73.925781 3.03125 72.996094 2.847656 C 72.066406 2.660156 71.125 2.523438 70.179688 2.429688 C 69.234375 2.335938 68.289062 2.289062 67.339844 2.289062 Z M 67.339844 2.289062 " fill-opacity="1" fill-rule="nonzero"/><path fill="#a88251" d="M 47.261719 26.753906 C 47.261719 36.039062 50.835938 44.210938 56.25 48.992188 L 71.734375 48.992188 C 73.867188 47.074219 75.605469 44.847656 76.949219 42.320312 C 78.792969 38.828125 79.949219 35.121094 80.410156 31.199219 C 80.609375 29.722656 80.714844 28.242188 80.722656 26.753906 Z M 47.261719 26.753906 " fill-opacity="1" fill-rule="nonzero"/><path fill="#d6b387" d="M 84.566406 92.824219 C 87.066406 91.882812 88.070312 88.429688 86.808594 85.109375 C 85.550781 81.789062 82.503906 79.859375 80.007812 80.800781 C 77.507812 81.738281 76.503906 85.195312 77.765625 88.515625 C 79.023438 91.839844 82.070312 93.765625 84.566406 92.824219 Z M 84.566406 92.824219 " fill-opacity="1" fill-rule="nonzero"/><path fill="#d6b387" d="M 75.496094 119.253906 C 75.496094 129.539062 82.421875 121.824219 90.96875 121.824219 C 99.515625 121.824219 106.445312 129.539062 106.445312 119.253906 C 106.445312 116.503906 105.402344 115.085938 103.632812 114.015625 C 102.871094 113.554688 102.183594 113 101.566406 112.359375 C 100.949219 111.714844 100.425781 111.003906 99.996094 110.226562 C 99.5625 109.449219 99.238281 108.628906 99.019531 107.765625 C 98.800781 106.90625 98.699219 106.03125 98.707031 105.140625 L 98.707031 105.113281 C 98.707031 101.5625 95.242188 98.683594 90.96875 98.683594 C 86.699219 98.683594 83.230469 101.5625 83.230469 105.113281 L 83.230469 105.140625 C 83.242188 106.03125 83.136719 106.90625 82.917969 107.769531 C 82.703125 108.628906 82.375 109.449219 81.945312 110.226562 C 81.511719 111.003906 80.988281 111.714844 80.371094 112.359375 C 79.757812 113 79.066406 113.554688 78.308594 114.015625 C 76.535156 115.085938 75.496094 116.503906 75.496094 119.253906 Z M 75.496094 119.253906 " fill-opacity="1" fill-rule="nonzero"/><path fill="#d6b387" d="M 67.105469 95.15625 C 64.933594 96.703125 64.851562 100.300781 66.921875 103.191406 C 68.992188 106.078125 72.433594 107.160156 74.605469 105.613281 C 76.777344 104.0625 76.859375 100.46875 74.789062 97.578125 C 72.71875 94.691406 69.277344 93.605469 67.105469 95.15625 Z M 67.105469 95.15625 " fill-opacity="1" fill-rule="nonzero"/><path fill="#d6b387" d="M 101.289062 80.835938 C 101.585938 80.945312 101.867188 81.09375 102.132812 81.277344 C 102.394531 81.460938 102.636719 81.679688 102.859375 81.929688 C 103.078125 82.183594 103.269531 82.464844 103.4375 82.777344 C 103.605469 83.085938 103.742188 83.421875 103.847656 83.777344 C 103.957031 84.136719 104.03125 84.507812 104.078125 84.898438 C 104.121094 85.289062 104.132812 85.6875 104.113281 86.097656 C 104.089844 86.503906 104.039062 86.914062 103.953125 87.324219 C 103.867188 87.730469 103.753906 88.136719 103.605469 88.53125 C 103.460938 88.925781 103.289062 89.308594 103.085938 89.675781 C 102.886719 90.042969 102.660156 90.390625 102.410156 90.714844 C 102.164062 91.039062 101.894531 91.335938 101.609375 91.605469 C 101.320312 91.871094 101.019531 92.109375 100.707031 92.3125 C 100.390625 92.515625 100.070312 92.679688 99.742188 92.808594 C 99.414062 92.941406 99.082031 93.03125 98.753906 93.082031 C 98.421875 93.132812 98.09375 93.140625 97.773438 93.113281 C 97.453125 93.082031 97.144531 93.011719 96.847656 92.902344 C 96.546875 92.792969 96.265625 92.648438 96.003906 92.464844 C 95.738281 92.28125 95.496094 92.0625 95.277344 91.808594 C 95.058594 91.554688 94.863281 91.273438 94.699219 90.964844 C 94.53125 90.652344 94.394531 90.320312 94.285156 89.960938 C 94.179688 89.605469 94.101562 89.230469 94.058594 88.839844 C 94.015625 88.449219 94.003906 88.050781 94.023438 87.644531 C 94.042969 87.238281 94.097656 86.828125 94.183594 86.417969 C 94.265625 86.007812 94.382812 85.605469 94.527344 85.207031 C 94.675781 84.8125 94.847656 84.429688 95.050781 84.0625 C 95.25 83.695312 95.476562 83.351562 95.722656 83.027344 C 95.972656 82.703125 96.242188 82.40625 96.527344 82.136719 C 96.816406 81.867188 97.113281 81.632812 97.429688 81.429688 C 97.742188 81.226562 98.0625 81.058594 98.394531 80.929688 C 98.722656 80.800781 99.050781 80.710938 99.382812 80.660156 C 99.714844 80.609375 100.039062 80.597656 100.359375 80.628906 C 100.683594 80.65625 100.992188 80.726562 101.289062 80.835938 Z M 101.289062 80.835938 " fill-opacity="1" fill-rule="nonzero"/><path fill="#d6b387" d="M 114.59375 103.097656 C 116.636719 100.1875 116.519531 96.59375 114.332031 95.066406 C 112.144531 93.539062 108.714844 94.65625 106.671875 97.5625 C 104.628906 100.472656 104.746094 104.066406 106.933594 105.59375 C 109.121094 107.125 112.550781 106.003906 114.59375 103.097656 Z M 114.59375 103.097656 " fill-opacity="1" fill-rule="nonzero"/><path fill="#a8793c" d="M 78.179688 26.753906 C 77.71875 30.671875 76.5625 34.378906 74.71875 37.871094 L 74.675781 37.949219 C 72.40625 42.101562 67.902344 44.542969 63.164062 44.542969 L 54.019531 44.542969 C 52.265625 42.953125 50.78125 41.140625 49.566406 39.109375 C 51.140625 43.101562 53.4375 46.507812 56.25 48.992188 L 71.734375 48.992188 C 73.867188 47.074219 75.605469 44.847656 76.949219 42.320312 C 78.792969 38.828125 79.949219 35.121094 80.410156 31.199219 C 80.609375 29.722656 80.714844 28.242188 80.722656 26.753906 Z M 78.179688 26.753906 " fill-opacity="1" fill-rule="nonzero"/><g clip-path="url(#c4c0833589)"><path fill="#000000" d="M 5.035156 73.050781 L 5.035156 131.445312 C 5.035156 131.738281 5.09375 132.023438 5.207031 132.296875 C 5.320312 132.570312 5.480469 132.808594 5.691406 133.015625 C 5.898438 133.226562 6.140625 133.386719 6.414062 133.5 C 6.6875 133.613281 6.972656 133.667969 7.265625 133.667969 L 127.722656 133.667969 C 128.015625 133.667969 128.300781 133.613281 128.574219 133.5 C 128.847656 133.386719 129.089844 133.226562 129.300781 133.015625 C 129.507812 132.808594 129.667969 132.570312 129.78125 132.296875 C 129.894531 132.023438 129.953125 131.738281 129.953125 131.445312 L 129.953125 73.050781 C 131.582031 71.921875 132.941406 70.53125 134.042969 68.882812 C 134.277344 68.527344 134.402344 68.136719 134.414062 67.714844 C 134.425781 67.289062 134.324219 66.890625 134.105469 66.523438 L 114.335938 32.992188 L 114.335938 24.703125 C 114.335938 24.40625 114.28125 24.121094 114.167969 23.851562 C 114.054688 23.578125 113.894531 23.335938 113.683594 23.128906 C 113.476562 22.921875 113.234375 22.757812 112.960938 22.648438 C 112.6875 22.535156 112.402344 22.476562 112.105469 22.476562 L 97.40625 22.476562 C 96.933594 20.882812 96.332031 19.335938 95.605469 17.835938 C 94.878906 16.335938 94.039062 14.902344 93.082031 13.539062 C 92.125 12.171875 91.066406 10.890625 89.902344 9.695312 C 88.742188 8.5 87.492188 7.40625 86.152344 6.410156 C 84.8125 5.414062 83.402344 4.53125 81.921875 3.761719 C 80.441406 2.992188 78.910156 2.347656 77.324219 1.824219 C 75.738281 1.296875 74.121094 0.902344 72.472656 0.636719 C 70.824219 0.371094 69.164062 0.238281 67.496094 0.238281 C 65.824219 0.238281 64.164062 0.371094 62.515625 0.636719 C 60.867188 0.902344 59.25 1.296875 57.664062 1.824219 C 56.082031 2.347656 54.546875 2.992188 53.066406 3.761719 C 51.585938 4.53125 50.175781 5.414062 48.835938 6.410156 C 47.496094 7.40625 46.246094 8.5 45.085938 9.695312 C 43.921875 10.890625 42.863281 12.171875 41.90625 13.539062 C 40.949219 14.902344 40.109375 16.335938 39.382812 17.835938 C 38.65625 19.335938 38.058594 20.882812 37.582031 22.476562 L 22.882812 22.476562 C 22.585938 22.476562 22.300781 22.535156 22.027344 22.648438 C 21.753906 22.757812 21.511719 22.921875 21.304688 23.128906 C 21.09375 23.335938 20.933594 23.578125 20.820312 23.851562 C 20.707031 24.121094 20.652344 24.40625 20.652344 24.703125 L 20.652344 32.992188 L 0.882812 66.527344 C 0.667969 66.890625 0.5625 67.289062 0.574219 67.714844 C 0.585938 68.136719 0.710938 68.527344 0.949219 68.882812 C 2.046875 70.53125 3.410156 71.921875 5.035156 73.050781 Z M 31.804688 93.640625 L 45.1875 93.640625 L 45.1875 98.085938 L 31.804688 98.085938 Z M 36.265625 89.191406 L 38.496094 86.226562 L 40.726562 89.191406 Z M 30.6875 89.191406 L 29.574219 89.191406 C 29.277344 89.191406 28.992188 89.25 28.71875 89.363281 C 28.445312 89.476562 28.207031 89.636719 27.996094 89.84375 C 27.785156 90.050781 27.625 90.292969 27.511719 90.566406 C 27.398438 90.835938 27.34375 91.121094 27.34375 91.417969 L 27.34375 100.3125 C 27.34375 100.605469 27.398438 100.890625 27.511719 101.164062 C 27.625 101.433594 27.785156 101.675781 27.996094 101.882812 C 28.207031 102.09375 28.445312 102.253906 28.71875 102.367188 C 28.992188 102.480469 29.277344 102.535156 29.574219 102.535156 L 47.417969 102.535156 C 47.714844 102.535156 48 102.480469 48.273438 102.367188 C 48.546875 102.253906 48.785156 102.09375 48.996094 101.882812 C 49.207031 101.675781 49.367188 101.433594 49.480469 101.164062 C 49.59375 100.890625 49.648438 100.605469 49.648438 100.3125 L 49.648438 91.417969 C 49.648438 91.121094 49.59375 90.835938 49.480469 90.566406 C 49.367188 90.292969 49.207031 90.050781 48.996094 89.84375 C 48.785156 89.636719 48.546875 89.476562 48.273438 89.363281 C 48 89.25 47.714844 89.191406 47.417969 89.191406 L 46.304688 89.191406 L 42.957031 84.746094 L 51.878906 84.746094 L 51.878906 129.222656 L 20.652344 129.222656 L 20.652344 84.746094 L 34.035156 84.746094 Z M 125.492188 129.222656 L 56.339844 129.222656 L 56.339844 82.519531 C 56.339844 82.226562 56.285156 81.941406 56.171875 81.671875 C 56.058594 81.398438 55.898438 81.15625 55.6875 80.949219 C 55.480469 80.738281 55.238281 80.578125 54.964844 80.464844 C 54.691406 80.355469 54.40625 80.296875 54.109375 80.296875 L 18.421875 80.296875 C 18.125 80.296875 17.839844 80.355469 17.566406 80.464844 C 17.292969 80.578125 17.050781 80.738281 16.84375 80.949219 C 16.632812 81.15625 16.472656 81.398438 16.359375 81.671875 C 16.246094 81.941406 16.191406 82.226562 16.191406 82.519531 L 16.191406 129.222656 L 9.496094 129.222656 L 9.496094 75.175781 C 10.953125 75.617188 12.4375 75.84375 13.960938 75.851562 C 20.066406 75.851562 24.863281 73.554688 27.453125 69.734375 C 30.160156 73.464844 34.988281 75.851562 40.726562 75.851562 C 46.835938 75.851562 51.632812 73.554688 54.222656 69.734375 C 56.929688 73.464844 61.757812 75.851562 67.496094 75.851562 C 73.601562 75.851562 78.398438 73.554688 80.988281 69.734375 C 83.695312 73.464844 88.523438 75.851562 94.261719 75.851562 C 100.285156 75.851562 105.03125 73.621094 107.644531 69.894531 C 110.257812 73.621094 115.007812 75.851562 121.03125 75.851562 C 122.550781 75.84375 124.035156 75.617188 125.492188 75.175781 Z M 51.878906 58.292969 L 51.878906 62.507812 C 51.878906 69.066406 46.117188 71.402344 40.726562 71.402344 C 34.371094 71.402344 29.75 67.773438 29.601562 62.75 L 37.105469 38.433594 C 37.59375 40.503906 38.285156 42.503906 39.183594 44.429688 C 40.082031 46.359375 41.164062 48.175781 42.433594 49.886719 C 43.707031 51.59375 45.136719 53.15625 46.726562 54.570312 C 48.316406 55.988281 50.035156 57.226562 51.878906 58.292969 Z M 97.882812 38.433594 L 105.398438 62.789062 C 105.230469 69.125 99.574219 71.402344 94.261719 71.402344 C 87.800781 71.402344 83.109375 67.660156 83.109375 62.507812 L 83.109375 58.292969 C 84.953125 57.226562 86.671875 55.988281 88.261719 54.570312 C 89.851562 53.15625 91.28125 51.59375 92.554688 49.886719 C 93.824219 48.175781 94.90625 46.359375 95.804688 44.429688 C 96.703125 42.503906 97.394531 40.503906 97.882812 38.433594 Z M 78.648438 62.507812 C 78.648438 69.066406 72.886719 71.402344 67.496094 71.402344 C 61.03125 71.402344 56.339844 67.660156 56.339844 62.507812 L 56.339844 60.417969 C 58.117188 61.109375 59.945312 61.628906 61.820312 61.980469 C 63.695312 62.332031 65.585938 62.507812 67.496094 62.507812 C 69.402344 62.507812 71.292969 62.332031 73.167969 61.980469 C 75.042969 61.628906 76.871094 61.109375 78.648438 60.417969 Z M 121.03125 71.402344 C 115.636719 71.402344 109.875 69.066406 109.875 62.507812 C 109.820312 62.292969 109.789062 62.074219 109.777344 61.851562 L 101.742188 35.820312 L 110.832031 35.820312 L 129.507812 67.503906 C 128.449219 68.742188 127.179688 69.699219 125.699219 70.382812 C 124.21875 71.0625 122.660156 71.402344 121.03125 71.402344 Z M 109.875 26.925781 L 109.875 31.371094 L 98.722656 31.371094 C 98.710938 29.882812 98.59375 28.398438 98.367188 26.925781 Z M 67.496094 4.6875 C 68.371094 4.6875 69.246094 4.730469 70.117188 4.816406 C 70.992188 4.902344 71.855469 5.03125 72.714844 5.199219 C 73.578125 5.371094 74.425781 5.582031 75.265625 5.835938 C 76.105469 6.089844 76.929688 6.382812 77.738281 6.71875 C 78.546875 7.054688 79.339844 7.425781 80.113281 7.839844 C 80.886719 8.25 81.636719 8.699219 82.367188 9.183594 C 83.09375 9.671875 83.796875 10.191406 84.476562 10.746094 C 85.152344 11.300781 85.800781 11.886719 86.421875 12.503906 C 87.042969 13.121094 87.628906 13.769531 88.1875 14.445312 C 88.742188 15.121094 89.265625 15.820312 89.75 16.546875 C 90.238281 17.273438 90.6875 18.023438 91.101562 18.792969 C 91.515625 19.5625 91.890625 20.351562 92.222656 21.160156 C 92.558594 21.96875 92.855469 22.789062 93.109375 23.625 C 93.363281 24.460938 93.578125 25.308594 93.746094 26.167969 C 93.917969 27.023438 94.046875 27.886719 94.132812 28.757812 C 94.21875 29.625 94.261719 30.5 94.261719 31.371094 C 94.261719 32.246094 94.21875 33.117188 94.132812 33.988281 C 94.046875 34.859375 93.917969 35.722656 93.746094 36.578125 C 93.578125 37.4375 93.363281 38.28125 93.109375 39.121094 C 92.855469 39.957031 92.558594 40.777344 92.222656 41.585938 C 91.890625 42.390625 91.515625 43.179688 91.101562 43.953125 C 90.6875 44.722656 90.238281 45.472656 89.75 46.199219 C 89.265625 46.925781 88.742188 47.625 88.1875 48.300781 C 87.628906 48.976562 87.042969 49.625 86.421875 50.242188 C 85.800781 50.859375 85.152344 51.445312 84.476562 52 C 83.796875 52.554688 83.09375 53.074219 82.367188 53.5625 C 81.636719 54.046875 80.886719 54.496094 80.113281 54.90625 C 79.339844 55.320312 78.546875 55.691406 77.738281 56.027344 C 76.929688 56.363281 76.105469 56.65625 75.265625 56.910156 C 74.425781 57.164062 73.578125 57.375 72.714844 57.546875 C 71.855469 57.714844 70.992188 57.84375 70.117188 57.929688 C 69.246094 58.015625 68.371094 58.058594 67.496094 58.058594 C 66.617188 58.058594 65.742188 58.015625 64.871094 57.929688 C 64 57.84375 63.132812 57.714844 62.273438 57.546875 C 61.414062 57.375 60.5625 57.164062 59.722656 56.910156 C 58.886719 56.65625 58.0625 56.363281 57.25 56.027344 C 56.441406 55.691406 55.648438 55.320312 54.875 54.90625 C 54.101562 54.496094 53.351562 54.046875 52.621094 53.5625 C 51.894531 53.074219 51.191406 52.554688 50.511719 52 C 49.835938 51.445312 49.1875 50.859375 48.566406 50.242188 C 47.945312 49.625 47.359375 48.976562 46.800781 48.300781 C 46.246094 47.625 45.726562 46.925781 45.238281 46.199219 C 44.75 45.472656 44.300781 44.722656 43.886719 43.953125 C 43.472656 43.179688 43.101562 42.390625 42.765625 41.585938 C 42.429688 40.777344 42.132812 39.957031 41.878906 39.121094 C 41.625 38.28125 41.410156 37.4375 41.242188 36.578125 C 41.070312 35.722656 40.941406 34.859375 40.855469 33.988281 C 40.769531 33.117188 40.726562 32.246094 40.726562 31.371094 C 40.726562 30.5 40.773438 29.628906 40.859375 28.757812 C 40.945312 27.890625 41.074219 27.027344 41.246094 26.167969 C 41.417969 25.3125 41.632812 24.464844 41.886719 23.628906 C 42.140625 22.792969 42.4375 21.972656 42.773438 21.164062 C 43.109375 20.359375 43.484375 19.570312 43.898438 18.800781 C 44.308594 18.027344 44.761719 17.28125 45.246094 16.554688 C 45.734375 15.828125 46.257812 15.128906 46.8125 14.453125 C 47.367188 13.777344 47.957031 13.128906 48.574219 12.511719 C 49.195312 11.894531 49.84375 11.308594 50.519531 10.753906 C 51.199219 10.199219 51.902344 9.679688 52.628906 9.195312 C 53.359375 8.707031 54.109375 8.257812 54.882812 7.847656 C 55.65625 7.433594 56.445312 7.0625 57.253906 6.726562 C 58.066406 6.390625 58.890625 6.097656 59.726562 5.84375 C 60.566406 5.589844 61.414062 5.375 62.273438 5.207031 C 63.132812 5.035156 64 4.90625 64.871094 4.820312 C 65.742188 4.730469 66.617188 4.6875 67.496094 4.6875 Z M 36.621094 26.925781 C 36.394531 28.398438 36.277344 29.882812 36.265625 31.371094 L 25.113281 31.371094 L 25.113281 26.925781 Z M 24.15625 35.820312 L 33.246094 35.820312 L 25.210938 61.851562 C 25.191406 61.960938 25.179688 62.066406 25.179688 62.175781 C 25.148438 62.285156 25.125 62.394531 25.113281 62.507812 C 25.113281 69.066406 19.351562 71.402344 13.960938 71.402344 C 12.328125 71.402344 10.773438 71.0625 9.289062 70.382812 C 7.808594 69.699219 6.539062 68.738281 5.484375 67.503906 Z M 24.15625 35.820312 " fill-opacity="1" fill-rule="nonzero"/></g><path fill="#000000" d="M 25.113281 111.429688 L 27.34375 111.429688 C 27.636719 111.429688 27.921875 111.375 28.195312 111.261719 C 28.46875 111.148438 28.710938 110.988281 28.921875 110.777344 C 29.128906 110.570312 29.289062 110.332031 29.402344 110.058594 C 29.515625 109.785156 29.574219 109.5 29.574219 109.207031 C 29.574219 108.910156 29.515625 108.628906 29.402344 108.355469 C 29.289062 108.082031 29.128906 107.84375 28.921875 107.632812 C 28.710938 107.425781 28.46875 107.265625 28.195312 107.152344 C 27.921875 107.039062 27.636719 106.984375 27.34375 106.984375 L 25.113281 106.984375 C 24.816406 106.984375 24.53125 107.039062 24.257812 107.152344 C 23.984375 107.265625 23.742188 107.425781 23.535156 107.632812 C 23.324219 107.84375 23.164062 108.082031 23.050781 108.355469 C 22.9375 108.628906 22.882812 108.910156 22.882812 109.207031 C 22.882812 109.5 22.9375 109.785156 23.050781 110.058594 C 23.164062 110.332031 23.324219 110.570312 23.535156 110.777344 C 23.742188 110.988281 23.984375 111.148438 24.257812 111.261719 C 24.53125 111.375 24.816406 111.429688 25.113281 111.429688 Z M 25.113281 111.429688 " fill-opacity="1" fill-rule="nonzero"/><path fill="#000000" d="M 54.925781 50.828125 C 55.351562 51.203125 55.84375 51.386719 56.40625 51.386719 L 71.890625 51.386719 C 72.453125 51.386719 72.945312 51.199219 73.367188 50.828125 C 75.339844 49.042969 77 47.007812 78.347656 44.714844 L 81.992188 44.714844 C 82.484375 44.71875 82.96875 44.671875 83.453125 44.582031 C 83.933594 44.492188 84.40625 44.355469 84.863281 44.175781 C 85.320312 44 85.753906 43.777344 86.167969 43.515625 C 86.585938 43.253906 86.972656 42.957031 87.332031 42.625 C 87.6875 42.289062 88.011719 41.925781 88.300781 41.527344 C 88.589844 41.132812 88.839844 40.714844 89.050781 40.273438 C 89.261719 39.828125 89.429688 39.371094 89.550781 38.898438 C 89.675781 38.425781 89.75 37.941406 89.78125 37.453125 C 89.816406 36.964844 89.800781 36.480469 89.738281 35.992188 C 89.679688 35.507812 89.574219 35.03125 89.421875 34.566406 C 89.269531 34.101562 89.078125 33.652344 88.84375 33.222656 C 88.605469 32.792969 88.332031 32.390625 88.019531 32.011719 C 87.707031 31.636719 87.363281 31.289062 86.984375 30.976562 C 86.605469 30.664062 86.203125 30.390625 85.773438 30.15625 C 85.34375 29.917969 84.894531 29.722656 84.429688 29.570312 C 83.960938 29.421875 83.484375 29.3125 82.996094 29.25 C 83.046875 28.476562 83.109375 27.707031 83.109375 26.925781 C 83.109375 26.628906 83.050781 26.347656 82.9375 26.074219 C 82.824219 25.800781 82.664062 25.5625 82.453125 25.351562 C 82.246094 25.144531 82.003906 24.984375 81.730469 24.871094 C 81.457031 24.757812 81.171875 24.703125 80.878906 24.703125 L 47.417969 24.703125 C 47.121094 24.703125 46.835938 24.757812 46.5625 24.871094 C 46.289062 24.984375 46.050781 25.144531 45.839844 25.351562 C 45.632812 25.5625 45.46875 25.800781 45.355469 26.074219 C 45.242188 26.347656 45.1875 26.628906 45.1875 26.925781 C 45.1875 36.511719 48.828125 45.445312 54.925781 50.828125 Z M 85.339844 36.933594 C 85.339844 37.375 85.253906 37.800781 85.082031 38.207031 C 84.914062 38.617188 84.671875 38.976562 84.359375 39.289062 C 84.042969 39.601562 83.683594 39.84375 83.273438 40.015625 C 82.863281 40.183594 82.4375 40.269531 81.992188 40.269531 L 80.589844 40.269531 C 81.441406 38.125 82.074219 35.917969 82.488281 33.648438 C 82.882812 33.707031 83.253906 33.832031 83.605469 34.023438 C 83.957031 34.214844 84.261719 34.460938 84.523438 34.761719 C 84.785156 35.0625 84.988281 35.402344 85.128906 35.773438 C 85.269531 36.148438 85.339844 36.535156 85.339844 36.933594 Z M 78.574219 29.148438 C 78.523438 29.898438 78.433594 30.632812 78.335938 31.363281 C 78.335938 31.367188 78.335938 31.371094 78.335938 31.375 C 77.492188 37.617188 74.902344 43.203125 71.015625 46.941406 L 57.277344 46.941406 C 52.933594 42.765625 50.195312 36.285156 49.722656 29.148438 Z M 78.574219 29.148438 " fill-opacity="1" fill-rule="nonzero"/><path fill="#000000" d="M 56.339844 22.476562 C 56.636719 22.476562 56.921875 22.421875 57.195312 22.308594 C 57.46875 22.195312 57.710938 22.035156 57.917969 21.828125 C 58.128906 21.617188 58.289062 21.378906 58.402344 21.105469 C 58.515625 20.832031 58.570312 20.550781 58.570312 20.253906 L 58.570312 13.582031 C 58.570312 13.289062 58.515625 13.003906 58.402344 12.730469 C 58.289062 12.460938 58.128906 12.21875 57.917969 12.011719 C 57.710938 11.800781 57.46875 11.640625 57.195312 11.527344 C 56.921875 11.414062 56.636719 11.359375 56.339844 11.359375 C 56.046875 11.359375 55.761719 11.414062 55.488281 11.527344 C 55.214844 11.640625 54.972656 11.800781 54.765625 12.011719 C 54.554688 12.21875 54.394531 12.460938 54.28125 12.730469 C 54.167969 13.003906 54.109375 13.289062 54.109375 13.582031 L 54.109375 20.253906 C 54.109375 20.550781 54.167969 20.832031 54.28125 21.105469 C 54.394531 21.378906 54.554688 21.617188 54.765625 21.828125 C 54.972656 22.035156 55.214844 22.195312 55.488281 22.308594 C 55.761719 22.421875 56.046875 22.476562 56.339844 22.476562 Z M 56.339844 22.476562 " fill-opacity="1" fill-rule="nonzero"/><path fill="#000000" d="M 63.03125 22.476562 C 63.328125 22.476562 63.613281 22.421875 63.886719 22.308594 C 64.160156 22.195312 64.402344 22.035156 64.609375 21.828125 C 64.820312 21.617188 64.980469 21.378906 65.09375 21.105469 C 65.207031 20.832031 65.265625 20.550781 65.265625 20.253906 L 65.265625 13.582031 C 65.265625 13.289062 65.207031 13.003906 65.09375 12.730469 C 64.980469 12.460938 64.820312 12.21875 64.609375 12.011719 C 64.402344 11.800781 64.160156 11.640625 63.886719 11.527344 C 63.613281 11.414062 63.328125 11.359375 63.03125 11.359375 C 62.738281 11.359375 62.453125 11.414062 62.179688 11.527344 C 61.90625 11.640625 61.664062 11.800781 61.457031 12.011719 C 61.246094 12.21875 61.085938 12.460938 60.972656 12.730469 C 60.859375 13.003906 60.800781 13.289062 60.800781 13.582031 L 60.800781 20.253906 C 60.800781 20.550781 60.859375 20.832031 60.972656 21.105469 C 61.085938 21.378906 61.246094 21.617188 61.457031 21.828125 C 61.664062 22.035156 61.90625 22.195312 62.179688 22.308594 C 62.453125 22.421875 62.738281 22.476562 63.03125 22.476562 Z M 63.03125 22.476562 " fill-opacity="1" fill-rule="nonzero"/><path fill="#000000" d="M 69.726562 22.476562 C 70.019531 22.476562 70.304688 22.421875 70.578125 22.308594 C 70.851562 22.195312 71.09375 22.035156 71.300781 21.828125 C 71.511719 21.617188 71.671875 21.378906 71.785156 21.105469 C 71.898438 20.832031 71.957031 20.550781 71.957031 20.253906 L 71.957031 13.582031 C 71.957031 13.289062 71.898438 13.003906 71.785156 12.730469 C 71.671875 12.460938 71.511719 12.21875 71.300781 12.011719 C 71.09375 11.800781 70.851562 11.640625 70.578125 11.527344 C 70.304688 11.414062 70.019531 11.359375 69.726562 11.359375 C 69.429688 11.359375 69.144531 11.414062 68.871094 11.527344 C 68.597656 11.640625 68.355469 11.800781 68.148438 12.011719 C 67.9375 12.21875 67.777344 12.460938 67.664062 12.730469 C 67.550781 13.003906 67.496094 13.289062 67.496094 13.582031 L 67.496094 20.253906 C 67.496094 20.550781 67.550781 20.832031 67.664062 21.105469 C 67.777344 21.378906 67.9375 21.617188 68.148438 21.828125 C 68.355469 22.035156 68.597656 22.195312 68.871094 22.308594 C 69.144531 22.421875 69.429688 22.476562 69.726562 22.476562 Z M 69.726562 22.476562 " fill-opacity="1" fill-rule="nonzero"/><path fill="#000000" d="M 79.664062 94.320312 C 80.800781 95.0625 82.050781 95.441406 83.410156 95.457031 C 84.132812 95.457031 84.835938 95.332031 85.511719 95.078125 C 87.367188 94.378906 88.78125 92.765625 89.398438 90.652344 C 89.960938 88.5625 89.847656 86.507812 89.054688 84.496094 C 87.332031 79.957031 83.082031 77.503906 79.375 78.894531 C 77.519531 79.59375 76.105469 81.207031 75.492188 83.324219 C 75.230469 84.339844 75.128906 85.375 75.1875 86.425781 C 75.246094 87.476562 75.460938 88.492188 75.835938 89.476562 C 76.207031 90.460938 76.722656 91.367188 77.375 92.191406 C 78.027344 93.019531 78.789062 93.726562 79.664062 94.320312 Z M 79.773438 84.558594 C 79.902344 84.113281 80.230469 83.324219 80.949219 83.054688 C 81.121094 82.992188 81.296875 82.960938 81.480469 82.960938 C 82.621094 82.960938 84.125 84.078125 84.878906 86.066406 C 85.320312 87.15625 85.398438 88.273438 85.113281 89.414062 C 84.984375 89.859375 84.660156 90.644531 83.9375 90.917969 C 83.214844 91.191406 82.449219 90.8125 82.054688 90.566406 C 81.589844 90.230469 81.183594 89.839844 80.835938 89.386719 C 80.488281 88.933594 80.210938 88.4375 80.007812 87.90625 C 79.804688 87.371094 79.683594 86.820312 79.644531 86.25 C 79.605469 85.679688 79.648438 85.117188 79.777344 84.558594 Z M 79.773438 84.558594 " fill-opacity="1" fill-rule="nonzero"/><path fill="#000000" d="M 104.941406 112.289062 C 104.34375 111.917969 103.804688 111.480469 103.324219 110.972656 C 102.839844 110.464844 102.429688 109.902344 102.09375 109.289062 C 101.757812 108.675781 101.503906 108.03125 101.332031 107.351562 C 101.164062 106.671875 101.082031 105.984375 101.089844 105.285156 C 101.089844 100.511719 96.621094 96.632812 91.125 96.632812 C 85.628906 96.632812 81.15625 100.511719 81.15625 105.324219 C 81.164062 106.023438 81.082031 106.707031 80.910156 107.382812 C 80.738281 108.058594 80.484375 108.699219 80.148438 109.308594 C 79.808594 109.917969 79.402344 110.476562 78.921875 110.980469 C 78.4375 111.488281 77.902344 111.921875 77.308594 112.289062 C 74.65625 113.890625 73.417969 116.15625 73.417969 119.425781 C 73.417969 121.765625 73.6875 124.644531 75.765625 126.136719 C 77.988281 127.730469 80.804688 126.796875 83.789062 125.800781 C 86.015625 125.0625 88.542969 124.222656 91.125 124.222656 C 93.707031 124.222656 96.230469 125.0625 98.460938 125.800781 C 100.285156 126.410156 102.042969 126.996094 103.644531 126.996094 C 104.6875 127.023438 105.632812 126.738281 106.480469 126.136719 C 108.5625 124.644531 108.828125 121.765625 108.828125 119.425781 C 108.828125 116.15625 107.59375 113.890625 104.941406 112.289062 Z M 103.890625 122.519531 C 103.371094 122.746094 101.261719 122.046875 99.871094 121.582031 C 97.449219 120.777344 94.433594 119.773438 91.125 119.773438 C 87.816406 119.773438 84.800781 120.777344 82.375 121.582031 C 80.984375 122.046875 78.886719 122.742188 78.382812 122.535156 C 78.378906 122.53125 77.878906 122.035156 77.878906 119.425781 C 77.878906 117.496094 78.464844 116.789062 79.617188 116.09375 C 80.542969 115.527344 81.378906 114.851562 82.128906 114.066406 C 82.878906 113.285156 83.515625 112.421875 84.039062 111.472656 C 84.566406 110.527344 84.960938 109.527344 85.230469 108.480469 C 85.496094 107.433594 85.625 106.367188 85.617188 105.285156 C 85.617188 102.964844 88.085938 101.082031 91.125 101.082031 C 94.160156 101.082031 96.628906 102.964844 96.628906 105.304688 C 96.621094 106.382812 96.753906 107.449219 97.019531 108.496094 C 97.289062 109.542969 97.683594 110.539062 98.210938 111.480469 C 98.734375 112.425781 99.371094 113.289062 100.121094 114.070312 C 100.871094 114.851562 101.707031 115.527344 102.628906 116.09375 C 103.78125 116.789062 104.367188 117.496094 104.367188 119.425781 C 104.367188 122.007812 103.882812 122.519531 103.890625 122.519531 Z M 103.890625 122.519531 " fill-opacity="1" fill-rule="nonzero"/><path fill="#000000" d="M 76.757812 96.460938 C 75.519531 94.683594 73.871094 93.449219 71.8125 92.757812 C 69.707031 92.09375 67.574219 92.371094 65.964844 93.519531 C 64.351562 94.667969 63.398438 96.589844 63.347656 98.792969 C 63.335938 100.957031 63.976562 102.910156 65.261719 104.65625 C 67.144531 107.28125 69.875 108.730469 72.441406 108.730469 C 73.769531 108.742188 74.976562 108.363281 76.058594 107.59375 C 79.28125 105.292969 79.585938 100.402344 76.757812 96.460938 Z M 73.464844 103.976562 C 72.460938 104.691406 70.335938 104.082031 68.890625 102.070312 C 68.1875 101.125 67.824219 100.066406 67.804688 98.894531 C 67.816406 98.429688 67.929688 97.585938 68.558594 97.136719 C 68.859375 96.933594 69.191406 96.835938 69.558594 96.847656 C 69.867188 96.851562 70.171875 96.902344 70.464844 96.996094 C 71.574219 97.394531 72.460938 98.074219 73.128906 99.046875 C 74.574219 101.0625 74.464844 103.261719 73.464844 103.976562 Z M 73.464844 103.976562 " fill-opacity="1" fill-rule="nonzero"/><path fill="#000000" d="M 96.234375 95.164062 C 96.90625 95.414062 97.601562 95.535156 98.320312 95.535156 C 101.421875 95.535156 104.488281 93.1875 105.855469 89.472656 C 106.632812 87.449219 106.726562 85.394531 106.140625 83.3125 C 105.503906 81.203125 104.074219 79.601562 102.214844 78.921875 C 98.496094 77.566406 94.269531 80.0625 92.589844 84.617188 C 90.914062 89.171875 92.515625 93.804688 96.234375 95.164062 Z M 96.777344 86.148438 C 97.636719 83.820312 99.527344 82.667969 100.675781 83.097656 C 101.402344 83.363281 101.734375 84.148438 101.867188 84.589844 C 102.164062 85.730469 102.097656 86.84375 101.667969 87.9375 C 100.8125 90.265625 98.917969 91.414062 97.769531 90.988281 C 96.613281 90.566406 95.921875 88.476562 96.777344 86.148438 Z M 96.777344 86.148438 " fill-opacity="1" fill-rule="nonzero"/><path fill="#000000" d="M 115.765625 93.417969 C 114.144531 92.285156 112.011719 92.027344 109.910156 92.710938 C 108.917969 93.070312 108.003906 93.570312 107.164062 94.207031 C 106.328125 94.847656 105.605469 95.601562 105 96.460938 C 104.394531 97.324219 103.933594 98.253906 103.617188 99.257812 C 103.296875 100.261719 103.140625 101.289062 103.140625 102.34375 C 103.210938 104.542969 104.183594 106.457031 105.808594 107.589844 C 106.878906 108.335938 108.066406 108.703125 109.371094 108.691406 C 111.953125 108.691406 114.699219 107.210938 116.574219 104.546875 C 119.367188 100.570312 119.011719 95.683594 115.765625 93.417969 Z M 112.921875 101.992188 C 111.492188 104.023438 109.371094 104.648438 108.367188 103.945312 C 107.734375 103.503906 107.617188 102.660156 107.601562 102.199219 C 107.613281 101.625 107.710938 101.070312 107.890625 100.527344 C 108.070312 99.984375 108.324219 99.480469 108.652344 99.011719 C 108.980469 98.542969 109.371094 98.132812 109.820312 97.78125 C 110.273438 97.425781 110.765625 97.148438 111.296875 96.9375 C 111.597656 96.835938 111.910156 96.785156 112.226562 96.777344 C 112.582031 96.769531 112.910156 96.863281 113.207031 97.0625 C 114.214844 97.765625 114.347656 99.964844 112.921875 101.992188 Z M 112.921875 101.992188 " fill-opacity="1" fill-rule="nonzero"/></g></g></g><g mask="url(#c606705e83)"><g transform="matrix(1, 0, 0, 1, 20, 15)"><g clip-path="url(#14da4e0ae3)"><g fill="#000000" fill-opacity="1"><g transform="translate(15.684589, 56.472297)"><g><path d="M 22.859375 -19.84375 C 23.898438 -18.300781 24.171875 -16.5625 23.671875 -14.625 C 23.179688 -12.695312 22.050781 -11.132812 20.28125 -9.9375 C 18.488281 -8.738281 16.601562 -8.265625 14.625 -8.515625 C 12.65625 -8.765625 11.144531 -9.664062 10.09375 -11.21875 C 9.039062 -12.769531 8.765625 -14.515625 9.265625 -16.453125 C 9.773438 -18.390625 10.925781 -19.957031 12.71875 -21.15625 C 14.488281 -22.351562 16.359375 -22.816406 18.328125 -22.546875 C 20.304688 -22.273438 21.816406 -21.375 22.859375 -19.84375 Z M -11.515625 -21.203125 C -11.796875 -21.617188 -11.925781 -22.070312 -11.90625 -22.5625 C -11.882812 -23.0625 -11.550781 -23.53125 -10.90625 -23.96875 L -3.296875 -29.109375 C -2.609375 -29.566406 -1.960938 -29.335938 -1.359375 -28.421875 C -0.765625 -27.515625 -0.800781 -26.835938 -1.46875 -26.390625 L -7.34375 -22.421875 C -7.457031 -22.335938 -7.503906 -22.265625 -7.484375 -22.203125 C -7.472656 -22.140625 -7.441406 -22.078125 -7.390625 -22.015625 L -1.53125 -13.34375 C -1.488281 -13.269531 -1.425781 -13.210938 -1.34375 -13.171875 C -1.257812 -13.140625 -1.1875 -13.160156 -1.125 -13.234375 C -0.40625 -14.078125 0.3125 -15.132812 1.03125 -16.40625 C 1.757812 -17.675781 2.375 -19.15625 2.875 -20.84375 C 3.207031 -22.039062 3.9375 -22.382812 5.0625 -21.875 C 6.1875 -21.375 6.597656 -20.582031 6.296875 -19.5 C 5.910156 -18.0625 5.125 -16.242188 3.9375 -14.046875 C 2.757812 -11.859375 1.363281 -9.90625 -0.25 -8.1875 C -0.601562 -7.820312 -1.023438 -7.613281 -1.515625 -7.5625 C -2.015625 -7.519531 -2.398438 -7.703125 -2.671875 -8.109375 Z M 10.921875 -22.140625 C 11.492188 -21.285156 11.242188 -20.5 10.171875 -19.78125 C 9.109375 -19.0625 8.289062 -19.128906 7.71875 -19.984375 L 0.5 -30.671875 C -0.0703125 -31.523438 0.171875 -32.3125 1.234375 -33.03125 C 2.304688 -33.75 3.128906 -33.679688 3.703125 -32.828125 L 6.203125 -29.125 L 8.21875 -30.484375 C 8.476562 -30.660156 8.742188 -30.726562 9.015625 -30.6875 L 6.359375 -34.609375 C 5.785156 -35.460938 6.03125 -36.25 7.09375 -36.96875 C 8.15625 -37.6875 8.972656 -37.617188 9.546875 -36.765625 L 16.765625 -26.078125 C 17.335938 -25.222656 17.09375 -24.4375 16.03125 -23.71875 C 14.96875 -23 14.148438 -23.066406 13.578125 -23.921875 L 10.546875 -28.40625 C 10.472656 -28.15625 10.304688 -27.941406 10.046875 -27.765625 L 8.03125 -26.40625 Z M 19.65625 -17.6875 C 19.113281 -18.488281 18.34375 -18.957031 17.34375 -19.09375 C 16.351562 -19.238281 15.425781 -19.015625 14.5625 -18.421875 C 13.675781 -17.828125 13.113281 -17.039062 12.875 -16.0625 C 12.632812 -15.09375 12.785156 -14.207031 13.328125 -13.40625 C 13.867188 -12.601562 14.632812 -12.128906 15.625 -11.984375 C 16.613281 -11.847656 17.550781 -12.078125 18.4375 -12.671875 C 19.300781 -13.265625 19.851562 -14.046875 20.09375 -15.015625 C 20.34375 -15.992188 20.195312 -16.882812 19.65625 -17.6875 Z M 19.65625 -17.6875 "/></g></g></g><g fill="#000000" fill-opacity="1"><g transform="translate(40.204976, 39.509528)"><g><path d="M 27.21875 -13.265625 C 27.820312 -11.515625 27.632812 -9.765625 26.65625 -8.015625 C 25.675781 -6.273438 24.179688 -5.054688 22.171875 -4.359375 C 20.128906 -3.660156 18.179688 -3.6875 16.328125 -4.4375 C 14.484375 -5.195312 13.257812 -6.460938 12.65625 -8.234375 C 12.039062 -10.003906 12.222656 -11.753906 13.203125 -13.484375 C 14.191406 -15.222656 15.707031 -16.441406 17.75 -17.140625 C 19.757812 -17.835938 21.6875 -17.800781 23.53125 -17.03125 C 25.382812 -16.269531 26.613281 -15.015625 27.21875 -13.265625 Z M -5.640625 -23.46875 C -5.796875 -23.9375 -5.800781 -24.40625 -5.65625 -24.875 C -5.507812 -25.351562 -5.066406 -25.71875 -4.328125 -25.96875 L 4.34375 -28.96875 C 5.125 -29.238281 5.6875 -28.851562 6.03125 -27.8125 C 6.375 -26.769531 6.164062 -26.117188 5.40625 -25.859375 L -1.296875 -23.546875 C -1.429688 -23.503906 -1.5 -23.445312 -1.5 -23.375 C -1.5 -23.3125 -1.484375 -23.242188 -1.453125 -23.171875 L 1.953125 -13.265625 C 1.984375 -13.191406 2.035156 -13.128906 2.109375 -13.078125 C 2.179688 -13.023438 2.253906 -13.019531 2.328125 -13.0625 C 3.234375 -13.695312 4.203125 -14.535156 5.234375 -15.578125 C 6.273438 -16.617188 7.253906 -17.890625 8.171875 -19.390625 C 8.796875 -20.460938 9.585938 -20.609375 10.546875 -19.828125 C 11.503906 -19.054688 11.691406 -18.179688 11.109375 -17.203125 C 10.367188 -15.921875 9.144531 -14.375 7.4375 -12.5625 C 5.738281 -10.75 3.882812 -9.21875 1.875 -7.96875 C 1.4375 -7.707031 0.972656 -7.617188 0.484375 -7.703125 C 0.00390625 -7.796875 -0.316406 -8.070312 -0.484375 -8.53125 Z M 16.265625 -18.5625 C 16.609375 -17.59375 16.171875 -16.894531 14.953125 -16.46875 C 13.734375 -16.050781 12.953125 -16.328125 12.609375 -17.296875 L 8.40625 -29.484375 C 8.070312 -30.453125 8.515625 -31.144531 9.734375 -31.5625 C 10.953125 -31.988281 11.726562 -31.71875 12.0625 -30.75 L 13.515625 -26.53125 L 15.796875 -27.3125 C 16.109375 -27.425781 16.390625 -27.429688 16.640625 -27.328125 L 15.09375 -31.796875 C 14.757812 -32.765625 15.195312 -33.457031 16.40625 -33.875 C 17.613281 -34.289062 18.382812 -34.015625 18.71875 -33.046875 L 22.921875 -20.859375 C 23.265625 -19.890625 22.832031 -19.195312 21.625 -18.78125 C 20.414062 -18.363281 19.640625 -18.640625 19.296875 -19.609375 L 17.53125 -24.71875 C 17.40625 -24.5 17.1875 -24.332031 16.875 -24.21875 L 14.59375 -23.4375 Z M 23.5625 -12 C 23.238281 -12.914062 22.613281 -13.566406 21.6875 -13.953125 C 20.769531 -14.347656 19.816406 -14.375 18.828125 -14.03125 C 17.816406 -13.6875 17.066406 -13.070312 16.578125 -12.1875 C 16.097656 -11.3125 16.019531 -10.414062 16.34375 -9.5 C 16.65625 -8.582031 17.269531 -7.925781 18.1875 -7.53125 C 19.113281 -7.144531 20.082031 -7.125 21.09375 -7.46875 C 22.082031 -7.8125 22.816406 -8.421875 23.296875 -9.296875 C 23.785156 -10.179688 23.875 -11.082031 23.5625 -12 Z M 23.5625 -12 "/></g></g></g><g fill="#000000" fill-opacity="1"><g transform="translate(68.497004, 29.725686)"><g><path d="M 8.40625 1.609375 C 7.632812 1.671875 7.082031 1.519531 6.75 1.15625 C 6.425781 0.789062 6.238281 0.359375 6.1875 -0.140625 L 5.875 -3.75 C 5.820312 -4.25 5.921875 -4.707031 6.171875 -5.125 C 6.429688 -5.550781 6.945312 -5.796875 7.71875 -5.859375 L 20.703125 -7.03125 C 20.859375 -7.050781 20.941406 -7.09375 20.953125 -7.15625 C 20.972656 -7.226562 20.984375 -7.304688 20.984375 -7.390625 L 20.921875 -8 C 20.910156 -8.082031 20.890625 -8.15625 20.859375 -8.21875 C 20.835938 -8.28125 20.75 -8.300781 20.59375 -8.28125 L 6.609375 -7.015625 C 5.804688 -6.953125 5.351562 -7.441406 5.25 -8.484375 C 5.144531 -9.523438 5.503906 -10.082031 6.328125 -10.15625 L 22.421875 -11.609375 C 23.203125 -11.679688 23.753906 -11.53125 24.078125 -11.15625 C 24.398438 -10.789062 24.582031 -10.359375 24.625 -9.859375 L 24.953125 -6.21875 C 25.003906 -5.71875 24.90625 -5.253906 24.65625 -4.828125 C 24.40625 -4.398438 23.890625 -4.148438 23.109375 -4.078125 L 10.109375 -2.90625 C 9.953125 -2.894531 9.863281 -2.859375 9.84375 -2.796875 C 9.832031 -2.742188 9.828125 -2.675781 9.828125 -2.59375 L 9.890625 -2 C 9.890625 -1.914062 9.90625 -1.84375 9.9375 -1.78125 C 9.96875 -1.71875 10.0625 -1.691406 10.21875 -1.703125 L 24.8125 -3.015625 C 25.632812 -3.097656 26.085938 -2.617188 26.171875 -1.578125 C 26.253906 -0.535156 25.894531 0.0234375 25.09375 0.109375 Z M 0.75 -10.921875 C -0.0507812 -10.847656 -0.503906 -11.316406 -0.609375 -12.328125 C -0.710938 -13.335938 -0.351562 -13.878906 0.46875 -13.953125 L 24.671875 -16.140625 C 25.515625 -16.210938 25.976562 -15.742188 26.0625 -14.734375 C 26.144531 -13.722656 25.773438 -13.179688 24.953125 -13.109375 Z M 2.484375 -23 C 1.679688 -22.925781 1.222656 -23.429688 1.109375 -24.515625 C 1.003906 -25.609375 1.363281 -26.191406 2.1875 -26.265625 L 21.078125 -27.96875 C 21.921875 -28.039062 22.382812 -27.53125 22.46875 -26.4375 C 22.5625 -25.351562 22.195312 -24.773438 21.375 -24.703125 Z M 16.53125 -16.703125 C 15.757812 -16.640625 15.207031 -16.789062 14.875 -17.15625 C 14.550781 -17.53125 14.367188 -17.96875 14.328125 -18.46875 L 14 -22.015625 C 13.90625 -23.035156 14.5 -23.601562 15.78125 -23.71875 C 17.0625 -23.832031 17.75 -23.378906 17.84375 -22.359375 L 18.015625 -20.453125 C 18.023438 -20.359375 18.039062 -20.28125 18.0625 -20.21875 C 18.09375 -20.15625 18.1875 -20.128906 18.34375 -20.140625 L 21.75 -20.453125 C 22.550781 -20.523438 23.003906 -20.019531 23.109375 -18.9375 C 23.222656 -17.851562 22.867188 -17.273438 22.046875 -17.203125 Z M 10.53125 -18.125 C 10.570312 -17.625 10.460938 -17.160156 10.203125 -16.734375 C 9.953125 -16.316406 9.4375 -16.070312 8.65625 -16 L 3.125 -15.5 C 2.300781 -15.425781 1.84375 -15.929688 1.75 -17.015625 C 1.664062 -18.097656 2.023438 -18.675781 2.828125 -18.75 L 6.28125 -19.0625 C 6.425781 -19.070312 6.503906 -19.109375 6.515625 -19.171875 C 6.535156 -19.234375 6.539062 -19.3125 6.53125 -19.40625 L 6.359375 -21.3125 C 6.265625 -22.332031 6.859375 -22.898438 8.140625 -23.015625 C 9.421875 -23.140625 10.109375 -22.691406 10.203125 -21.671875 Z M 10.53125 -18.125 "/></g></g></g><g clip-path="url(#9b9f8495de)"><g fill="#000000" fill-opacity="1"><g transform="translate(93.713478, 26.936991)"><g><path d="M 17.578125 -14.109375 C 17.546875 -13.890625 17.484375 -13.691406 17.390625 -13.515625 L 20.65625 -13.03125 L 22.015625 -22.09375 C 22.171875 -23.113281 22.882812 -23.523438 24.15625 -23.328125 C 25.425781 -23.140625 25.984375 -22.535156 25.828125 -21.515625 L 22.203125 2.625 C 22.046875 3.644531 21.332031 4.054688 20.0625 3.859375 C 18.789062 3.671875 18.234375 3.066406 18.390625 2.046875 L 20.171875 -9.796875 L 16.40625 -10.359375 C 15.601562 -10.484375 15.269531 -11.082031 15.40625 -12.15625 L 15.453125 -12.484375 L 15.265625 -12.515625 L 8.5625 -13.515625 C 8.425781 -13.535156 8.34375 -13.515625 8.3125 -13.453125 C 8.289062 -13.390625 8.269531 -13.316406 8.25 -13.234375 L 7.203125 -6.25 C 7.191406 -6.164062 7.203125 -6.085938 7.234375 -6.015625 C 7.273438 -5.941406 7.335938 -5.894531 7.421875 -5.875 C 8.679688 -5.625 10.222656 -5.625 12.046875 -5.875 C 13.867188 -6.132812 15.535156 -6.484375 17.046875 -6.921875 C 17.921875 -7.160156 18.492188 -6.734375 18.765625 -5.640625 C 19.035156 -4.554688 18.597656 -3.84375 17.453125 -3.5 C 15.992188 -3.03125 14.238281 -2.675781 12.1875 -2.4375 C 10.132812 -2.195312 7.675781 -2.253906 4.8125 -2.609375 C 4.269531 -2.671875 3.828125 -2.945312 3.484375 -3.4375 C 3.140625 -3.925781 3.007812 -4.414062 3.09375 -4.90625 L 4.671875 -15.4375 C 4.742188 -15.925781 4.957031 -16.34375 5.3125 -16.6875 C 5.664062 -17.039062 6.226562 -17.160156 7 -17.046875 L 13.6875 -16.046875 C 13.832031 -16.023438 13.914062 -16.039062 13.9375 -16.09375 C 13.96875 -16.15625 13.992188 -16.234375 14.015625 -16.328125 L 14.625 -20.421875 C 14.632812 -20.503906 14.632812 -20.578125 14.625 -20.640625 C 14.613281 -20.710938 14.535156 -20.757812 14.390625 -20.78125 L 6.890625 -21.90625 C 6.097656 -22.03125 5.773438 -22.628906 5.921875 -23.703125 C 6.078125 -24.785156 6.5625 -25.265625 7.375 -25.140625 L 16.953125 -23.703125 C 17.722656 -23.585938 18.222656 -23.304688 18.453125 -22.859375 C 18.679688 -22.421875 18.757812 -21.957031 18.6875 -21.46875 Z M 28.28125 3.53125 C 28.125 4.550781 27.410156 4.96875 26.140625 4.78125 C 24.867188 4.59375 24.3125 3.988281 24.46875 2.96875 L 28.09375 -21.171875 C 28.25 -22.191406 28.960938 -22.609375 30.234375 -22.421875 C 31.503906 -22.234375 32.0625 -21.628906 31.90625 -20.609375 Z M 28.28125 3.53125 "/></g></g></g></g><g fill="#000000" fill-opacity="1"><g transform="translate(122.518837, 31.056217)"><g><path d="M 24.421875 9.5 C 24.015625 10.457031 23.21875 10.6875 22.03125 10.1875 C 20.851562 9.6875 20.46875 8.957031 20.875 8 L 30.328125 -14.5 C 30.734375 -15.445312 31.523438 -15.671875 32.703125 -15.171875 C 33.890625 -14.671875 34.28125 -13.945312 33.875 -13 Z M 22.25 -6.734375 C 21.039062 -3.847656 19.320312 -1.640625 17.09375 -0.109375 C 14.875 1.421875 12.613281 1.703125 10.3125 0.734375 C 8.019531 -0.234375 6.625 -2.039062 6.125 -4.6875 C 5.625 -7.332031 5.988281 -10.117188 7.21875 -13.046875 C 8.445312 -15.972656 10.179688 -18.179688 12.421875 -19.671875 C 14.660156 -21.171875 16.925781 -21.4375 19.21875 -20.46875 C 21.539062 -19.488281 22.929688 -17.675781 23.390625 -15.03125 C 23.847656 -12.394531 23.46875 -9.628906 22.25 -6.734375 Z M 18.75 -8.203125 C 19.644531 -10.328125 20.054688 -12.265625 19.984375 -14.015625 C 19.921875 -15.765625 19.242188 -16.910156 17.953125 -17.453125 C 16.691406 -17.984375 15.398438 -17.664062 14.078125 -16.5 C 12.765625 -15.332031 11.660156 -13.6875 10.765625 -11.5625 C 9.867188 -9.425781 9.460938 -7.476562 9.546875 -5.71875 C 9.640625 -3.96875 10.316406 -2.828125 11.578125 -2.296875 C 12.867188 -1.753906 14.160156 -2.066406 15.453125 -3.234375 C 16.753906 -4.410156 17.851562 -6.066406 18.75 -8.203125 Z M 18.75 -8.203125 "/></g></g></g><g clip-path="url(#23775946c4)"><g fill="#000000" fill-opacity="1"><g transform="translate(148.116131, 41.830523)"><g><path d="M 27.875 2.140625 C 27.957031 3.179688 27.378906 3.71875 26.140625 3.75 C 24.898438 3.789062 24.238281 3.296875 24.15625 2.265625 L 23.328125 -10.703125 L 10.78125 -7.3125 C 9.78125 -7.0625 9.097656 -7.53125 8.734375 -8.71875 C 8.367188 -9.90625 8.691406 -10.625 9.703125 -10.875 L 23.859375 -14.671875 C 24.640625 -14.867188 25.234375 -14.617188 25.640625 -13.921875 C 26.410156 -13.773438 26.832031 -13.296875 26.90625 -12.484375 Z M 2.703125 -0.84375 C 2.054688 -1.3125 2.046875 -1.988281 2.671875 -2.875 C 3.296875 -3.769531 3.941406 -3.976562 4.609375 -3.5 L 22.5625 9.359375 C 23.25 9.859375 23.269531 10.546875 22.625 11.421875 C 21.976562 12.296875 21.320312 12.492188 20.65625 12.015625 Z M 2.703125 -0.84375 "/></g></g></g></g></g></g></g><g mask="url(#e3fb274e6d)"><g transform="matrix(1, 0, 0, 1, 75, 198)"><g clip-path="url(#7bf4757dc9)"><g fill="#000000" fill-opacity="1"><g transform="translate(0.96434, 14.597569)"><g><path d="M 2.34375 0.015625 C 1.9375 0.015625 1.660156 -0.0859375 1.515625 -0.296875 C 1.378906 -0.503906 1.3125 -0.734375 1.3125 -0.984375 L 1.3125 -12.296875 C 1.3125 -12.816406 1.628906 -13.078125 2.265625 -13.078125 C 2.921875 -13.078125 3.25 -12.816406 3.25 -12.296875 L 3.25 -1.640625 L 8.71875 -1.640625 C 9.101562 -1.640625 9.296875 -1.367188 9.296875 -0.828125 C 9.316406 -0.265625 9.125 0.015625 8.71875 0.015625 Z M 2.34375 0.015625 "/></g></g></g><g fill="#000000" fill-opacity="1"><g transform="translate(10.461267, 14.597569)"><g><path d="M 6.40625 -9.859375 C 6.6875 -9.859375 6.976562 -9.796875 7.28125 -9.671875 C 7.582031 -9.554688 7.875 -9.40625 8.15625 -9.21875 L 8.140625 -9.21875 C 8.421875 -9.007812 8.632812 -8.738281 8.78125 -8.40625 C 8.9375 -8.070312 9.015625 -7.6875 9.015625 -7.25 L 9.015625 -2.609375 C 9.015625 -1.710938 8.722656 -1.050781 8.140625 -0.625 C 7.554688 -0.207031 6.976562 0 6.40625 0 L 3.78125 0 C 3.5 0 3.207031 -0.046875 2.90625 -0.140625 C 2.613281 -0.242188 2.328125 -0.40625 2.046875 -0.625 C 1.453125 -1.039062 1.15625 -1.703125 1.15625 -2.609375 L 1.15625 -7.25 C 1.15625 -7.6875 1.234375 -8.070312 1.390625 -8.40625 C 1.546875 -8.738281 1.765625 -9.007812 2.046875 -9.21875 L 2.03125 -9.21875 C 2.300781 -9.40625 2.585938 -9.554688 2.890625 -9.671875 C 3.203125 -9.796875 3.5 -9.859375 3.78125 -9.859375 Z M 6.109375 -1.546875 C 6.515625 -1.546875 6.800781 -1.660156 6.96875 -1.890625 C 7.132812 -2.117188 7.21875 -2.363281 7.21875 -2.625 L 7.21875 -7.234375 C 7.21875 -7.503906 7.132812 -7.75 6.96875 -7.96875 C 6.800781 -8.195312 6.515625 -8.3125 6.109375 -8.3125 L 4.078125 -8.3125 C 3.671875 -8.3125 3.382812 -8.195312 3.21875 -7.96875 C 3.050781 -7.75 2.96875 -7.503906 2.96875 -7.234375 L 2.96875 -2.625 C 2.96875 -2.363281 3.050781 -2.117188 3.21875 -1.890625 C 3.382812 -1.660156 3.671875 -1.546875 4.078125 -1.546875 Z M 6.109375 -1.546875 "/></g></g></g><g fill="#000000" fill-opacity="1"><g transform="translate(20.383915, 14.597569)"><g><path d="M 3.640625 0 C 3.296875 0 2.96875 -0.046875 2.65625 -0.140625 C 2.351562 -0.234375 2.0625 -0.367188 1.78125 -0.546875 L 1.78125 -0.53125 C 1.25 -0.863281 0.984375 -1.484375 0.984375 -2.390625 L 0.984375 -3.1875 C 0.984375 -3.632812 1.0625 -4.023438 1.21875 -4.359375 C 1.375 -4.691406 1.597656 -4.957031 1.890625 -5.15625 L 1.859375 -5.15625 C 2.140625 -5.34375 2.429688 -5.484375 2.734375 -5.578125 C 3.035156 -5.671875 3.332031 -5.71875 3.625 -5.71875 L 7.234375 -5.71875 L 7.234375 -7.234375 C 7.234375 -7.503906 7.148438 -7.75 6.984375 -7.96875 C 6.816406 -8.195312 6.53125 -8.3125 6.125 -8.3125 L 4.203125 -8.3125 C 3.796875 -8.3125 3.507812 -8.210938 3.34375 -8.015625 C 3.1875 -7.816406 3.109375 -7.578125 3.109375 -7.296875 L 3.109375 -7.171875 C 3.109375 -6.609375 2.800781 -6.328125 2.1875 -6.328125 C 1.582031 -6.328125 1.28125 -6.609375 1.28125 -7.171875 L 1.28125 -7.3125 C 1.28125 -7.757812 1.359375 -8.132812 1.515625 -8.4375 C 1.671875 -8.75 1.882812 -9.007812 2.15625 -9.21875 L 2.140625 -9.21875 C 2.429688 -9.40625 2.726562 -9.554688 3.03125 -9.671875 C 3.34375 -9.796875 3.644531 -9.859375 3.9375 -9.859375 L 6.421875 -9.859375 C 6.691406 -9.859375 6.984375 -9.796875 7.296875 -9.671875 C 7.609375 -9.554688 7.898438 -9.40625 8.171875 -9.21875 L 8.15625 -9.21875 C 8.4375 -9.007812 8.648438 -8.738281 8.796875 -8.40625 C 8.953125 -8.070312 9.03125 -7.6875 9.03125 -7.25 L 9.03125 -0.6875 C 9.03125 -0.164062 8.734375 0.09375 8.140625 0.09375 C 8.015625 0.09375 7.898438 0.0859375 7.796875 0.078125 C 7.691406 0.0664062 7.597656 0.0390625 7.515625 0 C 7.441406 -0.0507812 7.378906 -0.125 7.328125 -0.21875 C 7.273438 -0.3125 7.25 -0.4375 7.25 -0.59375 L 7.234375 -4.171875 L 3.9375 -4.171875 C 3.6875 -4.171875 3.492188 -4.144531 3.359375 -4.09375 C 3.234375 -4.039062 3.132812 -3.953125 3.0625 -3.828125 C 2.976562 -3.640625 2.914062 -3.492188 2.875 -3.390625 C 2.832031 -3.296875 2.8125 -3.179688 2.8125 -3.046875 L 2.8125 -2.40625 C 2.8125 -2.125 2.894531 -1.910156 3.0625 -1.765625 C 3.238281 -1.617188 3.535156 -1.546875 3.953125 -1.546875 L 5.78125 -1.546875 C 6.1875 -1.546875 6.390625 -1.285156 6.390625 -0.765625 C 6.390625 -0.546875 6.335938 -0.363281 6.234375 -0.21875 C 6.140625 -0.0703125 5.988281 0 5.78125 0 Z M 3.640625 0 "/></g></g></g><g fill="#000000" fill-opacity="1"><g transform="translate(30.372069, 14.597569)"><g><path d="M 7.234375 -8.3125 L 4.078125 -8.3125 C 3.628906 -8.3125 3.332031 -8.179688 3.1875 -7.921875 C 3.039062 -7.691406 2.96875 -7.425781 2.96875 -7.125 L 2.96875 -2.40625 C 2.96875 -2.125 3.050781 -1.910156 3.21875 -1.765625 C 3.394531 -1.617188 3.6875 -1.546875 4.09375 -1.546875 L 5.78125 -1.546875 C 6.175781 -1.546875 6.375 -1.285156 6.375 -0.765625 C 6.375 -0.546875 6.328125 -0.363281 6.234375 -0.21875 C 6.140625 -0.0703125 5.988281 0 5.78125 0 L 3.796875 0 C 3.109375 0 2.5 -0.175781 1.96875 -0.53125 C 1.425781 -0.851562 1.15625 -1.472656 1.15625 -2.390625 L 1.15625 -7.265625 C 1.15625 -7.710938 1.226562 -8.097656 1.375 -8.421875 C 1.519531 -8.753906 1.742188 -9.023438 2.046875 -9.234375 C 2.628906 -9.648438 3.207031 -9.859375 3.78125 -9.859375 L 7.234375 -9.859375 L 7.234375 -12.3125 C 7.234375 -12.832031 7.535156 -13.09375 8.140625 -13.09375 C 8.734375 -13.09375 9.03125 -12.832031 9.03125 -12.3125 L 9.03125 -0.6875 C 9.03125 -0.164062 8.734375 0.09375 8.140625 0.09375 C 7.910156 0.09375 7.703125 0.0546875 7.515625 -0.015625 C 7.328125 -0.0976562 7.234375 -0.285156 7.234375 -0.578125 Z M 7.234375 -8.3125 "/></g></g></g><g fill="#000000" fill-opacity="1"><g transform="translate(40.409338, 14.597569)"><g><path d="M 3.015625 -0.6875 C 3.015625 -0.164062 2.710938 0.09375 2.109375 0.09375 C 1.503906 0.09375 1.203125 -0.164062 1.203125 -0.6875 L 1.203125 -9.140625 C 1.203125 -9.660156 1.503906 -9.921875 2.109375 -9.921875 C 2.710938 -9.921875 3.015625 -9.660156 3.015625 -9.140625 Z M 3.359375 -11.984375 C 3.359375 -11.640625 3.238281 -11.34375 3 -11.09375 C 2.757812 -10.851562 2.460938 -10.734375 2.109375 -10.734375 C 1.765625 -10.734375 1.46875 -10.851562 1.21875 -11.09375 C 0.96875 -11.34375 0.84375 -11.640625 0.84375 -11.984375 C 0.84375 -12.347656 0.96875 -12.648438 1.21875 -12.890625 C 1.46875 -13.128906 1.765625 -13.25 2.109375 -13.25 C 2.460938 -13.25 2.757812 -13.128906 3 -12.890625 C 3.238281 -12.648438 3.359375 -12.347656 3.359375 -11.984375 Z M 3.359375 -11.984375 "/></g></g></g><g fill="#000000" fill-opacity="1"><g transform="translate(44.535592, 14.597569)"><g><path d="M 2.96875 -0.6875 C 2.96875 -0.164062 2.664062 0.09375 2.0625 0.09375 C 1.457031 0.09375 1.15625 -0.164062 1.15625 -0.6875 L 1.15625 -7.265625 C 1.15625 -7.710938 1.226562 -8.097656 1.375 -8.421875 C 1.519531 -8.753906 1.742188 -9.023438 2.046875 -9.234375 C 2.628906 -9.648438 3.207031 -9.859375 3.78125 -9.859375 L 6.421875 -9.859375 C 6.972656 -9.859375 7.550781 -9.648438 8.15625 -9.234375 C 8.738281 -8.816406 9.03125 -8.160156 9.03125 -7.265625 L 9.03125 -0.6875 C 9.03125 -0.164062 8.734375 0.09375 8.140625 0.09375 C 7.535156 0.09375 7.234375 -0.164062 7.234375 -0.6875 L 7.234375 -7.125 C 7.234375 -7.40625 7.144531 -7.675781 6.96875 -7.9375 L 6.984375 -7.921875 C 6.847656 -8.179688 6.5625 -8.3125 6.125 -8.3125 L 4.078125 -8.3125 C 3.628906 -8.3125 3.332031 -8.179688 3.1875 -7.921875 C 3.039062 -7.691406 2.96875 -7.425781 2.96875 -7.125 Z M 2.96875 -0.6875 "/></g></g></g><g fill="#000000" fill-opacity="1"><g transform="translate(54.523745, 14.597569)"><g><path d="M 3.796875 -1.140625 C 3.515625 -1.140625 3.222656 -1.1875 2.921875 -1.28125 C 2.617188 -1.382812 2.328125 -1.53125 2.046875 -1.71875 C 1.453125 -2.101562 1.15625 -2.75 1.15625 -3.65625 L 1.15625 -7.359375 C 1.15625 -7.816406 1.234375 -8.207031 1.390625 -8.53125 C 1.554688 -8.851562 1.773438 -9.109375 2.046875 -9.296875 C 2.328125 -9.472656 2.613281 -9.609375 2.90625 -9.703125 C 3.207031 -9.804688 3.5 -9.859375 3.78125 -9.859375 L 6.53125 -9.859375 C 6.800781 -9.859375 7.082031 -9.796875 7.375 -9.671875 C 7.675781 -9.554688 7.953125 -9.40625 8.203125 -9.21875 C 8.453125 -9.007812 8.648438 -8.734375 8.796875 -8.390625 C 8.953125 -8.054688 9.03125 -7.675781 9.03125 -7.25 L 9.03125 -0.3125 C 9.03125 0.144531 8.957031 0.535156 8.8125 0.859375 C 8.664062 1.179688 8.460938 1.453125 8.203125 1.671875 C 7.953125 1.878906 7.679688 2.039062 7.390625 2.15625 C 7.097656 2.269531 6.8125 2.328125 6.53125 2.328125 L 3.78125 2.328125 C 3.207031 2.328125 2.625 2.15625 2.03125 1.8125 C 1.726562 1.644531 1.503906 1.421875 1.359375 1.140625 C 1.222656 0.867188 1.15625 0.554688 1.15625 0.203125 L 1.15625 0 C 1.15625 -0.21875 1.226562 -0.390625 1.375 -0.515625 C 1.519531 -0.648438 1.742188 -0.71875 2.046875 -0.71875 C 2.660156 -0.65625 2.96875 -0.414062 2.96875 0 L 2.96875 0.1875 C 2.96875 0.300781 3.050781 0.425781 3.21875 0.5625 C 3.382812 0.707031 3.671875 0.78125 4.078125 0.78125 L 6.125 0.78125 C 6.53125 0.78125 6.816406 0.664062 6.984375 0.4375 C 7.148438 0.207031 7.234375 -0.046875 7.234375 -0.328125 L 7.234375 -7.234375 C 7.234375 -7.503906 7.148438 -7.75 6.984375 -7.96875 C 6.816406 -8.195312 6.53125 -8.3125 6.125 -8.3125 L 4.078125 -8.3125 C 3.671875 -8.3125 3.382812 -8.195312 3.21875 -7.96875 C 3.050781 -7.75 2.96875 -7.503906 2.96875 -7.234375 L 2.96875 -3.78125 C 2.96875 -3.507812 3.050781 -3.253906 3.21875 -3.015625 C 3.382812 -2.785156 3.671875 -2.671875 4.078125 -2.671875 L 5.78125 -2.671875 C 6.175781 -2.671875 6.375 -2.421875 6.375 -1.921875 C 6.375 -1.691406 6.328125 -1.503906 6.234375 -1.359375 C 6.140625 -1.210938 5.988281 -1.140625 5.78125 -1.140625 Z M 3.796875 -1.140625 "/></g></g></g><g fill="#000000" fill-opacity="1"><g transform="translate(64.593761, 14.597569)"><g><path d="M 3.65625 -1.34375 C 3.65625 -0.96875 3.523438 -0.648438 3.265625 -0.390625 C 3.015625 -0.140625 2.707031 -0.015625 2.34375 -0.015625 C 1.96875 -0.015625 1.65625 -0.140625 1.40625 -0.390625 C 1.15625 -0.648438 1.03125 -0.96875 1.03125 -1.34375 C 1.03125 -1.707031 1.15625 -2.015625 1.40625 -2.265625 C 1.65625 -2.523438 1.96875 -2.65625 2.34375 -2.65625 C 2.707031 -2.65625 3.015625 -2.523438 3.265625 -2.265625 C 3.523438 -2.015625 3.65625 -1.707031 3.65625 -1.34375 Z M 3.65625 -1.34375 "/></g></g></g><g fill="#000000" fill-opacity="1"><g transform="translate(69.243977, 14.597569)"><g><path d="M 3.65625 -1.34375 C 3.65625 -0.96875 3.523438 -0.648438 3.265625 -0.390625 C 3.015625 -0.140625 2.707031 -0.015625 2.34375 -0.015625 C 1.96875 -0.015625 1.65625 -0.140625 1.40625 -0.390625 C 1.15625 -0.648438 1.03125 -0.96875 1.03125 -1.34375 C 1.03125 -1.707031 1.15625 -2.015625 1.40625 -2.265625 C 1.65625 -2.523438 1.96875 -2.65625 2.34375 -2.65625 C 2.707031 -2.65625 3.015625 -2.523438 3.265625 -2.265625 C 3.523438 -2.015625 3.65625 -1.707031 3.65625 -1.34375 Z M 3.65625 -1.34375 "/></g></g></g></g></g></g></svg>