<svg xmlns="http://www.w3.org/2000/svg" xmlns:xlink="http://www.w3.org/1999/xlink" width="300" zoomAndPan="magnify" viewBox="0 0 224.87999 225" height="300" preserveAspectRatio="xMidYMid meet" version="1.0"><defs><clipPath id="670bc868c0"><path d="M 0 0.0585938 L 224.761719 0.0585938 L 224.761719 224.9375 L 0 224.9375 Z M 0 0.0585938 " clip-rule="nonzero"/></clipPath><clipPath id="549760e556"><path d="M 30 5 L 196 5 L 196 224.9375 L 30 224.9375 Z M 30 5 " clip-rule="nonzero"/></clipPath></defs><g clip-path="url(#670bc868c0)"><path fill="#ffffff" d="M 0 0.0585938 L 224.878906 0.0585938 L 224.878906 224.941406 L 0 224.941406 Z M 0 0.0585938 " fill-opacity="1" fill-rule="nonzero"/><path fill="#ffffff" d="M 0 0.0585938 L 224.878906 0.0585938 L 224.878906 224.941406 L 0 224.941406 Z M 0 0.0585938 " fill-opacity="1" fill-rule="nonzero"/></g><path fill="#020066" d="M 119.007812 218.679688 C 117.082031 220.21875 115.082031 221.652344 113 222.976562 C 88.980469 207.960938 22.488281 133.75 33.640625 71.980469 C 37.828125 48.816406 50.027344 33.492188 63.652344 23.386719 C 65.425781 22.078125 67.246094 20.84375 69.117188 19.683594 C 70.988281 18.519531 72.902344 17.433594 74.859375 16.425781 C 76.816406 15.414062 78.8125 14.484375 80.84375 13.632812 C 82.875 12.777344 84.933594 12.007812 87.027344 11.320312 C 89.121094 10.632812 91.234375 10.03125 93.375 9.507812 C 95.515625 8.988281 97.675781 8.554688 99.847656 8.207031 C 102.023438 7.859375 104.207031 7.597656 106.40625 7.421875 C 108.601562 7.246094 110.800781 7.160156 113 7.160156 C 115.203125 7.160156 117.402344 7.246094 119.597656 7.421875 C 121.792969 7.597656 123.980469 7.859375 126.152344 8.207031 C 128.328125 8.554688 130.484375 8.988281 132.625 9.507812 C 134.765625 10.03125 136.882812 10.632812 138.976562 11.320312 C 141.066406 12.007812 143.128906 12.777344 145.160156 13.632812 C 147.191406 14.484375 149.183594 15.414062 151.144531 16.425781 C 153.101562 17.433594 155.011719 18.519531 156.882812 19.683594 C 158.753906 20.84375 160.578125 22.078125 162.351562 23.386719 C 175.972656 33.492188 188.171875 48.816406 192.359375 71.980469 C 202.683594 129.160156 146.46875 197.007812 119.007812 218.679688 Z M 119.007812 218.679688 " fill-opacity="1" fill-rule="nonzero"/><path fill="#020066" d="M 119.007812 218.679688 C 91.546875 197.007812 35.332031 129.160156 45.652344 71.980469 C 49.839844 48.816406 62.039062 33.492188 75.664062 23.386719 C 78.808594 21.0625 82.097656 18.96875 85.535156 17.109375 C 88.976562 15.25 92.527344 13.644531 96.195312 12.289062 C 99.859375 10.9375 103.605469 9.847656 107.425781 9.023438 C 111.25 8.203125 115.109375 7.652344 119.007812 7.378906 C 122.90625 7.652344 126.769531 8.203125 130.589844 9.023438 C 134.410156 9.847656 138.15625 10.9375 141.820312 12.289062 C 145.488281 13.644531 149.042969 15.25 152.480469 17.109375 C 155.917969 18.96875 159.210938 21.0625 162.351562 23.386719 C 175.976562 33.492188 188.175781 48.816406 192.359375 71.980469 C 202.683594 129.160156 146.46875 197.007812 119.007812 218.679688 Z M 119.007812 218.679688 " fill-opacity="1" fill-rule="nonzero"/><path fill="#7f60a9" d="M 175.632812 84.421875 C 175.632812 119.011719 147.59375 147.050781 113 147.050781 C 110.949219 147.050781 108.902344 146.949219 106.863281 146.746094 C 104.820312 146.546875 102.796875 146.246094 100.785156 145.84375 C 98.773438 145.445312 96.785156 144.945312 94.824219 144.351562 C 92.859375 143.753906 90.929688 143.0625 89.035156 142.277344 C 87.140625 141.492188 85.289062 140.617188 83.480469 139.652344 C 81.671875 138.683594 79.914062 137.628906 78.210938 136.492188 C 76.503906 135.351562 74.859375 134.128906 73.273438 132.828125 C 71.6875 131.527344 70.171875 130.152344 68.71875 128.703125 C 67.269531 127.25 65.894531 125.734375 64.59375 124.148438 C 63.289062 122.5625 62.070312 120.917969 60.929688 119.210938 C 59.792969 117.507812 58.738281 115.75 57.769531 113.941406 C 56.804688 112.132812 55.929688 110.28125 55.144531 108.386719 C 54.359375 106.492188 53.667969 104.5625 53.070312 102.597656 C 52.476562 100.636719 51.976562 98.648438 51.578125 96.636719 C 51.175781 94.625 50.875 92.601562 50.675781 90.558594 C 50.472656 88.515625 50.371094 86.472656 50.371094 84.421875 C 50.371094 49.828125 78.410156 21.789062 113 21.789062 C 115.050781 21.789062 117.097656 21.890625 119.140625 22.09375 C 121.179688 22.292969 123.207031 22.59375 125.21875 22.996094 C 127.230469 23.398438 129.21875 23.894531 131.179688 24.492188 C 133.144531 25.085938 135.070312 25.777344 136.964844 26.5625 C 138.863281 27.347656 140.714844 28.222656 142.523438 29.191406 C 144.332031 30.15625 146.089844 31.210938 147.792969 32.351562 C 149.5 33.488281 151.144531 34.710938 152.730469 36.011719 C 154.316406 37.3125 155.832031 38.6875 157.28125 40.136719 C 158.734375 41.589844 160.109375 43.105469 161.410156 44.691406 C 162.710938 46.277344 163.933594 47.921875 165.070312 49.628906 C 166.210938 51.332031 167.265625 53.089844 168.230469 54.898438 C 169.199219 56.707031 170.074219 58.558594 170.859375 60.453125 C 171.644531 62.351562 172.335938 64.277344 172.929688 66.242188 C 173.527344 68.203125 174.023438 70.191406 174.425781 72.203125 C 174.824219 74.214844 175.125 76.242188 175.328125 78.28125 C 175.53125 80.324219 175.628906 82.367188 175.632812 84.421875 Z M 175.632812 84.421875 " fill-opacity="1" fill-rule="nonzero"/><path fill="#937cb8" d="M 175.632812 84.421875 C 175.632812 119.011719 147.59375 147.050781 113 147.050781 C 109.289062 147.054688 105.605469 146.734375 101.949219 146.082031 C 98.292969 145.429688 94.722656 144.457031 91.242188 143.167969 C 87.761719 141.878906 84.421875 140.289062 81.222656 138.402344 C 78.023438 136.515625 75.019531 134.359375 72.207031 131.933594 C 69.78125 129.121094 67.625 126.117188 65.738281 122.917969 C 63.851562 119.71875 62.261719 116.378906 60.972656 112.898438 C 59.683594 109.417969 58.710938 105.847656 58.058594 102.191406 C 57.40625 98.535156 57.082031 94.851562 57.089844 91.136719 C 57.089844 56.554688 85.136719 28.507812 119.71875 28.507812 C 123.433594 28.503906 127.117188 28.824219 130.773438 29.476562 C 134.429688 30.128906 137.996094 31.101562 141.480469 32.390625 C 144.960938 33.679688 148.300781 35.269531 151.5 37.15625 C 154.695312 39.042969 157.703125 41.199219 160.515625 43.625 C 162.9375 46.4375 165.09375 49.441406 166.980469 52.640625 C 168.871094 55.839844 170.457031 59.179688 171.75 62.660156 C 173.039062 66.140625 174.011719 69.710938 174.664062 73.367188 C 175.316406 77.023438 175.636719 80.707031 175.632812 84.421875 Z M 175.632812 84.421875 " fill-opacity="1" fill-rule="nonzero"/><path fill="#f59880" d="M 151.609375 84.421875 C 146.082031 96.78125 113 124.101562 113 124.101562 C 113 124.101562 79.917969 96.78125 74.394531 84.421875 C 66.246094 66.1875 88.121094 40.023438 113 62.113281 C 137.882812 40.023438 159.757812 66.1875 151.609375 84.421875 Z M 151.609375 84.421875 " fill-opacity="1" fill-rule="nonzero"/><g clip-path="url(#549760e556)"><path fill="#2d0d1b" d="M 113.0625 224.902344 C 112.734375 224.902344 112.429688 224.816406 112.148438 224.640625 C 105.667969 220.589844 96.757812 212.746094 87.703125 203.117188 C 76.957031 191.652344 67.304688 179.328125 58.746094 166.148438 C 43.132812 142.046875 25.824219 106.121094 32.003906 71.871094 C 35.734375 51.25 46.054688 34.535156 62.6875 22.199219 C 64.496094 20.863281 66.355469 19.605469 68.265625 18.417969 C 70.175781 17.230469 72.128906 16.121094 74.128906 15.089844 C 76.125 14.058594 78.160156 13.109375 80.234375 12.238281 C 82.308594 11.371094 84.414062 10.582031 86.546875 9.882812 C 88.683594 9.179688 90.84375 8.5625 93.027344 8.03125 C 95.214844 7.5 97.417969 7.058594 99.636719 6.703125 C 101.855469 6.347656 104.085938 6.078125 106.328125 5.902344 C 108.570312 5.722656 110.816406 5.632812 113.0625 5.632812 C 115.3125 5.632812 117.554688 5.722656 119.796875 5.902344 C 122.039062 6.078125 124.269531 6.347656 126.488281 6.703125 C 128.710938 7.058594 130.914062 7.5 133.097656 8.03125 C 135.28125 8.5625 137.441406 9.179688 139.578125 9.882812 C 141.714844 10.582031 143.820312 11.371094 145.890625 12.238281 C 147.964844 13.109375 150 14.058594 152 15.089844 C 153.996094 16.121094 155.949219 17.230469 157.859375 18.417969 C 159.769531 19.605469 161.628906 20.863281 163.441406 22.199219 C 180.070312 34.535156 190.394531 51.25 194.121094 71.871094 C 199.890625 103.835938 184.945312 137.296875 171.390625 159.738281 C 154.316406 188.007812 133.109375 209.996094 120.136719 220.234375 C 118.164062 221.8125 116.109375 223.28125 113.976562 224.640625 C 113.699219 224.816406 113.394531 224.902344 113.0625 224.902344 Z M 113.039062 9.085938 C 108.722656 9.082031 104.429688 9.417969 100.164062 10.101562 C 95.902344 10.78125 91.71875 11.796875 87.617188 13.148438 C 83.511719 14.496094 79.542969 16.164062 75.707031 18.148438 C 71.871094 20.128906 68.21875 22.40625 64.746094 24.972656 C 48.839844 36.769531 38.96875 52.753906 35.402344 72.484375 C 29.421875 105.625 46.371094 140.691406 61.644531 164.273438 C 78.695312 190.601562 100.558594 212.898438 113.0625 221.125 C 114.570312 220.132812 116.222656 218.925781 118 217.523438 C 148.1875 193.699219 200.507812 126.703125 190.722656 72.484375 C 187.15625 52.753906 177.285156 36.769531 161.382812 24.972656 C 158.308594 22.695312 155.085938 20.644531 151.71875 18.828125 C 148.351562 17.007812 144.875 15.433594 141.28125 14.105469 C 137.691406 12.78125 134.027344 11.714844 130.285156 10.910156 C 126.542969 10.105469 122.761719 9.566406 118.945312 9.300781 C 116.972656 9.15625 115.007812 9.085938 113.039062 9.085938 Z M 113.039062 9.085938 " fill-opacity="1" fill-rule="nonzero"/></g><path fill="#2d0d1b" d="M 113.0625 148.976562 C 111.835938 148.976562 110.609375 148.9375 109.378906 148.867188 C 108.152344 148.796875 106.929688 148.691406 105.710938 148.550781 C 104.488281 148.414062 103.273438 148.238281 102.0625 148.027344 C 100.851562 147.816406 99.648438 147.570312 98.453125 147.292969 C 97.253906 147.015625 96.066406 146.699219 94.886719 146.355469 C 93.710938 146.007812 92.542969 145.625 91.386719 145.210938 C 90.226562 144.796875 89.082031 144.351562 87.953125 143.871094 C 86.820312 143.390625 85.703125 142.878906 84.601562 142.335938 C 83.5 141.792969 82.414062 141.21875 81.34375 140.613281 C 80.277344 140.007812 79.226562 139.371094 78.191406 138.707031 C 77.160156 138.039062 76.148438 137.34375 75.15625 136.621094 C 74.160156 135.898438 73.191406 135.144531 72.242188 134.367188 C 71.289062 133.585938 70.363281 132.78125 69.460938 131.945312 C 68.558594 131.113281 67.675781 130.257812 66.824219 129.375 C 65.96875 128.492188 65.140625 127.582031 64.335938 126.652344 C 63.535156 125.722656 62.757812 124.769531 62.011719 123.796875 C 61.265625 122.820312 60.542969 121.824219 59.851562 120.808594 C 59.164062 119.792969 58.5 118.757812 57.871094 117.703125 C 57.238281 116.648438 56.636719 115.578125 56.066406 114.488281 C 55.496094 113.402344 54.957031 112.296875 54.449219 111.179688 C 53.941406 110.058594 53.46875 108.925781 53.027344 107.78125 C 52.585938 106.632812 52.175781 105.476562 51.800781 104.304688 C 51.421875 103.136719 51.082031 101.957031 50.773438 100.765625 C 50.464844 99.578125 50.191406 98.378906 49.953125 97.175781 C 49.710938 95.96875 49.507812 94.757812 49.335938 93.542969 C 49.167969 92.324219 49.03125 91.105469 48.929688 89.878906 C 48.828125 88.65625 48.765625 87.429688 48.734375 86.199219 C 48.703125 84.972656 48.710938 83.742188 48.75 82.515625 C 48.789062 81.285156 48.867188 80.058594 48.976562 78.835938 C 49.085938 77.613281 49.230469 76.394531 49.414062 75.179688 C 49.59375 73.960938 49.808594 72.753906 50.058594 71.550781 C 50.308594 70.347656 50.589844 69.152344 50.910156 67.964844 C 51.226562 66.777344 51.578125 65.601562 51.964844 64.433594 C 52.347656 63.269531 52.769531 62.113281 53.21875 60.96875 C 53.671875 59.828125 54.15625 58.699219 54.671875 57.582031 C 55.1875 56.46875 55.734375 55.367188 56.316406 54.285156 C 56.894531 53.203125 57.503906 52.136719 58.144531 51.085938 C 58.785156 50.039062 59.453125 49.007812 60.152344 48 C 60.851562 46.988281 61.582031 46 62.335938 45.03125 C 63.09375 44.0625 63.875 43.113281 64.6875 42.191406 C 65.496094 41.265625 66.332031 40.367188 67.195312 39.492188 C 68.054688 38.613281 68.941406 37.765625 69.851562 36.941406 C 70.761719 36.113281 71.695312 35.316406 72.652344 34.542969 C 73.609375 33.773438 74.585938 33.027344 75.585938 32.3125 C 76.585938 31.597656 77.601562 30.910156 78.640625 30.253906 C 79.679688 29.597656 80.734375 28.96875 81.808594 28.371094 C 82.882812 27.773438 83.972656 27.210938 85.078125 26.675781 C 86.1875 26.140625 87.308594 25.636719 88.441406 25.167969 C 89.578125 24.699219 90.726562 24.261719 91.886719 23.855469 C 93.046875 23.453125 94.21875 23.082031 95.398438 22.742188 C 96.582031 22.40625 97.769531 22.101562 98.96875 21.832031 C 100.167969 21.566406 101.375 21.328125 102.585938 21.128906 C 103.796875 20.929688 105.015625 20.765625 106.238281 20.632812 C 107.460938 20.503906 108.683594 20.40625 109.910156 20.347656 C 111.136719 20.289062 112.367188 20.261719 113.59375 20.273438 C 114.824219 20.28125 116.050781 20.328125 117.277344 20.410156 C 118.503906 20.488281 119.726562 20.605469 120.945312 20.753906 C 122.164062 20.90625 123.378906 21.089844 124.589844 21.308594 C 125.796875 21.53125 127 21.785156 128.195312 22.074219 C 129.386719 22.363281 130.574219 22.683594 131.75 23.042969 C 132.925781 23.398438 134.089844 23.789062 135.242188 24.210938 C 136.398438 24.636719 137.539062 25.089844 138.664062 25.582031 C 139.792969 26.070312 140.90625 26.589844 142.003906 27.140625 C 143.097656 27.695312 144.179688 28.277344 145.246094 28.894531 C 146.308594 29.507812 147.355469 30.152344 148.382812 30.824219 C 149.410156 31.5 150.414062 32.203125 151.402344 32.933594 C 152.390625 33.667969 153.355469 34.425781 154.296875 35.214844 C 155.242188 36 156.160156 36.816406 157.058594 37.65625 C 157.957031 38.496094 158.828125 39.359375 159.675781 40.25 C 160.523438 41.140625 161.34375 42.054688 162.136719 42.992188 C 162.933594 43.925781 163.699219 44.886719 164.441406 45.867188 C 165.179688 46.847656 165.890625 47.847656 166.574219 48.871094 C 167.257812 49.894531 167.910156 50.933594 168.535156 51.992188 C 169.15625 53.050781 169.75 54.128906 170.308594 55.21875 C 170.871094 56.3125 171.402344 57.421875 171.898438 58.546875 C 172.398438 59.667969 172.863281 60.804688 173.296875 61.957031 C 173.726562 63.105469 174.128906 64.265625 174.492188 65.441406 C 174.859375 66.613281 175.191406 67.796875 175.492188 68.988281 C 175.789062 70.179688 176.054688 71.378906 176.285156 72.585938 C 176.511719 73.792969 176.707031 75.003906 176.867188 76.222656 C 177.03125 77.441406 177.15625 78.664062 177.246094 79.890625 C 177.335938 81.113281 177.390625 82.339844 177.410156 83.570312 C 177.429688 84.796875 177.414062 86.027344 177.367188 87.253906 C 177.316406 88.484375 177.230469 89.707031 177.109375 90.929688 C 176.988281 92.152344 176.832031 93.371094 176.644531 94.585938 C 176.453125 95.800781 176.226562 97.007812 175.96875 98.207031 C 175.710938 99.410156 175.417969 100.601562 175.089844 101.785156 C 174.761719 102.96875 174.398438 104.144531 174.003906 105.308594 C 173.609375 106.472656 173.179688 107.621094 172.71875 108.761719 C 172.257812 109.902344 171.765625 111.027344 171.242188 112.136719 C 170.714844 113.246094 170.160156 114.34375 169.570312 115.421875 C 168.984375 116.5 168.363281 117.5625 167.714844 118.605469 C 167.066406 119.648438 166.386719 120.671875 165.679688 121.675781 C 164.972656 122.683594 164.238281 123.664062 163.472656 124.628906 C 162.710938 125.589844 161.917969 126.53125 161.101562 127.449219 C 160.285156 128.363281 159.441406 129.257812 158.570312 130.125 C 155.585938 133.117188 152.335938 135.785156 148.820312 138.132812 C 145.308594 140.480469 141.597656 142.464844 137.695312 144.082031 C 133.789062 145.699219 129.765625 146.917969 125.621094 147.742188 C 121.476562 148.566406 117.289062 148.976562 113.0625 148.976562 Z M 113.0625 23.714844 C 79.484375 23.714844 52.160156 51.039062 52.160156 84.621094 C 52.160156 86.613281 52.257812 88.605469 52.457031 90.589844 C 52.652344 92.574219 52.945312 94.542969 53.332031 96.5 C 53.722656 98.457031 54.207031 100.390625 54.785156 102.296875 C 55.367188 104.207031 56.035156 106.082031 56.800781 107.925781 C 57.5625 109.765625 58.414062 111.566406 59.355469 113.328125 C 60.296875 115.085938 61.320312 116.792969 62.429688 118.453125 C 63.539062 120.109375 64.722656 121.710938 65.988281 123.253906 C 67.253906 124.792969 68.59375 126.269531 70.003906 127.679688 C 71.414062 129.089844 72.890625 130.429688 74.429688 131.695312 C 75.972656 132.960938 77.574219 134.148438 79.230469 135.253906 C 80.890625 136.363281 82.597656 137.386719 84.355469 138.328125 C 86.117188 139.269531 87.917969 140.121094 89.757812 140.882812 C 91.601562 141.648438 93.476562 142.320312 95.386719 142.898438 C 97.292969 143.476562 99.226562 143.960938 101.183594 144.351562 C 103.140625 144.742188 105.109375 145.03125 107.09375 145.230469 C 109.078125 145.425781 111.070312 145.523438 113.0625 145.523438 C 146.644531 145.523438 173.96875 118.203125 173.96875 84.621094 C 173.96875 82.625 173.867188 80.636719 173.671875 78.652344 C 173.476562 76.664062 173.183594 74.695312 172.792969 72.738281 C 172.40625 70.78125 171.921875 68.851562 171.339844 66.941406 C 170.761719 65.035156 170.089844 63.15625 169.328125 61.316406 C 168.5625 59.472656 167.710938 57.671875 166.773438 55.914062 C 165.832031 54.152344 164.808594 52.445312 163.699219 50.789062 C 162.589844 49.128906 161.402344 47.527344 160.136719 45.988281 C 158.875 44.445312 157.535156 42.96875 156.125 41.558594 C 154.714844 40.148438 153.238281 38.8125 151.695312 37.546875 C 150.15625 36.28125 148.554688 35.09375 146.898438 33.984375 C 145.238281 32.875 143.53125 31.851562 141.769531 30.910156 C 140.011719 29.972656 138.210938 29.121094 136.367188 28.355469 C 134.527344 27.59375 132.648438 26.921875 130.742188 26.34375 C 128.832031 25.761719 126.902344 25.277344 124.945312 24.890625 C 122.988281 24.5 121.019531 24.207031 119.03125 24.011719 C 117.046875 23.816406 115.058594 23.71875 113.0625 23.714844 Z M 113.0625 23.714844 " fill-opacity="1" fill-rule="nonzero"/><path fill="#2d0d1b" d="M 113.0625 126.023438 C 112.648438 126.023438 112.285156 125.894531 111.964844 125.628906 C 110.601562 124.503906 78.507812 97.910156 72.878906 85.324219 C 68.480469 75.480469 72.007812 63.042969 81.085938 56.390625 C 83.238281 54.792969 85.605469 53.636719 88.191406 52.921875 C 90.773438 52.203125 93.398438 51.976562 96.066406 52.238281 C 101.785156 52.765625 107.496094 55.386719 113.0625 60.035156 C 118.632812 55.386719 124.34375 52.765625 130.0625 52.238281 C 132.730469 51.976562 135.355469 52.203125 137.9375 52.921875 C 140.519531 53.636719 142.886719 54.792969 145.042969 56.390625 C 154.117188 63.042969 157.644531 75.484375 153.246094 85.324219 C 147.621094 97.910156 115.527344 124.503906 114.164062 125.628906 C 113.84375 125.894531 113.476562 126.023438 113.0625 126.023438 Z M 93.9375 55.550781 C 90.097656 55.550781 86.4375 56.75 83.128906 59.175781 C 75.332031 64.890625 72.28125 75.527344 76.03125 83.914062 C 80.773438 94.527344 107.308594 117.207031 113.0625 122.050781 C 118.820312 117.207031 145.355469 94.523438 150.09375 83.917969 C 153.84375 75.527344 150.796875 64.890625 143 59.175781 C 134.714844 53.101562 124.21875 54.71875 114.210938 63.605469 C 114.050781 63.746094 113.875 63.855469 113.675781 63.929688 C 113.480469 64.003906 113.273438 64.042969 113.0625 64.042969 C 112.851562 64.042969 112.648438 64.003906 112.449219 63.929688 C 112.253906 63.855469 112.074219 63.746094 111.917969 63.605469 C 105.90625 58.265625 99.71875 55.550781 93.9375 55.550781 Z M 93.9375 55.550781 " fill-opacity="1" fill-rule="nonzero"/></svg>