<svg xmlns="http://www.w3.org/2000/svg" xmlns:xlink="http://www.w3.org/1999/xlink" width="300" zoomAndPan="magnify" viewBox="0 0 224.87999 225" height="300" preserveAspectRatio="xMidYMid meet" version="1.0"><defs><clipPath id="fa2258c26b"><path d="M 0 0.0585938 L 224.761719 0.0585938 L 224.761719 224.9375 L 0 224.9375 Z M 0 0.0585938 " clip-rule="nonzero"/></clipPath><clipPath id="26c889936c"><path d="M 115 0.0585938 L 157 0.0585938 L 157 17 L 115 17 Z M 115 0.0585938 " clip-rule="nonzero"/></clipPath><clipPath id="9d8fab0cae"><path d="M 24.457031 116 L 112 116 L 112 224 L 24.457031 224 Z M 24.457031 116 " clip-rule="nonzero"/></clipPath><clipPath id="1560c55835"><path d="M 100 207 L 131 207 L 131 224.9375 L 100 224.9375 Z M 100 207 " clip-rule="nonzero"/></clipPath><clipPath id="6a0122e0be"><path d="M 41.011719 143 L 46 143 L 46 147 L 41.011719 147 Z M 41.011719 143 " clip-rule="nonzero"/></clipPath><clipPath id="e2b07ba0b0"><path d="M 41.117188 142.355469 L 41.117188 147.453125 L 46.085938 147.453125 L 46.085938 142.355469 Z M 45.4375 145.902344 C 45.253906 146.257812 44.964844 146.550781 44.605469 146.75 L 44.511719 146.789062 C 44.320312 146.839844 44.113281 146.894531 43.914062 146.894531 C 44.097656 146.707031 44.21875 146.457031 44.230469 146.191406 C 44.230469 146.164062 44.230469 146.136719 44.226562 146.109375 C 44.21875 145.84375 44.097656 145.601562 43.921875 145.417969 C 43.996094 145.367188 44.0625 145.304688 44.109375 145.21875 C 44.21875 145.007812 44.132812 144.789062 44.074219 144.675781 L 44.085938 144.605469 C 44.367188 144.683594 44.640625 144.773438 44.90625 144.894531 C 45.15625 145.003906 45.402344 145.136719 45.632812 145.285156 C 45.601562 145.5 45.539062 145.707031 45.4375 145.902344 Z M 45.4375 145.902344 " clip-rule="nonzero"/></clipPath></defs><g clip-path="url(#fa2258c26b)"><path fill="#ffffff" d="M 0 0.0585938 L 224.878906 0.0585938 L 224.878906 224.941406 L 0 224.941406 Z M 0 0.0585938 " fill-opacity="1" fill-rule="nonzero"/><path fill="#ffffff" d="M 0 0.0585938 L 224.878906 0.0585938 L 224.878906 224.941406 L 0 224.941406 Z M 0 0.0585938 " fill-opacity="1" fill-rule="nonzero"/></g><path fill="#42242c" d="M 124.738281 4.5625 C 124.269531 13.882812 123.328125 27.972656 122.816406 37.421875 C 122.816406 37.421875 116.839844 37.269531 116.839844 37.269531 C 116.820312 31.710938 117.015625 26.15625 117.328125 20.609375 C 117.636719 15.050781 118.070312 9.542969 118.785156 4.007812 C 118.785156 4.007812 124.738281 4.5625 124.738281 4.5625 Z M 124.738281 4.5625 " fill-opacity="1" fill-rule="nonzero"/><path fill="#42242c" d="M 153.574219 7.867188 C 154.367188 14.746094 154.453125 21.605469 154.101562 28.507812 C 153.984375 30.804688 153.765625 33.109375 153.46875 35.40625 L 147.511719 34.933594 C 147.582031 30.984375 147.664062 25.507812 147.644531 21.617188 C 147.636719 17.707031 147.574219 12.089844 147.609375 8.25 C 147.609375 8.25 153.574219 7.867188 153.574219 7.867188 Z M 153.574219 7.867188 " fill-opacity="1" fill-rule="nonzero"/><g clip-path="url(#26c889936c)"><path fill="#ffbe40" d="M 155.855469 16.171875 C 153.988281 15.960938 151.9375 15.824219 149.722656 15.8125 C 148.246094 15.804688 146.84375 15.855469 145.523438 15.945312 C 145.582031 13.9375 145.640625 11.933594 145.699219 9.929688 C 143.9375 9.691406 142.113281 9.488281 140.234375 9.324219 C 135.242188 8.886719 130.554688 8.796875 126.242188 8.933594 C 126.109375 10.816406 125.976562 12.699219 125.839844 14.582031 C 124.332031 14.546875 122.777344 14.488281 121.179688 14.402344 C 119.417969 14.304688 117.707031 14.175781 116.054688 14.023438 C 115.878906 12.136719 115.761719 9.304688 116.195312 5.882812 C 116.394531 4.339844 116.492188 3.570312 116.71875 3.128906 C 118.289062 0.0859375 124.222656 0.671875 137.058594 1.394531 C 149.296875 2.082031 154.640625 2.15625 155.871094 5.191406 C 156.25 6.121094 156.222656 7.761719 156.175781 11.046875 C 156.140625 13.21875 155.984375 14.996094 155.855469 16.171875 Z M 155.855469 16.171875 " fill-opacity="1" fill-rule="nonzero"/></g><path fill="#42242c" d="M 172.011719 205.222656 C 173.253906 210.519531 169.105469 215.667969 164.183594 216.257812 C 160.855469 216.660156 157.371094 214.953125 155.75 212.113281 C 152.992188 207.277344 155.914062 199.640625 161.605469 198.441406 C 165.890625 197.542969 170.898438 200.464844 172.011719 205.222656 Z M 172.011719 205.222656 " fill-opacity="1" fill-rule="nonzero"/><path fill="#f5e8dd" d="M 166.628906 209.433594 C 165.308594 211.371094 162.464844 211.5625 160.839844 210.175781 C 159.742188 209.238281 159.269531 207.640625 159.695312 206.296875 C 160.425781 204.011719 163.699219 202.710938 165.742188 204.160156 C 167.277344 205.253906 167.8125 207.691406 166.628906 209.433594 Z M 166.628906 209.433594 " fill-opacity="1" fill-rule="nonzero"/><path fill="#ffbe40" d="M 197.898438 126.832031 C 195.648438 191.214844 190.636719 199.402344 183.894531 204.234375 C 179.261719 207.554688 174.96875 208.457031 116.484375 205.039062 C 83.578125 203.117188 79.796875 202.53125 75.210938 198.890625 C 65.617188 191.265625 63.332031 178.855469 65.539062 121.652344 C 68.445312 46.199219 73.65625 35.632812 82.621094 29.660156 C 89.476562 25.089844 102.488281 25.453125 128.511719 26.183594 C 162.441406 27.136719 179.40625 27.613281 187.734375 34.398438 C 194.042969 39.539062 200.617188 49.003906 197.898438 126.832031 Z M 197.898438 126.832031 " fill-opacity="1" fill-rule="nonzero"/><path fill="#42242c" d="M 174.789062 197.121094 C 174.785156 197.121094 174.777344 197.121094 174.769531 197.121094 C 174.59375 197.109375 174.460938 196.957031 174.472656 196.78125 C 177.664062 146.960938 178.296875 45.339844 178.304688 44.316406 C 178.304688 44.140625 178.449219 44 178.625 44 C 178.804688 44 178.945312 44.144531 178.945312 44.320312 C 178.9375 45.34375 178.304688 146.984375 175.109375 196.824219 C 175.097656 196.992188 174.957031 197.121094 174.789062 197.121094 Z M 174.789062 197.121094 " fill-opacity="1" fill-rule="nonzero"/><path fill="#42242c" d="M 153.851562 195.664062 C 153.679688 195.664062 153.539062 195.527344 153.53125 195.355469 C 152.261719 164.511719 157.519531 45.476562 157.574219 44.277344 C 157.578125 44.101562 157.734375 43.957031 157.90625 43.972656 C 158.082031 43.980469 158.21875 44.128906 158.210938 44.304688 C 158.160156 45.503906 152.902344 164.511719 154.171875 195.332031 C 154.179688 195.507812 154.039062 195.65625 153.863281 195.664062 C 153.859375 195.664062 153.855469 195.664062 153.851562 195.664062 Z M 153.851562 195.664062 " fill-opacity="1" fill-rule="nonzero"/><path fill="#42242c" d="M 130.425781 193.632812 C 130.269531 193.632812 130.132812 193.519531 130.109375 193.359375 C 127.21875 172.164062 133.519531 46.914062 133.582031 45.652344 C 133.59375 45.476562 133.75 45.339844 133.917969 45.351562 C 134.097656 45.359375 134.230469 45.507812 134.222656 45.6875 C 134.160156 46.949219 127.859375 172.136719 130.742188 193.269531 C 130.765625 193.445312 130.644531 193.609375 130.46875 193.632812 C 130.453125 193.632812 130.441406 193.632812 130.425781 193.632812 Z M 130.425781 193.632812 " fill-opacity="1" fill-rule="nonzero"/><path fill="#42242c" d="M 108.269531 55.871094 C 108.261719 55.871094 108.253906 55.871094 108.25 55.871094 C 108.070312 55.859375 107.9375 55.707031 107.949219 55.53125 C 108.355469 49.378906 108.632812 45.53125 108.636719 45.492188 C 108.648438 45.316406 108.804688 45.179688 108.980469 45.195312 C 109.15625 45.207031 109.289062 45.363281 109.273438 45.539062 C 109.273438 45.578125 108.996094 49.425781 108.589844 55.570312 C 108.578125 55.742188 108.4375 55.871094 108.269531 55.871094 Z M 108.269531 55.871094 " fill-opacity="1" fill-rule="nonzero"/><path fill="#42242c" d="M 103.613281 169.710938 C 103.609375 169.710938 103.609375 169.710938 103.609375 169.710938 C 103.429688 169.710938 103.289062 169.5625 103.292969 169.386719 C 103.664062 143.402344 104.527344 117.070312 105.851562 91.121094 C 106.214844 84.015625 106.617188 76.839844 107.046875 69.792969 C 107.058594 69.617188 107.210938 69.480469 107.386719 69.496094 C 107.5625 69.503906 107.695312 69.65625 107.6875 69.832031 C 107.253906 76.878906 106.851562 84.050781 106.492188 91.152344 C 105.167969 117.09375 104.304688 143.417969 103.933594 169.394531 C 103.929688 169.570312 103.785156 169.710938 103.613281 169.710938 Z M 103.613281 169.710938 " fill-opacity="1" fill-rule="nonzero"/><path fill="#42242c" d="M 79.757812 140.625 C 79.75 140.625 79.738281 140.625 79.730469 140.621094 C 79.554688 140.605469 79.421875 140.449219 79.441406 140.273438 C 81.453125 118.074219 83.320312 95.542969 84.988281 73.296875 C 85.703125 63.773438 86.398438 54.132812 87.046875 44.648438 C 87.058594 44.472656 87.21875 44.339844 87.386719 44.351562 C 87.5625 44.363281 87.695312 44.515625 87.683594 44.691406 C 87.035156 54.179688 86.34375 63.820312 85.628906 73.34375 C 83.957031 95.59375 82.089844 118.128906 80.078125 140.332031 C 80.0625 140.5 79.921875 140.625 79.757812 140.625 Z M 79.757812 140.625 " fill-opacity="1" fill-rule="nonzero"/><path fill="#42242c" d="M 148.730469 14.585938 C 148.722656 14.585938 148.714844 14.585938 148.707031 14.582031 C 148.53125 14.570312 148.398438 14.414062 148.414062 14.238281 C 148.472656 13.496094 148.496094 12.742188 148.480469 12 C 148.472656 11.394531 148.4375 9.566406 148.214844 8.898438 C 147.652344 7.234375 143.589844 7.054688 137.441406 6.785156 L 134.839844 6.667969 C 128.160156 6.363281 123.746094 6.160156 123.050781 7.824219 C 122.839844 8.320312 122.757812 9.378906 122.667969 10.5 C 122.597656 11.402344 122.582031 12.316406 122.621094 13.21875 C 122.628906 13.394531 122.492188 13.542969 122.3125 13.550781 C 122.152344 13.558594 121.988281 13.421875 121.980469 13.246094 C 121.941406 12.316406 121.957031 11.375 122.03125 10.449219 C 122.128906 9.226562 122.210938 8.167969 122.457031 7.578125 C 123.328125 5.5 127.425781 5.6875 134.867188 6.03125 L 137.46875 6.148438 C 144.113281 6.4375 148.121094 6.613281 148.820312 8.695312 C 149.046875 9.371094 149.101562 10.808594 149.121094 11.984375 C 149.136719 12.753906 149.113281 13.527344 149.050781 14.289062 C 149.039062 14.457031 148.898438 14.585938 148.730469 14.585938 Z M 148.730469 14.585938 " fill-opacity="1" fill-rule="nonzero"/><path fill="#42242c" d="M 137.914062 4.132812 C 137.234375 4.132812 136.496094 4.078125 135.769531 4.023438 C 134 3.890625 132.328125 3.761719 131.941406 2.699219 C 131.832031 2.394531 131.839844 2.054688 131.972656 1.679688 C 132.03125 1.515625 132.214844 1.425781 132.382812 1.484375 C 132.546875 1.542969 132.636719 1.726562 132.578125 1.894531 C 132.496094 2.121094 132.484375 2.320312 132.542969 2.480469 C 132.789062 3.15625 134.328125 3.273438 135.816406 3.382812 C 137.554688 3.515625 139.71875 3.675781 140.136719 2.835938 C 140.210938 2.6875 140.234375 2.5 140.203125 2.289062 C 140.175781 2.113281 140.296875 1.953125 140.472656 1.925781 C 140.648438 1.902344 140.808594 2.023438 140.835938 2.199219 C 140.886719 2.542969 140.84375 2.851562 140.710938 3.121094 C 140.308594 3.925781 139.21875 4.132812 137.914062 4.132812 Z M 137.914062 4.132812 " fill-opacity="1" fill-rule="nonzero"/><path fill="#f5e8dd" d="M 180.824219 110.066406 C 177.859375 120.871094 174.894531 131.671875 171.933594 142.476562 C 166.4375 141.234375 160.691406 139.785156 154.730469 138.085938 C 149.078125 136.472656 143.703125 134.773438 138.621094 133.027344 C 140.050781 128.523438 141.472656 123.972656 142.878906 119.382812 C 144.773438 113.207031 146.609375 107.078125 148.386719 101.007812 C 154.980469 102.78125 161.621094 104.609375 168.3125 106.492188 C 172.511719 107.675781 176.679688 108.867188 180.824219 110.066406 Z M 180.824219 110.066406 " fill-opacity="1" fill-rule="nonzero"/><path fill="#6bc0ad" d="M 177.179688 112.082031 C 175.382812 118.628906 173.585938 125.175781 171.792969 131.726562 C 171.789062 131.726562 171.789062 131.726562 171.789062 131.726562 C 171.136719 134.113281 170.480469 136.503906 169.824219 138.894531 C 165.273438 137.867188 160.523438 136.664062 155.59375 135.261719 C 150.914062 133.925781 146.472656 132.519531 142.265625 131.078125 C 143.027344 128.664062 143.789062 126.242188 144.550781 123.804688 C 144.960938 122.472656 145.375 121.132812 145.789062 119.789062 C 147.355469 114.675781 148.871094 109.609375 150.34375 104.585938 C 155.796875 106.054688 161.292969 107.566406 166.828125 109.125 C 170.300781 110.101562 173.75 111.085938 177.179688 112.082031 Z M 177.179688 112.082031 " fill-opacity="1" fill-rule="nonzero"/><path fill="#ffbe40" d="M 171.789062 131.726562 C 171.136719 134.113281 170.480469 136.503906 169.824219 138.894531 C 165.273438 137.867188 160.523438 136.664062 155.59375 135.261719 C 150.914062 133.925781 146.472656 132.519531 142.265625 131.078125 C 143.027344 128.664062 143.789062 126.242188 144.550781 123.804688 C 149.296875 124.910156 164.859375 128.660156 171.789062 131.726562 Z M 171.789062 131.726562 " fill-opacity="1" fill-rule="nonzero"/><path fill="#994445" d="M 161.882812 119.609375 C 162.554688 122.691406 163.113281 127.371094 162.105469 133.433594 C 161.597656 133.347656 161.078125 133.246094 160.542969 133.125 C 158.921875 132.765625 157.453125 132.304688 156.148438 131.808594 C 156.765625 129.894531 157.601562 127.007812 158.246094 123.421875 C 159.203125 118.085938 159.144531 114.519531 159.871094 114.453125 C 160.722656 114.375 161.796875 119.222656 161.882812 119.609375 Z M 161.882812 119.609375 " fill-opacity="1" fill-rule="nonzero"/><path fill="#25796d" d="M 168.324219 120.347656 C 167.84375 121.167969 165.417969 120.53125 164.972656 120.414062 C 163.835938 120.113281 161.859375 119.363281 159.851562 117.199219 C 159.695312 117.988281 159.382812 119.140625 158.722656 120.398438 C 158.5 120.820312 157.269531 123.167969 156.558594 122.964844 C 155.980469 122.800781 155.996094 121.027344 156.070312 120.207031 C 156.207031 118.699219 156.789062 117.539062 157.222656 116.84375 C 154.535156 118.839844 151.929688 120.488281 151.285156 119.878906 C 150.867188 119.484375 151.40625 118.296875 151.554688 117.988281 C 152.652344 115.726562 155.367188 115.097656 156.070312 114.953125 C 151.371094 114.425781 150.714844 113.753906 150.6875 113.367188 C 150.613281 112.425781 154.03125 110.675781 156.851562 111.707031 C 158.152344 112.183594 158.949219 113.113281 159.335938 113.640625 C 159.882812 113.113281 161.875 111.3125 164.671875 111.425781 C 166.535156 111.496094 168.753906 112.417969 168.730469 113.285156 C 168.71875 113.785156 167.957031 114.636719 162.867188 115.546875 C 164.082031 115.792969 165.785156 116.371094 167.109375 117.8125 C 167.34375 118.0625 168.757812 119.601562 168.324219 120.347656 Z M 168.324219 120.347656 " fill-opacity="1" fill-rule="nonzero"/><path fill="#f5e8dd" d="M 168.492188 67.925781 C 168.957031 70.945312 169.429688 73.976562 169.90625 77.011719 C 170.609375 81.484375 171.324219 85.9375 172.042969 90.375 C 162.859375 91.902344 153.59375 93.398438 144.242188 94.859375 C 135.671875 96.199219 127.164062 97.492188 118.710938 98.734375 C 118.128906 95.890625 117.589844 92.914062 117.113281 89.820312 C 116.371094 85.019531 115.859375 80.441406 115.523438 76.121094 C 124.859375 74.152344 134.757812 72.34375 145.183594 70.804688 C 153.226562 69.613281 161.003906 68.667969 168.492188 67.925781 Z M 168.492188 67.925781 " fill-opacity="1" fill-rule="nonzero"/><path fill="#d7bdb0" d="M 135.332031 75.71875 C 135.996094 78.34375 136.609375 81.207031 137.125 84.285156 C 137.632812 87.355469 137.976562 90.253906 138.203125 92.945312 C 134.644531 93.503906 131.035156 94.109375 127.375 94.765625 C 125.25 95.144531 123.148438 95.535156 121.066406 95.9375 C 120.625 93.683594 120.203125 91.386719 119.800781 89.039062 C 119.191406 85.472656 118.660156 81.984375 118.203125 78.589844 C 120.242188 78.035156 122.429688 77.519531 124.761719 77.074219 C 128.566406 76.347656 132.113281 75.933594 135.332031 75.71875 Z M 135.332031 75.71875 " fill-opacity="1" fill-rule="nonzero"/><path fill="#42242c" d="M 142.226562 82.796875 C 142.054688 82.816406 142.046875 82.585938 142.027344 82.421875 C 142.011719 82.3125 141.949219 81.921875 141.976562 81.816406 C 141.992188 81.773438 142.027344 81.726562 142.074219 81.699219 C 142.09375 81.6875 142.203125 81.675781 142.226562 81.679688 C 142.640625 81.636719 143.042969 81.585938 143.441406 81.511719 C 143.59375 81.484375 143.742188 81.453125 143.882812 81.414062 C 144.175781 81.316406 144.398438 81.0625 144.289062 80.777344 C 144.214844 80.582031 144.019531 80.433594 143.832031 80.328125 C 143.417969 80.074219 142.960938 79.917969 142.527344 79.675781 C 142.242188 79.53125 141.960938 79.34375 141.753906 79.082031 C 141.363281 78.601562 141.179688 77.910156 141.296875 77.289062 C 141.339844 77.070312 141.414062 76.855469 141.53125 76.664062 C 141.996094 75.910156 142.867188 75.449219 143.777344 75.496094 C 144.085938 75.503906 144.40625 75.605469 144.652344 75.78125 C 144.890625 75.953125 145.085938 76.191406 145.222656 76.441406 C 145.410156 76.804688 145.515625 77.210938 145.589844 77.613281 C 145.617188 77.761719 145.679688 78.007812 145.535156 78.078125 C 145.410156 78.136719 144.753906 78.210938 144.613281 78.238281 C 144.574219 78.253906 144.523438 78.261719 144.480469 78.238281 C 144.4375 78.222656 144.410156 78.152344 144.402344 78.101562 C 144.351562 77.785156 144.257812 77.457031 144.070312 77.195312 C 143.96875 77.042969 143.808594 76.910156 143.632812 76.84375 C 143.4375 76.753906 143.191406 76.757812 143 76.863281 C 142.425781 77.171875 142.449219 77.96875 142.9375 78.40625 C 143.328125 78.753906 143.835938 78.953125 144.316406 79.167969 C 144.828125 79.398438 145.261719 79.824219 145.578125 80.285156 C 146.042969 80.941406 145.96875 81.871094 145.257812 82.238281 C 145.027344 82.359375 144.773438 82.433594 144.515625 82.5 C 143.765625 82.65625 142.992188 82.695312 142.226562 82.796875 Z M 142.226562 82.796875 " fill-opacity="1" fill-rule="nonzero"/><path fill="#42242c" d="M 147.128906 82.066406 C 147.058594 82.074219 146.980469 82.085938 146.925781 82.054688 C 146.878906 82.019531 146.871094 81.957031 146.863281 81.90625 C 146.824219 81.617188 146.722656 79.960938 146.714844 79.664062 C 146.707031 79.125 146.671875 75.9375 146.679688 75.394531 C 146.6875 75.199219 146.722656 75.007812 146.71875 74.816406 C 146.714844 74.785156 146.710938 74.753906 146.71875 74.734375 C 146.734375 74.699219 146.78125 74.671875 146.824219 74.667969 C 147.445312 74.578125 148.0625 74.445312 148.695312 74.425781 C 149.125 74.410156 149.558594 74.445312 149.964844 74.585938 C 150.308594 74.695312 150.644531 74.898438 150.882812 75.175781 C 151.230469 75.570312 151.425781 76.105469 151.472656 76.632812 C 151.515625 77.117188 151.429688 77.628906 151.207031 78.058594 C 150.972656 78.519531 150.523438 78.875 150.058594 79.078125 C 149.519531 79.320312 148.894531 79.421875 148.308594 79.398438 C 148.277344 80.167969 148.285156 80.953125 148.355469 81.722656 C 148.359375 81.816406 148.34375 81.941406 148.253906 81.953125 C 147.882812 82.011719 147.503906 82.027344 147.128906 82.066406 Z M 149.640625 77.832031 C 149.796875 77.761719 149.921875 77.613281 149.992188 77.460938 C 150.179688 77.078125 150.246094 76.402344 149.929688 76.117188 C 149.710938 75.910156 149.367188 75.882812 149.066406 75.851562 C 148.828125 75.820312 148.585938 75.863281 148.34375 75.882812 C 148.304688 76.613281 148.289062 77.34375 148.269531 78.082031 C 148.742188 78.070312 149.226562 78.039062 149.640625 77.832031 Z M 149.640625 77.832031 " fill-opacity="1" fill-rule="nonzero"/><path fill="#42242c" d="M 155.589844 80.96875 C 155.464844 80.542969 155.347656 80.128906 155.222656 79.707031 C 154.660156 79.800781 154.09375 79.84375 153.542969 79.933594 C 153.523438 80.039062 153.429688 80.574219 153.433594 80.675781 C 153.445312 80.765625 153.414062 80.863281 153.324219 80.875 C 152.910156 80.917969 152.503906 81.011719 152.085938 81.023438 C 152.035156 81.03125 151.972656 81.027344 151.9375 80.992188 C 151.890625 80.957031 151.890625 80.875 151.902344 80.8125 C 152.1875 78.523438 152.566406 76.234375 153.199219 74.015625 C 153.222656 73.9375 153.285156 73.816406 153.359375 73.820312 C 153.714844 73.792969 154.066406 73.738281 154.414062 73.671875 C 154.503906 73.648438 154.734375 73.589844 154.8125 73.640625 C 154.945312 73.746094 155.027344 74.296875 155.074219 74.476562 C 155.667969 76.597656 156.234375 78.746094 157.121094 80.769531 C 157.179688 80.914062 157.003906 80.96875 156.84375 80.988281 C 156.621094 81.019531 156.378906 81.039062 156.160156 81.078125 C 155.949219 81.125 155.65625 81.164062 155.589844 80.96875 Z M 153.679688 78.8125 C 153.84375 78.789062 154.75 78.671875 154.910156 78.652344 C 154.644531 77.796875 154.390625 76.929688 154.132812 76.070312 C 153.976562 76.984375 153.808594 77.894531 153.679688 78.8125 Z M 153.679688 78.8125 " fill-opacity="1" fill-rule="nonzero"/><path fill="#42242c" d="M 157.910156 80.695312 C 157.898438 80.679688 157.878906 80.609375 157.875 80.589844 C 157.84375 80.410156 157.683594 79.34375 157.660156 79.164062 C 157.515625 78.222656 157.375 77.277344 157.238281 76.332031 C 157.1875 76.023438 156.945312 74.386719 156.945312 74.078125 C 156.90625 74.011719 156.9375 73.925781 157.015625 73.917969 C 157.117188 73.902344 157.75 73.8125 157.863281 73.796875 C 157.890625 73.792969 158.023438 73.785156 158.054688 73.792969 C 158.195312 73.773438 158.183594 73.988281 158.210938 74.128906 C 158.253906 74.371094 158.394531 75.753906 158.421875 75.984375 C 158.464844 76.390625 158.789062 78.800781 158.84375 79.203125 C 158.90625 79.605469 158.988281 80.003906 159.050781 80.40625 C 159.058594 80.476562 159.011719 80.585938 158.941406 80.59375 C 158.800781 80.613281 158.195312 80.679688 158.070312 80.746094 C 158.023438 80.773438 157.9375 80.746094 157.910156 80.695312 Z M 157.910156 80.695312 " fill-opacity="1" fill-rule="nonzero"/><path fill="#42242c" d="M 161.433594 80.453125 C 161.238281 80.449219 161.046875 80.484375 160.847656 80.511719 C 160.664062 80.542969 160.441406 80.632812 160.417969 80.453125 C 160.402344 80.34375 160.371094 80.234375 160.347656 80.136719 C 160.179688 79.417969 160.035156 78.703125 159.902344 77.984375 C 159.796875 77.402344 159.246094 73.976562 159.167969 73.382812 C 159.152344 73.242188 159.351562 73.214844 159.503906 73.183594 C 159.683594 73.160156 160.648438 73.085938 160.832031 73.082031 C 160.914062 73.082031 160.996094 73.09375 161.0625 73.136719 C 161.140625 73.1875 161.292969 73.492188 161.34375 73.570312 C 162.15625 74.835938 162.902344 76.148438 163.613281 77.46875 C 163.484375 76.164062 163.4375 74.84375 163.378906 73.53125 C 163.378906 73.449219 163.355469 73.03125 163.34375 72.953125 C 163.339844 72.921875 163.324219 72.890625 163.34375 72.859375 C 163.371094 72.761719 163.601562 72.714844 163.710938 72.6875 C 163.988281 72.632812 164.28125 72.59375 164.566406 72.589844 C 164.660156 72.585938 164.746094 72.625 164.757812 72.714844 C 164.785156 73.386719 164.976562 77.394531 165.023438 78.0625 C 165.054688 78.378906 165.191406 79.261719 165.007812 79.507812 C 164.960938 79.554688 164.90625 79.59375 164.84375 79.601562 C 164.511719 79.632812 164.179688 79.667969 163.847656 79.730469 C 163.75 79.753906 163.613281 79.742188 163.550781 79.65625 C 163.066406 78.984375 162.585938 78.289062 162.152344 77.578125 C 161.703125 76.859375 161.324219 76.089844 160.816406 75.40625 C 161.140625 77.035156 161.464844 78.660156 161.789062 80.285156 C 161.820312 80.445312 161.597656 80.453125 161.433594 80.453125 Z M 161.433594 80.453125 " fill-opacity="1" fill-rule="nonzero"/><path fill="#42242c" d="M 142.820312 87.78125 C 142.679688 87.78125 142.554688 87.691406 142.511719 87.550781 C 142.460938 87.382812 142.558594 87.203125 142.726562 87.15625 C 142.757812 87.144531 143.46875 86.933594 144.863281 86.660156 C 145.039062 86.625 145.207031 86.742188 145.242188 86.914062 C 145.273438 87.085938 145.160156 87.253906 144.988281 87.289062 C 143.625 87.554688 142.917969 87.765625 142.910156 87.765625 C 142.878906 87.777344 142.847656 87.78125 142.820312 87.78125 Z M 142.820312 87.78125 " fill-opacity="1" fill-rule="nonzero"/><path fill="#42242c" d="M 147.328125 86.886719 C 147.171875 86.886719 147.035156 86.773438 147.011719 86.613281 C 146.984375 86.441406 147.105469 86.277344 147.28125 86.25 C 148.996094 86 150.847656 85.804688 152.78125 85.671875 C 152.953125 85.660156 153.109375 85.792969 153.121094 85.96875 C 153.136719 86.148438 153 86.300781 152.824219 86.3125 C 150.90625 86.441406 149.070312 86.636719 147.375 86.882812 C 147.359375 86.886719 147.34375 86.886719 147.328125 86.886719 Z M 147.328125 86.886719 " fill-opacity="1" fill-rule="nonzero"/><path fill="#42242c" d="M 143.554688 90.722656 L 143.445312 90.09375 C 143.445312 90.09375 150.496094 88.863281 153.441406 88.359375 C 153.617188 88.332031 153.78125 88.445312 153.8125 88.621094 C 153.839844 88.796875 153.722656 88.960938 153.550781 88.992188 C 150.605469 89.496094 143.554688 90.722656 143.554688 90.722656 Z M 143.554688 90.722656 " fill-opacity="1" fill-rule="nonzero"/><path fill="#42242c" d="M 161.613281 83.863281 C 161.460938 83.863281 161.324219 83.753906 161.296875 83.59375 C 161.269531 83.421875 161.390625 83.257812 161.5625 83.230469 C 161.59375 83.222656 164.335938 82.789062 166.226562 82.6875 C 166.398438 82.675781 166.554688 82.8125 166.5625 82.988281 C 166.574219 83.164062 166.4375 83.316406 166.261719 83.324219 C 164.40625 83.425781 161.691406 83.855469 161.664062 83.859375 C 161.648438 83.863281 161.632812 83.863281 161.613281 83.863281 Z M 161.613281 83.863281 " fill-opacity="1" fill-rule="nonzero"/><path fill="#42242c" d="M 161.898438 87.167969 C 161.734375 87.167969 161.597656 87.046875 161.582031 86.882812 C 161.5625 86.707031 161.691406 86.550781 161.867188 86.53125 C 161.90625 86.527344 165.976562 86.101562 167.179688 85.53125 C 167.339844 85.457031 167.53125 85.527344 167.605469 85.683594 C 167.679688 85.84375 167.613281 86.035156 167.453125 86.109375 C 166.152344 86.726562 162.105469 87.148438 161.933594 87.167969 C 161.921875 87.167969 161.910156 87.167969 161.898438 87.167969 Z M 161.898438 87.167969 " fill-opacity="1" fill-rule="nonzero"/><path fill="#42242c" d="M 122.246094 87.269531 C 122.210938 87.269531 122.171875 87.265625 122.136719 87.25 C 121.96875 87.191406 121.886719 87.003906 121.945312 86.839844 C 121.992188 86.722656 123.054688 83.898438 125.597656 81.207031 C 125.71875 81.078125 125.921875 81.070312 126.050781 81.191406 C 126.179688 81.3125 126.1875 81.515625 126.066406 81.644531 C 123.613281 84.238281 122.558594 87.035156 122.546875 87.0625 C 122.5 87.191406 122.375 87.269531 122.246094 87.269531 Z M 122.246094 87.269531 " fill-opacity="1" fill-rule="nonzero"/><path fill="#42242c" d="M 124.609375 91.847656 C 124.558594 91.847656 124.503906 91.835938 124.457031 91.8125 C 124.300781 91.730469 124.242188 91.535156 124.324219 91.378906 C 124.511719 91.03125 128.902344 82.8125 131.125 80.644531 C 131.25 80.519531 131.453125 80.523438 131.578125 80.648438 C 131.699219 80.777344 131.699219 80.980469 131.570312 81.101562 C 129.421875 83.199219 124.9375 91.59375 124.890625 91.679688 C 124.832031 91.789062 124.722656 91.847656 124.609375 91.847656 Z M 124.609375 91.847656 " fill-opacity="1" fill-rule="nonzero"/><path fill="#42242c" d="M 131.328125 89.191406 C 131.269531 89.191406 131.210938 89.175781 131.15625 89.140625 C 131.007812 89.042969 130.964844 88.847656 131.0625 88.699219 C 131.101562 88.632812 132.089844 87.105469 132.597656 86.566406 C 132.71875 86.4375 132.921875 86.433594 133.050781 86.554688 C 133.179688 86.675781 133.183594 86.875 133.0625 87.003906 C 132.59375 87.5 131.609375 89.027344 131.597656 89.042969 C 131.539062 89.140625 131.433594 89.191406 131.328125 89.191406 Z M 131.328125 89.191406 " fill-opacity="1" fill-rule="nonzero"/><path fill="#25796d" d="M 147.519531 134.363281 C 147.488281 140.9375 141.015625 146.121094 134.746094 145.195312 C 130.167969 144.523438 126.3125 140.6875 125.703125 136.226562 C 124.777344 129.476562 131.445312 122.59375 138.367188 123.617188 C 143.355469 124.355469 147.542969 129.054688 147.519531 134.363281 Z M 147.519531 134.363281 " fill-opacity="1" fill-rule="nonzero"/><path fill="#42242c" d="M 130.125 135.359375 C 130.042969 135.359375 129.960938 135.328125 129.894531 135.265625 C 129.773438 135.136719 129.773438 134.933594 129.902344 134.8125 C 130.082031 134.632812 134.410156 130.417969 138.03125 128.347656 C 138.1875 128.261719 138.382812 128.316406 138.46875 128.46875 C 138.558594 128.621094 138.503906 128.816406 138.351562 128.90625 C 134.800781 130.929688 130.394531 135.226562 130.347656 135.269531 C 130.285156 135.328125 130.207031 135.359375 130.125 135.359375 Z M 130.125 135.359375 " fill-opacity="1" fill-rule="nonzero"/><path fill="#42242c" d="M 131.761719 140 C 131.675781 140 131.589844 139.964844 131.527344 139.894531 C 131.40625 139.765625 131.414062 139.5625 131.542969 139.445312 C 131.859375 139.152344 139.34375 132.261719 142.898438 130.507812 C 143.058594 130.429688 143.25 130.496094 143.328125 130.652344 C 143.40625 130.8125 143.339844 131.003906 143.183594 131.082031 C 139.710938 132.792969 132.054688 139.84375 131.976562 139.914062 C 131.917969 139.96875 131.839844 140 131.761719 140 Z M 131.761719 140 " fill-opacity="1" fill-rule="nonzero"/><path fill="#42242c" d="M 138.765625 139.152344 C 138.679688 139.152344 138.59375 139.117188 138.53125 139.046875 C 138.410156 138.917969 138.417969 138.714844 138.550781 138.597656 C 138.605469 138.542969 139.925781 137.328125 140.964844 136.597656 C 141.109375 136.496094 141.308594 136.53125 141.410156 136.675781 C 141.511719 136.816406 141.476562 137.019531 141.332031 137.121094 C 140.328125 137.828125 138.996094 139.054688 138.984375 139.066406 C 138.921875 139.121094 138.84375 139.152344 138.765625 139.152344 Z M 138.765625 139.152344 " fill-opacity="1" fill-rule="nonzero"/><g clip-path="url(#9d8fab0cae)"><path fill="#994445" d="M 103.96875 216.710938 C 96.851562 223.601562 86.820312 223.402344 72.5625 223.21875 C 68.863281 223.171875 57.96875 223.03125 57 219.304688 C 56.765625 218.410156 57.171875 217.589844 57.3125 217.308594 C 58.835938 214.238281 64.828125 213.359375 72.183594 214.824219 C 70.351562 214.121094 66.992188 212.546875 64.015625 209.191406 C 61.894531 206.800781 60.75 204.390625 60.128906 202.75 C 59.550781 211.945312 56.042969 219.292969 50.550781 221.058594 C 47.792969 221.945312 42.824219 221.976562 41.507812 219.640625 C 41.058594 218.851562 40.777344 217.347656 41.527344 216.101562 C 42.136719 215.085938 43.15625 214.707031 43.535156 214.585938 C 43.648438 205.621094 43.765625 196.652344 43.878906 187.683594 C 43.519531 196.300781 42.332031 203.34375 41.203125 208.476562 C 39.570312 215.90625 38.226562 218.546875 35.703125 219.945312 C 32.378906 221.789062 27.191406 221.363281 25.582031 218.902344 C 25.53125 218.824219 24.453125 217.121094 25.242188 215.464844 C 25.933594 214.015625 27.558594 213.636719 27.808594 213.585938 C 27.34375 204.464844 27.347656 193.882812 28.359375 182.164062 C 28.710938 178.136719 29.175781 173.976562 29.785156 169.691406 C 29.851562 169.226562 29.917969 168.761719 29.988281 168.296875 C 32.855469 148.933594 37.804688 132.636719 42.636719 119.992188 C 49.421875 118.664062 56.210938 117.335938 63 116.007812 C 64.386719 120.429688 66.71875 126.945312 70.519531 134.367188 C 79.355469 151.59375 89.890625 161.492188 98.066406 170.121094 C 103.421875 175.769531 107.769531 180.875 109.964844 187.136719 C 110.816406 189.554688 111.34375 192.136719 111.488281 194.992188 C 111.574219 196.730469 112.019531 208.917969 103.96875 216.710938 Z M 103.96875 216.710938 " fill-opacity="1" fill-rule="nonzero"/></g><path fill="#42242c" d="M 60.433594 199.824219 C 60.40625 199.824219 60.375 199.820312 60.34375 199.8125 C 60.175781 199.761719 60.078125 199.585938 60.128906 199.414062 C 60.171875 199.269531 64.441406 184.660156 65.023438 169.53125 C 65.027344 169.351562 65.167969 169.203125 65.355469 169.222656 C 65.53125 169.230469 65.667969 169.378906 65.664062 169.554688 C 65.078125 184.765625 60.785156 199.449219 60.742188 199.597656 C 60.699219 199.734375 60.574219 199.824219 60.433594 199.824219 Z M 60.433594 199.824219 " fill-opacity="1" fill-rule="nonzero"/><g clip-path="url(#1560c55835)"><path fill="#994445" d="M 130.796875 222.425781 C 130.644531 223.773438 123.9375 224.921875 117.453125 223.675781 C 108.835938 222.023438 103.019531 216.734375 100.121094 213.613281 C 102.179688 211.523438 104.238281 209.4375 106.300781 207.347656 C 108.046875 209.269531 110.789062 211.972656 114.621094 214.535156 C 123.34375 220.371094 130.960938 220.96875 130.796875 222.425781 Z M 130.796875 222.425781 " fill-opacity="1" fill-rule="nonzero"/></g><path fill="#42242c" d="M 64.371094 180.683594 C 64.304688 180.683594 64.238281 180.664062 64.183594 180.621094 C 64.039062 180.519531 64.007812 180.316406 64.113281 180.175781 C 64.207031 180.050781 73.519531 167.660156 85.023438 175.863281 C 85.167969 175.96875 85.203125 176.167969 85.097656 176.3125 C 84.996094 176.453125 84.796875 176.488281 84.652344 176.386719 C 73.664062 168.546875 64.992188 180.0625 64.628906 180.554688 C 64.566406 180.640625 64.46875 180.683594 64.371094 180.683594 Z M 64.371094 180.683594 " fill-opacity="1" fill-rule="nonzero"/><path fill="#6bc0ad" d="M 68.410156 127.363281 C 69.53125 129.910156 70.648438 132.457031 71.765625 135.003906 C 70.117188 136.769531 64.097656 142.777344 54.15625 144.113281 C 43.445312 145.550781 35.605469 140.570312 33.722656 139.300781 C 34.507812 136.644531 35.289062 133.988281 36.074219 131.335938 C 39.023438 132.441406 43.894531 133.824219 49.960938 133.558594 C 59.054688 133.164062 65.578125 129.292969 68.410156 127.363281 Z M 68.410156 127.363281 " fill-opacity="1" fill-rule="nonzero"/><path fill="#994445" d="M 62.164062 77.285156 C 65.578125 78.921875 68.992188 80.5625 72.40625 82.199219 C 73.015625 80.652344 73.824219 78.269531 74.316406 75.269531 C 74.835938 72.089844 75.566406 64.582031 73.40625 63.816406 C 71.636719 63.191406 68.578125 67.3125 66.355469 70.308594 C 64.296875 73.082031 62.964844 75.597656 62.164062 77.285156 Z M 62.164062 77.285156 " fill-opacity="1" fill-rule="nonzero"/><path fill="#994445" d="M 53.277344 75.144531 C 49.492188 75.261719 45.710938 75.382812 41.925781 75.503906 C 41.992188 73.84375 42.210938 71.335938 42.964844 68.390625 C 43.730469 65.417969 46.074219 58.121094 48.40625 58.277344 C 50.421875 58.414062 51.664062 64.097656 52.375 67.347656 C 53.085938 70.597656 53.25 73.339844 53.277344 75.144531 Z M 53.277344 75.144531 " fill-opacity="1" fill-rule="nonzero"/><path fill="#fc9487" d="M 50.101562 74.214844 C 48.359375 74.613281 46.613281 75.011719 44.871094 75.410156 C 44.949219 73.910156 45.167969 71.703125 45.792969 69.097656 C 46.34375 66.792969 46.933594 64.335938 47.710938 64.332031 C 48.734375 64.328125 49.65625 68.5625 49.953125 71.191406 C 50.09375 72.445312 50.113281 73.492188 50.101562 74.214844 Z M 50.101562 74.214844 " fill-opacity="1" fill-rule="nonzero"/><path fill="#fc9487" d="M 65.257812 77.558594 C 66.671875 78.652344 68.085938 79.75 69.5 80.84375 C 70.058594 79.449219 70.792969 77.359375 71.328125 74.730469 C 71.796875 72.40625 72.296875 69.933594 71.59375 69.601562 C 70.667969 69.167969 68.046875 72.621094 66.667969 74.878906 C 66.011719 75.957031 65.554688 76.898438 65.257812 77.558594 Z M 65.257812 77.558594 " fill-opacity="1" fill-rule="nonzero"/><path fill="#994445" d="M 74.1875 103.339844 C 73.421875 114.933594 72.882812 123.117188 68.933594 128.550781 C 68.695312 128.882812 68.441406 129.203125 68.175781 129.511719 C 67.199219 130.65625 66.035156 131.664062 64.65625 132.542969 C 57.425781 137.132812 46.4375 136.753906 38.128906 132.9375 C 37.375 132.589844 36.640625 132.214844 35.933594 131.808594 C 32.714844 129.976562 30.054688 127.582031 28.410156 124.726562 C 25.4375 119.5625 27.179688 113.585938 30.605469 101.652344 C 34.28125 88.859375 36.742188 80.3125 41.988281 75.503906 C 42.914062 74.65625 43.925781 73.921875 45.046875 73.308594 C 45.710938 72.9375 46.414062 72.613281 47.164062 72.328125 C 48.0625 71.980469 49.007812 71.699219 49.984375 71.480469 C 50.960938 71.261719 51.96875 71.109375 52.996094 71.023438 C 54.441406 70.902344 55.925781 70.910156 57.394531 71.058594 C 59.003906 71.21875 60.605469 71.546875 62.136719 72.039062 C 62.957031 72.300781 63.753906 72.613281 64.527344 72.976562 C 65.386719 73.371094 66.214844 73.835938 66.996094 74.359375 C 67.355469 74.601562 67.707031 74.855469 68.046875 75.125 C 69.03125 75.898438 69.875 76.746094 70.601562 77.660156 C 71.484375 78.777344 72.1875 80 72.742188 81.308594 C 75.207031 87.128906 74.75 94.75 74.1875 103.339844 Z M 74.1875 103.339844 " fill-opacity="1" fill-rule="nonzero"/><path fill="#42242c" d="M 56.71875 113.179688 C 57.039062 114.996094 54.894531 116.894531 53.164062 117.660156 C 50.433594 118.875 46.84375 118.105469 44.980469 115.714844 C 44.011719 114.46875 42.996094 112.128906 43.960938 110.652344 C 45.230469 108.710938 49.078125 109.523438 50.894531 109.90625 C 52.789062 110.304688 56.34375 111.050781 56.71875 113.179688 Z M 56.71875 113.179688 " fill-opacity="1" fill-rule="nonzero"/><path fill="#42242c" d="M 47.050781 130.035156 C 47.039062 130.035156 47.027344 130.035156 47.019531 130.03125 C 46.84375 130.015625 46.714844 129.859375 46.730469 129.683594 C 47.390625 123.339844 49.585938 114.011719 49.609375 113.917969 C 49.648438 113.746094 49.824219 113.640625 49.992188 113.679688 C 50.164062 113.722656 50.273438 113.894531 50.230469 114.066406 C 50.210938 114.15625 48.023438 123.445312 47.371094 129.746094 C 47.351562 129.914062 47.214844 130.035156 47.050781 130.035156 Z M 47.050781 130.035156 " fill-opacity="1" fill-rule="nonzero"/><path fill="#42242c" d="M 47.148438 130.035156 C 47.109375 130.035156 47.074219 130.035156 47.035156 130.035156 C 46.835938 130.023438 46.628906 129.988281 46.433594 129.925781 C 44.460938 129.3125 43.914062 126.441406 43.789062 125.578125 C 43.765625 125.402344 43.886719 125.238281 44.0625 125.214844 C 44.246094 125.191406 44.402344 125.3125 44.425781 125.488281 C 44.503906 126.035156 44.96875 128.800781 46.625 129.316406 C 46.769531 129.359375 46.921875 129.386719 47.066406 129.394531 C 47.09375 129.398438 47.121094 129.398438 47.148438 129.398438 C 48.867188 129.398438 50.230469 126.777344 50.382812 126.472656 C 50.464844 126.316406 50.65625 126.25 50.8125 126.332031 C 50.972656 126.410156 51.035156 126.601562 50.957031 126.761719 C 50.679688 127.316406 49.207031 130.035156 47.148438 130.035156 Z M 47.148438 130.035156 " fill-opacity="1" fill-rule="nonzero"/><path fill="#42242c" d="M 43.136719 94.214844 C 43.074219 94.234375 42.597656 94.371094 42.179688 94.140625 C 41.347656 93.671875 41.5 92.140625 41.527344 91.847656 C 41.628906 90.820312 42.191406 89.179688 43.296875 89.015625 C 43.339844 89.011719 43.929688 88.933594 44.367188 89.324219 C 45.515625 90.347656 44.660156 93.742188 43.136719 94.214844 Z M 43.136719 94.214844 " fill-opacity="1" fill-rule="nonzero"/><path fill="#42242c" d="M 64.84375 98.398438 C 64.777344 98.417969 64.304688 98.558594 63.886719 98.324219 C 63.054688 97.855469 63.207031 96.324219 63.234375 96.03125 C 63.335938 95.003906 63.894531 93.363281 65.003906 93.199219 C 65.046875 93.195312 65.636719 93.117188 66.074219 93.507812 C 67.21875 94.53125 66.367188 97.925781 64.84375 98.398438 Z M 64.84375 98.398438 " fill-opacity="1" fill-rule="nonzero"/><path fill="#42242c" d="M 43.535156 146.597656 C 43.304688 146.597656 43.082031 146.550781 42.890625 146.460938 C 42.402344 146.234375 42.066406 145.714844 41.988281 145.074219 C 41.910156 144.441406 42.113281 143.839844 42.515625 143.511719 C 43.046875 143.082031 43.804688 143.164062 44.285156 143.421875 C 45.023438 143.824219 45.507812 144.835938 45.058594 145.707031 C 44.746094 146.308594 44.117188 146.597656 43.535156 146.597656 Z M 43.425781 143.847656 C 43.242188 143.847656 43.058594 143.894531 42.921875 144.007812 C 42.6875 144.195312 42.574219 144.585938 42.625 145 C 42.675781 145.410156 42.878906 145.75 43.164062 145.882812 C 43.574219 146.074219 44.230469 145.914062 44.488281 145.414062 C 44.761719 144.882812 44.441406 144.234375 43.980469 143.984375 C 43.824219 143.902344 43.625 143.847656 43.425781 143.847656 Z M 43.425781 143.847656 " fill-opacity="1" fill-rule="nonzero"/><path fill="#f5e8dd" d="M 47.277344 146.964844 C 46.714844 146.007812 45.859375 145.316406 44.90625 144.894531 C 44.082031 144.523438 43.183594 144.355469 42.339844 144.398438 C 42.164062 144.40625 41.992188 144.421875 41.820312 144.449219 C 38.425781 144.972656 35.648438 149.226562 36.859375 152.753906 C 37.589844 154.867188 39.671875 156.488281 41.921875 156.550781 C 45.238281 156.640625 47.535156 153.292969 47.910156 150.601562 C 47.980469 150.074219 48.179688 148.488281 47.277344 146.964844 Z M 43.128906 147.210938 C 42.511719 147.1875 42.082031 146.632812 42.109375 146.109375 C 42.125 145.863281 42.242188 145.644531 42.414062 145.46875 C 42.714844 145.171875 43.1875 145.027344 43.578125 145.175781 C 43.945312 145.316406 44.214844 145.695312 44.226562 146.109375 C 44.230469 146.136719 44.230469 146.164062 44.230469 146.191406 C 44.203125 146.738281 43.730469 147.234375 43.128906 147.210938 Z M 43.128906 147.210938 " fill-opacity="1" fill-rule="nonzero"/><g clip-path="url(#6a0122e0be)"><g clip-path="url(#e2b07ba0b0)"><path fill="#42242c" d="M 43.535156 146.597656 C 43.304688 146.597656 43.082031 146.550781 42.890625 146.460938 C 42.402344 146.234375 42.066406 145.714844 41.988281 145.074219 C 41.910156 144.441406 42.113281 143.839844 42.515625 143.511719 C 43.046875 143.082031 43.804688 143.164062 44.285156 143.421875 C 45.023438 143.824219 45.507812 144.835938 45.058594 145.707031 C 44.746094 146.308594 44.117188 146.597656 43.535156 146.597656 Z M 43.425781 143.847656 C 43.242188 143.847656 43.058594 143.894531 42.921875 144.007812 C 42.6875 144.195312 42.574219 144.585938 42.625 145 C 42.675781 145.410156 42.878906 145.75 43.164062 145.882812 C 43.574219 146.074219 44.230469 145.914062 44.488281 145.414062 C 44.761719 144.882812 44.441406 144.234375 43.980469 143.984375 C 43.824219 143.902344 43.625 143.847656 43.425781 143.847656 Z M 43.425781 143.847656 " fill-opacity="1" fill-rule="nonzero"/></g></g><path fill="#42242c" d="M 38.347656 151.25 C 38.246094 151.25 38.144531 151.203125 38.082031 151.109375 C 37.984375 150.964844 38.023438 150.765625 38.171875 150.667969 C 38.257812 150.605469 40.375 149.1875 42.214844 148.429688 C 42.378906 148.363281 42.566406 148.441406 42.632812 148.605469 C 42.699219 148.769531 42.621094 148.953125 42.457031 149.023438 C 40.675781 149.757812 38.550781 151.183594 38.527344 151.195312 C 38.472656 151.234375 38.410156 151.25 38.347656 151.25 Z M 38.347656 151.25 " fill-opacity="1" fill-rule="nonzero"/><path fill="#42242c" d="M 38.9375 153.636719 C 38.835938 153.636719 38.738281 153.589844 38.675781 153.5 C 38.570312 153.359375 38.605469 153.15625 38.75 153.054688 C 38.933594 152.921875 43.296875 149.816406 45.503906 148.914062 C 45.667969 148.847656 45.855469 148.925781 45.921875 149.089844 C 45.988281 149.25 45.910156 149.4375 45.746094 149.503906 C 43.609375 150.378906 39.167969 153.542969 39.121094 153.574219 C 39.066406 153.617188 39 153.636719 38.9375 153.636719 Z M 38.9375 153.636719 " fill-opacity="1" fill-rule="nonzero"/><path fill="#42242c" d="M 42.894531 153.496094 C 42.796875 153.496094 42.703125 153.453125 42.640625 153.371094 C 42.53125 153.230469 42.558594 153.03125 42.699219 152.921875 C 42.738281 152.890625 43.691406 152.15625 44.179688 151.820312 C 44.324219 151.71875 44.523438 151.753906 44.625 151.898438 C 44.722656 152.046875 44.6875 152.246094 44.542969 152.34375 C 44.070312 152.671875 43.097656 153.421875 43.089844 153.429688 C 43.03125 153.472656 42.960938 153.496094 42.894531 153.496094 Z M 42.894531 153.496094 " fill-opacity="1" fill-rule="nonzero"/><path fill="#42242c" d="M 44.027344 188.484375 C 44.023438 188.484375 44.015625 188.484375 44.011719 188.484375 C 43.835938 188.476562 43.699219 188.328125 43.707031 188.148438 C 43.976562 181.925781 44.171875 176.648438 44.269531 174.058594 C 44.273438 173.882812 44.410156 173.738281 44.601562 173.75 C 44.777344 173.757812 44.914062 173.90625 44.90625 174.082031 C 44.8125 176.671875 44.613281 181.949219 44.347656 188.175781 C 44.339844 188.347656 44.195312 188.484375 44.027344 188.484375 Z M 44.027344 188.484375 " fill-opacity="1" fill-rule="nonzero"/><path fill="#42242c" d="M 105.367188 215.742188 C 105.285156 215.742188 105.203125 215.710938 105.140625 215.648438 C 105.015625 215.527344 105.015625 215.324219 105.140625 215.199219 C 105.164062 215.175781 107.414062 212.898438 108.460938 210.203125 C 108.523438 210.039062 108.710938 209.960938 108.875 210.023438 C 109.039062 210.085938 109.121094 210.269531 109.054688 210.4375 C 107.960938 213.257812 105.691406 215.554688 105.59375 215.648438 C 105.53125 215.710938 105.449219 215.742188 105.367188 215.742188 Z M 105.367188 215.742188 " fill-opacity="1" fill-rule="nonzero"/><path fill="#42242c" d="M 83.269531 216.519531 C 83.25 216.519531 83.230469 216.519531 83.210938 216.515625 C 76.554688 215.328125 73.203125 215.414062 73.171875 215.414062 C 72.996094 215.414062 72.847656 215.28125 72.839844 215.105469 C 72.835938 214.929688 72.972656 214.78125 73.148438 214.777344 C 73.289062 214.773438 76.589844 214.683594 83.324219 215.882812 C 83.496094 215.914062 83.613281 216.082031 83.582031 216.253906 C 83.554688 216.410156 83.421875 216.519531 83.269531 216.519531 Z M 83.269531 216.519531 " fill-opacity="1" fill-rule="nonzero"/><path fill="#42242c" d="M 32.050781 215.667969 C 28.738281 215.667969 27.738281 214.28125 27.695312 214.21875 C 27.59375 214.070312 27.628906 213.871094 27.777344 213.773438 C 27.921875 213.671875 28.117188 213.707031 28.21875 213.851562 C 28.238281 213.875 29.230469 215.164062 32.5625 215.019531 C 32.734375 215.003906 32.886719 215.148438 32.894531 215.324219 C 32.902344 215.5 32.765625 215.648438 32.589844 215.65625 C 32.402344 215.664062 32.222656 215.667969 32.050781 215.667969 Z M 32.050781 215.667969 " fill-opacity="1" fill-rule="nonzero"/><path fill="#42242c" d="M 47.851562 216.984375 C 44.953125 216.984375 43.675781 215.511719 43.621094 215.445312 C 43.503906 215.3125 43.523438 215.109375 43.65625 214.996094 C 43.792969 214.882812 43.992188 214.898438 44.109375 215.03125 C 44.160156 215.09375 45.371094 216.441406 48.167969 216.335938 C 48.335938 216.324219 48.492188 216.46875 48.5 216.644531 C 48.507812 216.820312 48.371094 216.96875 48.191406 216.976562 C 48.078125 216.980469 47.960938 216.984375 47.851562 216.984375 Z M 47.851562 216.984375 " fill-opacity="1" fill-rule="nonzero"/><path fill="#42242c" d="M 50.464844 92.65625 C 50.027344 95.5625 40.75 96.105469 39.785156 96.152344 C 36.34375 96.3125 32.378906 96.496094 30.132812 93.847656 C 28.652344 92.101562 28.4375 89.738281 28.3125 88.332031 C 28.128906 86.3125 27.910156 84.449219 28.921875 83.449219 C 29.421875 82.953125 30.917969 81.976562 38.105469 84.867188 C 43.621094 87.089844 50.863281 90.003906 50.464844 92.65625 Z M 50.464844 92.65625 " fill-opacity="1" fill-rule="nonzero"/><path fill="#ff5f4f" d="M 37.203125 97.722656 C 34.21875 97.722656 31.078125 97.273438 28.992188 94.8125 C 27.207031 92.707031 26.957031 89.949219 26.824219 88.464844 L 26.800781 88.210938 C 26.605469 86.0625 26.402344 83.84375 27.867188 82.390625 C 29.019531 81.246094 31.207031 80.484375 38.664062 83.484375 C 46.773438 86.75 52.476562 89.332031 51.941406 92.878906 C 51.390625 96.558594 44.132812 97.441406 39.855469 97.640625 C 39.007812 97.679688 38.113281 97.722656 37.203125 97.722656 Z M 30.757812 84.382812 C 30.160156 84.382812 29.976562 84.507812 29.972656 84.511719 C 29.507812 84.972656 29.652344 86.550781 29.777344 87.941406 L 29.800781 88.199219 C 29.917969 89.511719 30.097656 91.5 31.273438 92.882812 C 33.042969 94.96875 36.589844 94.804688 39.714844 94.660156 C 44.554688 94.433594 48.65625 93.285156 48.984375 92.4375 C 48.964844 92.339844 48.703125 91.457031 45.503906 89.757812 C 43.167969 88.515625 40.179688 87.3125 37.546875 86.253906 C 33.65625 84.691406 31.695312 84.382812 30.757812 84.382812 Z M 30.757812 84.382812 " fill-opacity="1" fill-rule="nonzero"/><path fill="#42242c" d="M 57.527344 94.089844 C 57.03125 96.984375 65.667969 100.410156 66.570312 100.757812 C 69.785156 101.988281 73.492188 103.40625 76.457031 101.597656 C 78.410156 100.40625 79.359375 98.226562 79.917969 96.933594 C 80.726562 95.070312 81.519531 93.371094 80.878906 92.105469 C 80.558594 91.476562 79.445312 90.082031 71.710938 90.574219 C 65.773438 90.949219 57.984375 91.445312 57.527344 94.089844 Z M 57.527344 94.089844 " fill-opacity="1" fill-rule="nonzero"/><path fill="#ff5f4f" d="M 73.21875 103.953125 C 70.738281 103.953125 68.214844 102.984375 66.035156 102.152344 C 62.035156 100.621094 55.425781 97.503906 56.054688 93.835938 C 56.664062 90.300781 62.890625 89.636719 71.617188 89.082031 C 79.636719 88.574219 81.472656 89.984375 82.210938 91.429688 C 83.144531 93.269531 82.253906 95.3125 81.394531 97.289062 L 81.289062 97.527344 C 80.699219 98.890625 79.59375 101.433594 77.234375 102.875 C 75.953125 103.65625 74.59375 103.953125 73.21875 103.953125 Z M 59.003906 94.347656 C 59.046875 95.25 62.578125 97.628906 67.105469 99.363281 C 70.027344 100.480469 73.34375 101.75 75.675781 100.324219 C 77.226562 99.378906 78.023438 97.550781 78.546875 96.339844 L 78.652344 96.097656 C 79.210938 94.816406 79.84375 93.367188 79.546875 92.78125 C 79.539062 92.769531 78.644531 91.628906 71.808594 92.0625 C 68.972656 92.242188 65.757812 92.445312 63.148438 92.894531 C 59.578125 93.503906 59.050781 94.261719 59.003906 94.347656 Z M 59.003906 94.347656 " fill-opacity="1" fill-rule="nonzero"/><path fill="#ff5f4f" d="M 56.625 95.277344 C 55.046875 94.082031 51.652344 94.058594 50.585938 94.144531 L 50.34375 91.167969 C 50.878906 91.125 55.667969 90.804688 58.433594 92.902344 Z M 56.625 95.277344 " fill-opacity="1" fill-rule="nonzero"/><path fill="#f5e8dd" d="M 68.378906 96.59375 C 68.304688 96.59375 68.226562 96.566406 68.167969 96.515625 C 68.035156 96.398438 68.019531 96.199219 68.136719 96.066406 C 68.171875 96.023438 69.058594 95.011719 70.492188 94.03125 C 70.636719 93.929688 70.835938 93.96875 70.9375 94.113281 C 71.035156 94.257812 71 94.457031 70.855469 94.558594 C 69.492188 95.492188 68.628906 96.476562 68.621094 96.484375 C 68.554688 96.558594 68.46875 96.59375 68.378906 96.59375 Z M 68.378906 96.59375 " fill-opacity="1" fill-rule="nonzero"/><path fill="#f5e8dd" d="M 69.144531 98.3125 C 69.039062 98.3125 68.9375 98.261719 68.875 98.167969 C 68.78125 98.019531 68.820312 97.820312 68.96875 97.726562 C 69.019531 97.695312 73.835938 94.5625 75.464844 93.589844 C 75.617188 93.5 75.8125 93.550781 75.902344 93.699219 C 75.996094 93.851562 75.945312 94.050781 75.792969 94.140625 C 74.175781 95.105469 69.367188 98.230469 69.320312 98.261719 C 69.265625 98.296875 69.203125 98.3125 69.144531 98.3125 Z M 69.144531 98.3125 " fill-opacity="1" fill-rule="nonzero"/><path fill="#f5e8dd" d="M 33.171875 90.78125 C 33.082031 90.78125 32.996094 90.746094 32.933594 90.679688 C 32.816406 90.546875 32.824219 90.34375 32.957031 90.226562 C 33.03125 90.15625 34.859375 88.503906 35.796875 87.984375 C 35.953125 87.898438 36.148438 87.953125 36.234375 88.109375 C 36.320312 88.261719 36.261719 88.457031 36.109375 88.542969 C 35.234375 89.027344 33.40625 90.683594 33.386719 90.699219 C 33.324219 90.753906 33.246094 90.78125 33.171875 90.78125 Z M 33.171875 90.78125 " fill-opacity="1" fill-rule="nonzero"/><path fill="#f5e8dd" d="M 34.957031 93.527344 C 34.878906 93.527344 34.796875 93.496094 34.738281 93.4375 C 34.609375 93.316406 34.601562 93.113281 34.726562 92.988281 C 34.839844 92.867188 37.53125 90.042969 40.105469 88.601562 C 40.257812 88.515625 40.453125 88.570312 40.539062 88.722656 C 40.628906 88.875 40.574219 89.070312 40.417969 89.15625 C 37.929688 90.554688 35.214844 93.398438 35.1875 93.425781 C 35.125 93.492188 35.042969 93.527344 34.957031 93.527344 Z M 34.957031 93.527344 " fill-opacity="1" fill-rule="nonzero"/><path fill="#f5e8dd" d="M 40.132812 92.484375 C 40.058594 92.484375 39.988281 92.460938 39.925781 92.410156 C 39.792969 92.296875 39.773438 92.09375 39.886719 91.960938 C 39.910156 91.933594 40.460938 91.28125 41.210938 90.75 C 41.355469 90.644531 41.554688 90.679688 41.660156 90.824219 C 41.761719 90.96875 41.726562 91.167969 41.582031 91.269531 C 40.898438 91.757812 40.382812 92.367188 40.378906 92.371094 C 40.316406 92.445312 40.222656 92.484375 40.132812 92.484375 Z M 40.132812 92.484375 " fill-opacity="1" fill-rule="nonzero"/><path fill="#ffffff" d="M 73.894531 50.746094 C 73.886719 50.746094 73.878906 50.746094 73.867188 50.746094 C 73.691406 50.734375 73.5625 50.578125 73.574219 50.402344 C 73.734375 48.371094 74.140625 46.21875 74.78125 44.003906 C 74.832031 43.835938 75.007812 43.738281 75.179688 43.789062 C 75.347656 43.835938 75.445312 44.011719 75.398438 44.183594 C 74.769531 46.355469 74.371094 48.464844 74.214844 50.453125 C 74.199219 50.621094 74.058594 50.746094 73.894531 50.746094 Z M 73.894531 50.746094 " fill-opacity="1" fill-rule="nonzero"/><path fill="#ffffff" d="M 131.78125 29.511719 C 131.765625 29.511719 131.746094 29.507812 131.730469 29.507812 C 125.460938 28.445312 111.964844 28.648438 111.828125 28.648438 C 111.65625 28.648438 111.507812 28.511719 111.503906 28.335938 C 111.5 28.15625 111.640625 28.011719 111.820312 28.007812 C 111.957031 28.007812 125.507812 27.804688 131.835938 28.875 C 132.011719 28.90625 132.128906 29.070312 132.097656 29.242188 C 132.070312 29.398438 131.9375 29.511719 131.78125 29.511719 Z M 131.78125 29.511719 " fill-opacity="1" fill-rule="nonzero"/><path fill="#ffffff" d="M 191.539062 169.078125 C 191.511719 169.078125 191.488281 169.074219 191.460938 169.066406 C 191.289062 169.023438 191.183594 168.847656 191.230469 168.679688 C 193.207031 160.871094 193.902344 136.421875 193.910156 136.175781 C 193.914062 136 194.070312 135.863281 194.238281 135.867188 C 194.414062 135.871094 194.554688 136.019531 194.550781 136.195312 C 194.542969 136.441406 193.847656 160.960938 191.847656 168.835938 C 191.8125 168.980469 191.683594 169.078125 191.539062 169.078125 Z M 191.539062 169.078125 " fill-opacity="1" fill-rule="nonzero"/></svg>