<svg xmlns="http://www.w3.org/2000/svg" xmlns:xlink="http://www.w3.org/1999/xlink" width="300" zoomAndPan="magnify" viewBox="0 0 224.87999 44.999999" height="60" preserveAspectRatio="xMidYMid meet" version="1.0"><defs><g/><clipPath id="8fe5c374b7"><path d="M 0 0.0117188 L 224.761719 0.0117188 L 224.761719 44.988281 L 0 44.988281 Z M 0 0.0117188 " clip-rule="nonzero"/></clipPath><clipPath id="30d50d9736"><path d="M 2 20 L 43 20 L 43 44.988281 L 2 44.988281 Z M 2 20 " clip-rule="nonzero"/></clipPath><clipPath id="b898bc5486"><path d="M 0 11 L 44.976562 11 L 44.976562 25 L 0 25 Z M 0 11 " clip-rule="nonzero"/></clipPath><clipPath id="90992c72b9"><path d="M 5 27 L 18 27 L 18 44.988281 L 5 44.988281 Z M 5 27 " clip-rule="nonzero"/></clipPath><clipPath id="92ac24982f"><path d="M 7 33 L 18 33 L 18 44.988281 L 7 44.988281 Z M 7 33 " clip-rule="nonzero"/></clipPath><clipPath id="c7f06f8af2"><path d="M 12 0.0117188 L 33 0.0117188 L 33 21 L 12 21 Z M 12 0.0117188 " clip-rule="nonzero"/></clipPath><clipPath id="3fb874a3b6"><path d="M 0 0.0117188 L 44.976562 0.0117188 L 44.976562 44.988281 L 0 44.988281 Z M 0 0.0117188 " clip-rule="nonzero"/></clipPath></defs><g clip-path="url(#8fe5c374b7)"><path fill="#ffffff" d="M 0 0.0117188 L 224.878906 0.0117188 L 224.878906 44.988281 L 0 44.988281 Z M 0 0.0117188 " fill-opacity="1" fill-rule="nonzero"/><path fill="#ffffff" d="M 0 0.0117188 L 224.878906 0.0117188 L 224.878906 44.988281 L 0 44.988281 Z M 0 0.0117188 " fill-opacity="1" fill-rule="nonzero"/></g><g clip-path="url(#30d50d9736)"><path fill="#ffffff" d="M 40.386719 24.691406 C 37.90625 24.691406 35.898438 23.425781 35.898438 20.941406 C 35.898438 23.425781 33.890625 24.691406 31.410156 24.691406 C 28.933594 24.691406 26.921875 23.191406 26.921875 20.941406 C 26.921875 23.425781 24.914062 24.691406 22.4375 24.691406 C 19.957031 24.691406 17.949219 23.191406 17.949219 20.941406 C 17.949219 23.425781 15.941406 24.691406 13.460938 24.691406 C 10.984375 24.691406 8.976562 23.191406 8.976562 20.941406 C 8.976562 23.425781 6.964844 24.691406 4.488281 24.691406 C 3.6875 24.691406 2.9375 24.488281 2.246094 24.082031 L 2.246094 44.179688 L 42.628906 44.179688 L 42.628906 24.082031 C 41.933594 24.488281 41.1875 24.691406 40.386719 24.691406 Z M 40.386719 24.691406 " fill-opacity="1" fill-rule="nonzero"/></g><path fill="#ededed" d="M 35.898438 20.941406 C 35.898438 23.425781 33.890625 24.691406 31.410156 24.691406 C 28.933594 24.691406 26.921875 23.191406 26.921875 20.941406 C 26.921875 23.425781 24.914062 24.691406 22.4375 24.691406 C 19.957031 24.691406 17.949219 23.191406 17.949219 20.941406 C 17.949219 23.425781 15.941406 24.691406 13.460938 24.691406 C 10.984375 24.691406 8.976562 23.191406 8.976562 20.941406 C 8.976562 23.425781 6.964844 24.691406 4.488281 24.691406 C 3.6875 24.691406 2.9375 24.488281 2.246094 24.082031 L 2.246094 26.332031 C 2.9375 26.734375 3.6875 26.9375 4.488281 26.9375 C 6.175781 26.9375 7.644531 26.351562 8.410156 25.195312 C 8.691406 24.769531 9.316406 24.785156 9.613281 25.195312 C 10.398438 26.285156 11.828125 26.9375 13.460938 26.9375 C 15.148438 26.9375 16.621094 26.351562 17.386719 25.195312 C 17.664062 24.769531 18.289062 24.785156 18.585938 25.195312 C 19.371094 26.285156 20.800781 26.9375 22.4375 26.9375 C 24.125 26.9375 25.59375 26.351562 26.359375 25.195312 C 26.640625 24.769531 27.265625 24.785156 27.5625 25.195312 C 28.34375 26.285156 29.777344 26.9375 31.410156 26.9375 C 33.070312 26.9375 34.523438 26.371094 35.296875 25.246094 C 35.367188 25.148438 35.453125 25.074219 35.558594 25.019531 C 35.664062 24.960938 35.777344 24.933594 35.898438 24.933594 C 36.015625 24.933594 36.128906 24.960938 36.234375 25.019531 C 36.339844 25.074219 36.429688 25.148438 36.496094 25.246094 C 37.273438 26.371094 38.722656 26.9375 40.386719 26.9375 C 41.1875 26.9375 41.933594 26.734375 42.628906 26.332031 L 42.628906 24.082031 C 41.933594 24.488281 41.1875 24.691406 40.386719 24.691406 C 37.90625 24.691406 35.898438 23.425781 35.898438 20.941406 Z M 35.898438 20.941406 " fill-opacity="1" fill-rule="nonzero"/><g clip-path="url(#b898bc5486)"><path fill="#a88251" d="M 12.714844 11.195312 L 7.480469 11.195312 L 0.75 22.675781 C 1.164062 23.304688 1.703125 23.796875 2.367188 24.15625 C 3.027344 24.511719 3.734375 24.691406 4.488281 24.691406 C 6.964844 24.691406 8.976562 23.425781 8.976562 20.941406 C 8.976562 23.191406 10.984375 24.691406 13.460938 24.691406 C 15.941406 24.691406 17.949219 23.425781 17.949219 20.941406 C 17.949219 23.191406 19.957031 24.691406 22.4375 24.691406 C 24.914062 24.691406 26.921875 23.425781 26.921875 20.941406 C 26.921875 23.191406 28.933594 24.691406 31.410156 24.691406 C 33.890625 24.691406 35.898438 23.425781 35.898438 20.941406 C 35.898438 23.425781 37.90625 24.691406 40.386719 24.691406 C 41.136719 24.691406 41.84375 24.511719 42.507812 24.15625 C 43.171875 23.796875 43.710938 23.304688 44.125 22.675781 L 37.394531 11.195312 L 32.160156 11.195312 " fill-opacity="1" fill-rule="nonzero"/></g><path fill="#d6b387" d="M 26.921875 20.941406 C 26.921875 23.191406 28.933594 24.691406 31.410156 24.691406 C 33.890625 24.691406 35.898438 23.425781 35.898438 20.941406 L 32.90625 11.195312 L 26.921875 11.195312 Z M 26.921875 20.941406 " fill-opacity="1" fill-rule="nonzero"/><path fill="#d6b387" d="M 17.949219 20.941406 C 17.949219 23.425781 15.941406 24.691406 13.460938 24.691406 C 10.984375 24.691406 8.976562 23.191406 8.976562 20.941406 L 11.964844 11.195312 L 17.949219 11.195312 Z M 17.949219 20.941406 " fill-opacity="1" fill-rule="nonzero"/><path fill="#a88251" d="M 7.480469 8.199219 L 37.394531 8.199219 L 37.394531 11.195312 L 7.480469 11.195312 Z M 7.480469 8.199219 " fill-opacity="1" fill-rule="nonzero"/><g clip-path="url(#90992c72b9)"><path fill="#6bd9ff" d="M 5.984375 27.6875 L 17.949219 27.6875 L 17.949219 44.179688 L 5.984375 44.179688 Z M 5.984375 27.6875 " fill-opacity="1" fill-rule="nonzero"/></g><g clip-path="url(#92ac24982f)"><path fill="#ffffff" d="M 17.949219 33.683594 L 7.480469 44.179688 L 9.722656 44.179688 L 17.949219 35.933594 Z M 17.949219 33.683594 " fill-opacity="1" fill-rule="nonzero"/></g><path fill="#ffffff" d="M 17.949219 29.1875 L 5.984375 41.179688 L 5.984375 43.429688 L 17.949219 31.4375 Z M 17.949219 29.1875 " fill-opacity="1" fill-rule="nonzero"/><path fill="#bd925b" d="M 9.722656 30.6875 L 15.707031 30.6875 L 15.707031 33.683594 L 9.722656 33.683594 Z M 9.722656 30.6875 " fill-opacity="1" fill-rule="nonzero"/><g clip-path="url(#c7f06f8af2)"><path fill="#ffffff" d="M 22.4375 0.703125 C 21.796875 0.703125 21.164062 0.765625 20.539062 0.890625 C 19.914062 1.015625 19.304688 1.199219 18.714844 1.445312 C 18.125 1.6875 17.566406 1.988281 17.035156 2.34375 C 16.503906 2.699219 16.011719 3.105469 15.5625 3.558594 C 15.109375 4.007812 14.707031 4.5 14.351562 5.035156 C 14 5.566406 13.699219 6.128906 13.453125 6.71875 C 13.210938 7.308594 13.027344 7.917969 12.902344 8.546875 C 12.777344 9.175781 12.714844 9.808594 12.714844 10.449219 C 12.714844 11.085938 12.777344 11.722656 12.902344 12.347656 C 13.027344 12.976562 13.210938 13.585938 13.453125 14.175781 C 13.699219 14.769531 14 15.328125 14.351562 15.863281 C 14.707031 16.394531 15.109375 16.886719 15.5625 17.339844 C 16.011719 17.789062 16.503906 18.195312 17.035156 18.550781 C 17.566406 18.90625 18.125 19.207031 18.714844 19.449219 C 19.304688 19.695312 19.914062 19.878906 20.539062 20.003906 C 21.164062 20.128906 21.796875 20.191406 22.4375 20.191406 C 23.074219 20.191406 23.707031 20.128906 24.332031 20.003906 C 24.960938 19.878906 25.566406 19.695312 26.15625 19.449219 C 26.746094 19.207031 27.308594 18.90625 27.835938 18.550781 C 28.367188 18.195312 28.859375 17.789062 29.3125 17.339844 C 29.761719 16.886719 30.164062 16.394531 30.519531 15.863281 C 30.875 15.328125 31.175781 14.769531 31.417969 14.175781 C 31.664062 13.585938 31.847656 12.976562 31.972656 12.347656 C 32.097656 11.722656 32.160156 11.085938 32.160156 10.449219 C 32.160156 9.808594 32.097656 9.175781 31.972656 8.546875 C 31.847656 7.917969 31.664062 7.308594 31.417969 6.71875 C 31.175781 6.128906 30.875 5.566406 30.519531 5.035156 C 30.164062 4.5 29.761719 4.007812 29.3125 3.558594 C 28.859375 3.105469 28.367188 2.699219 27.835938 2.34375 C 27.308594 1.988281 26.746094 1.6875 26.15625 1.445312 C 25.566406 1.199219 24.960938 1.015625 24.332031 0.890625 C 23.707031 0.765625 23.074219 0.703125 22.4375 0.703125 Z M 22.4375 0.703125 " fill-opacity="1" fill-rule="nonzero"/></g><path fill="#a88251" d="M 15.707031 8.949219 C 15.707031 12.078125 16.902344 14.832031 18.71875 16.445312 L 23.910156 16.445312 C 24.625 15.796875 25.207031 15.046875 25.660156 14.195312 C 26.277344 13.019531 26.664062 11.769531 26.820312 10.449219 C 26.886719 9.949219 26.921875 9.449219 26.925781 8.949219 Z M 15.707031 8.949219 " fill-opacity="1" fill-rule="nonzero"/><path fill="#d6b387" d="M 28.210938 31.21875 C 29.050781 30.902344 29.386719 29.738281 28.964844 28.617188 C 28.542969 27.5 27.519531 26.847656 26.683594 27.167969 C 25.847656 27.484375 25.507812 28.648438 25.933594 29.769531 C 26.355469 30.886719 27.375 31.539062 28.210938 31.21875 Z M 28.210938 31.21875 " fill-opacity="1" fill-rule="nonzero"/><path fill="#d6b387" d="M 25.171875 40.128906 C 25.171875 43.59375 27.492188 40.996094 30.359375 40.996094 C 33.222656 40.996094 35.546875 43.59375 35.546875 40.128906 C 35.546875 39.203125 35.199219 38.722656 34.605469 38.363281 C 34.085938 38.046875 33.679688 37.621094 33.382812 37.085938 C 33.089844 36.550781 32.945312 35.980469 32.953125 35.371094 L 32.953125 35.363281 C 32.953125 34.164062 31.792969 33.195312 30.359375 33.195312 C 28.925781 33.195312 27.765625 34.164062 27.765625 35.363281 L 27.765625 35.371094 C 27.773438 35.980469 27.628906 36.550781 27.332031 37.085938 C 27.039062 37.621094 26.632812 38.046875 26.113281 38.363281 C 25.519531 38.722656 25.171875 39.203125 25.171875 40.128906 Z M 25.171875 40.128906 " fill-opacity="1" fill-rule="nonzero"/><path fill="#d6b387" d="M 22.359375 32.003906 C 21.628906 32.527344 21.601562 33.738281 22.296875 34.714844 C 22.992188 35.6875 24.144531 36.050781 24.871094 35.53125 C 25.601562 35.007812 25.628906 33.796875 24.933594 32.824219 C 24.238281 31.847656 23.085938 31.484375 22.359375 32.003906 Z M 22.359375 32.003906 " fill-opacity="1" fill-rule="nonzero"/><path fill="#d6b387" d="M 33.820312 27.179688 C 34.019531 27.253906 34.195312 27.375 34.34375 27.546875 C 34.492188 27.71875 34.605469 27.925781 34.675781 28.171875 C 34.75 28.414062 34.777344 28.675781 34.765625 28.953125 C 34.75 29.230469 34.695312 29.503906 34.597656 29.773438 C 34.496094 30.042969 34.363281 30.289062 34.195312 30.507812 C 34.027344 30.730469 33.835938 30.910156 33.625 31.046875 C 33.410156 31.183594 33.191406 31.269531 32.96875 31.304688 C 32.742188 31.339844 32.53125 31.320312 32.328125 31.246094 C 32.128906 31.171875 31.953125 31.050781 31.804688 30.878906 C 31.65625 30.707031 31.542969 30.496094 31.472656 30.253906 C 31.398438 30.011719 31.367188 29.75 31.382812 29.472656 C 31.398438 29.195312 31.453125 28.921875 31.550781 28.652344 C 31.652344 28.382812 31.785156 28.136719 31.953125 27.917969 C 32.121094 27.695312 32.3125 27.515625 32.523438 27.378906 C 32.738281 27.238281 32.957031 27.152344 33.179688 27.121094 C 33.402344 27.085938 33.617188 27.105469 33.820312 27.179688 Z M 33.820312 27.179688 " fill-opacity="1" fill-rule="nonzero"/><path fill="#d6b387" d="M 38.277344 34.683594 C 38.964844 33.703125 38.925781 32.488281 38.191406 31.976562 C 37.457031 31.460938 36.308594 31.835938 35.625 32.816406 C 34.9375 33.796875 34.976562 35.007812 35.710938 35.523438 C 36.445312 36.039062 37.59375 35.664062 38.277344 34.683594 Z M 38.277344 34.683594 " fill-opacity="1" fill-rule="nonzero"/><path fill="#a8793c" d="M 26.070312 8.949219 C 25.914062 10.269531 25.527344 11.519531 24.910156 12.695312 L 24.894531 12.722656 C 24.136719 14.121094 22.625 14.945312 21.035156 14.945312 L 17.972656 14.945312 C 17.382812 14.410156 16.886719 13.796875 16.476562 13.113281 C 17.007812 14.457031 17.777344 15.609375 18.71875 16.445312 L 23.910156 16.445312 C 24.625 15.796875 25.207031 15.046875 25.660156 14.195312 C 26.277344 13.019531 26.664062 11.769531 26.820312 10.449219 C 26.886719 9.949219 26.921875 9.449219 26.925781 8.949219 Z M 26.070312 8.949219 " fill-opacity="1" fill-rule="nonzero"/><g clip-path="url(#3fb874a3b6)"><path fill="#000000" d="M 1.550781 24.554688 L 1.550781 44.238281 C 1.550781 44.445312 1.621094 44.621094 1.769531 44.769531 C 1.914062 44.914062 2.089844 44.988281 2.296875 44.988281 L 42.679688 44.988281 C 42.886719 44.988281 43.0625 44.914062 43.210938 44.769531 C 43.355469 44.621094 43.429688 44.445312 43.429688 44.238281 L 43.429688 24.554688 C 43.972656 24.171875 44.429688 23.703125 44.800781 23.148438 C 44.972656 22.890625 44.980469 22.625 44.820312 22.355469 L 38.195312 11.050781 L 38.195312 8.257812 C 38.195312 8.050781 38.121094 7.875 37.972656 7.726562 C 37.828125 7.582031 37.652344 7.507812 37.445312 7.507812 L 32.519531 7.507812 C 32.359375 6.96875 32.15625 6.449219 31.914062 5.941406 C 31.667969 5.4375 31.386719 4.953125 31.066406 4.492188 C 30.746094 4.035156 30.390625 3.601562 30 3.199219 C 29.613281 2.796875 29.191406 2.425781 28.742188 2.089844 C 28.296875 1.757812 27.824219 1.457031 27.324219 1.199219 C 26.828125 0.941406 26.316406 0.722656 25.785156 0.542969 C 25.253906 0.367188 24.710938 0.234375 24.15625 0.144531 C 23.605469 0.0546875 23.046875 0.0117188 22.488281 0.0117188 C 21.929688 0.0117188 21.371094 0.0546875 20.820312 0.144531 C 20.265625 0.234375 19.726562 0.367188 19.195312 0.542969 C 18.660156 0.722656 18.148438 0.941406 17.652344 1.199219 C 17.15625 1.457031 16.683594 1.757812 16.234375 2.089844 C 15.785156 2.425781 15.367188 2.796875 14.976562 3.199219 C 14.585938 3.601562 14.230469 4.035156 13.910156 4.492188 C 13.589844 4.953125 13.308594 5.4375 13.0625 5.941406 C 12.820312 6.449219 12.621094 6.96875 12.460938 7.507812 L 7.53125 7.507812 C 7.324219 7.507812 7.148438 7.582031 7.003906 7.726562 C 6.855469 7.875 6.785156 8.050781 6.785156 8.257812 L 6.785156 11.050781 L 0.15625 22.355469 C 0 22.625 0.00390625 22.890625 0.179688 23.148438 C 0.546875 23.703125 1.003906 24.171875 1.550781 24.554688 Z M 10.523438 31.496094 L 15.011719 31.496094 L 15.011719 32.992188 L 10.523438 32.992188 Z M 12.019531 29.996094 L 12.765625 28.996094 L 13.515625 29.996094 Z M 10.148438 29.996094 L 9.773438 29.996094 C 9.570312 29.996094 9.390625 30.070312 9.246094 30.214844 C 9.101562 30.363281 9.027344 30.539062 9.027344 30.746094 L 9.027344 33.742188 C 9.027344 33.949219 9.101562 34.128906 9.246094 34.273438 C 9.390625 34.417969 9.570312 34.492188 9.773438 34.492188 L 15.757812 34.492188 C 15.964844 34.492188 16.140625 34.417969 16.285156 34.273438 C 16.433594 34.128906 16.507812 33.949219 16.507812 33.742188 L 16.507812 30.746094 C 16.507812 30.539062 16.433594 30.363281 16.285156 30.214844 C 16.140625 30.070312 15.964844 29.996094 15.757812 29.996094 L 15.382812 29.996094 L 14.261719 28.496094 L 17.253906 28.496094 L 17.253906 43.488281 L 6.785156 43.488281 L 6.785156 28.496094 L 11.269531 28.496094 Z M 41.933594 43.488281 L 18.75 43.488281 L 18.75 27.746094 C 18.75 27.539062 18.675781 27.363281 18.53125 27.214844 C 18.382812 27.070312 18.207031 26.996094 18 26.996094 L 6.035156 26.996094 C 5.828125 26.996094 5.652344 27.070312 5.507812 27.214844 C 5.359375 27.363281 5.289062 27.539062 5.289062 27.746094 L 5.289062 43.488281 L 3.042969 43.488281 L 3.042969 25.269531 C 3.53125 25.417969 4.03125 25.496094 4.539062 25.496094 C 6.589844 25.496094 8.195312 24.722656 9.066406 23.4375 C 9.972656 24.695312 11.589844 25.496094 13.515625 25.496094 C 15.5625 25.496094 17.171875 24.722656 18.039062 23.4375 C 18.945312 24.695312 20.566406 25.496094 22.488281 25.496094 C 24.535156 25.496094 26.144531 24.722656 27.011719 23.4375 C 27.921875 24.695312 29.539062 25.496094 31.464844 25.496094 C 33.480469 25.496094 35.074219 24.746094 35.949219 23.492188 C 36.824219 24.746094 38.417969 25.496094 40.4375 25.496094 C 40.945312 25.496094 41.445312 25.417969 41.933594 25.269531 Z M 17.253906 19.582031 L 17.253906 21 C 17.253906 23.210938 15.320312 24 13.515625 24 C 11.382812 24 9.835938 22.777344 9.785156 21.082031 L 12.300781 12.886719 C 12.632812 14.296875 13.226562 15.582031 14.085938 16.746094 C 14.949219 17.910156 16.003906 18.855469 17.253906 19.582031 Z M 32.675781 12.886719 L 35.195312 21.09375 C 35.140625 23.230469 33.242188 24 31.460938 24 C 29.296875 24 27.722656 22.738281 27.722656 21 L 27.722656 19.582031 C 28.972656 18.855469 30.027344 17.910156 30.890625 16.746094 C 31.75 15.582031 32.347656 14.296875 32.675781 12.886719 Z M 26.226562 21 C 26.226562 23.210938 24.296875 24 22.488281 24 C 20.320312 24 18.75 22.738281 18.75 21 L 18.75 20.296875 C 19.953125 20.765625 21.199219 21 22.488281 21 C 23.777344 21 25.027344 20.765625 26.226562 20.296875 Z M 40.4375 24 C 38.628906 24 36.699219 23.210938 36.699219 21 C 36.679688 20.925781 36.667969 20.855469 36.664062 20.78125 L 33.972656 12.003906 L 37.019531 12.003906 L 43.277344 22.683594 C 42.925781 23.101562 42.5 23.425781 42.003906 23.65625 C 41.503906 23.882812 40.984375 24 40.4375 24 Z M 36.699219 9.007812 L 36.699219 10.503906 L 32.957031 10.503906 C 32.953125 10.003906 32.914062 9.503906 32.839844 9.007812 Z M 22.488281 1.511719 C 23.078125 1.511719 23.660156 1.566406 24.238281 1.683594 C 24.816406 1.796875 25.378906 1.96875 25.921875 2.195312 C 26.46875 2.421875 26.984375 2.699219 27.472656 3.027344 C 27.964844 3.355469 28.417969 3.726562 28.835938 4.144531 C 29.25 4.5625 29.625 5.015625 29.949219 5.507812 C 30.277344 6 30.554688 6.519531 30.78125 7.0625 C 31.003906 7.609375 31.175781 8.171875 31.289062 8.75 C 31.40625 9.328125 31.464844 9.914062 31.464844 10.503906 C 31.464844 11.097656 31.40625 11.679688 31.289062 12.261719 C 31.175781 12.839844 31.003906 13.402344 30.78125 13.949219 C 30.554688 14.492188 30.277344 15.011719 29.949219 15.503906 C 29.625 15.996094 29.25 16.449219 28.835938 16.867188 C 28.417969 17.285156 27.964844 17.65625 27.472656 17.984375 C 26.984375 18.3125 26.46875 18.589844 25.921875 18.816406 C 25.378906 19.042969 24.816406 19.210938 24.238281 19.328125 C 23.660156 19.441406 23.078125 19.5 22.488281 19.5 C 21.898438 19.5 21.316406 19.441406 20.738281 19.328125 C 20.160156 19.210938 19.597656 19.042969 19.054688 18.816406 C 18.511719 18.589844 17.992188 18.3125 17.503906 17.984375 C 17.011719 17.65625 16.558594 17.285156 16.144531 16.867188 C 15.726562 16.449219 15.355469 15.996094 15.027344 15.503906 C 14.699219 15.011719 14.421875 14.492188 14.199219 13.949219 C 13.972656 13.402344 13.800781 12.839844 13.6875 12.261719 C 13.570312 11.679688 13.515625 11.097656 13.515625 10.503906 C 13.515625 9.914062 13.574219 9.332031 13.6875 8.75 C 13.804688 8.171875 13.976562 7.609375 14.199219 7.066406 C 14.425781 6.519531 14.703125 6 15.03125 5.511719 C 15.359375 5.019531 15.730469 4.566406 16.144531 4.148438 C 16.5625 3.730469 17.015625 3.359375 17.503906 3.03125 C 17.996094 2.703125 18.511719 2.425781 19.054688 2.199219 C 19.601562 1.972656 20.160156 1.800781 20.738281 1.683594 C 21.316406 1.570312 21.898438 1.511719 22.488281 1.511719 Z M 12.136719 9.007812 C 12.0625 9.503906 12.023438 10.003906 12.019531 10.503906 L 8.28125 10.503906 L 8.28125 9.007812 Z M 7.960938 12.003906 L 11.007812 12.003906 L 8.3125 20.78125 C 8.304688 20.816406 8.304688 20.851562 8.300781 20.890625 C 8.292969 20.925781 8.285156 20.960938 8.28125 21 C 8.28125 23.210938 6.347656 24 4.539062 24 C 3.992188 24 3.472656 23.882812 2.976562 23.65625 C 2.480469 23.425781 2.054688 23.101562 1.699219 22.683594 Z M 7.960938 12.003906 " fill-opacity="1" fill-rule="nonzero"/></g><path fill="#000000" d="M 8.28125 37.492188 L 9.027344 37.492188 C 9.234375 37.492188 9.410156 37.417969 9.554688 37.273438 C 9.703125 37.125 9.773438 36.949219 9.773438 36.742188 C 9.773438 36.535156 9.703125 36.359375 9.554688 36.210938 C 9.410156 36.066406 9.234375 35.992188 9.027344 35.992188 L 8.28125 35.992188 C 8.074219 35.992188 7.898438 36.066406 7.75 36.210938 C 7.605469 36.359375 7.53125 36.535156 7.53125 36.742188 C 7.53125 36.949219 7.605469 37.125 7.75 37.273438 C 7.898438 37.417969 8.074219 37.492188 8.28125 37.492188 Z M 8.28125 37.492188 " fill-opacity="1" fill-rule="nonzero"/><path fill="#000000" d="M 18.277344 17.0625 C 18.417969 17.1875 18.582031 17.253906 18.769531 17.253906 L 23.960938 17.253906 C 24.152344 17.253906 24.316406 17.1875 24.457031 17.0625 C 25.121094 16.460938 25.675781 15.777344 26.128906 15.003906 L 27.347656 15.003906 C 27.679688 15.003906 28.003906 14.945312 28.3125 14.820312 C 28.621094 14.699219 28.894531 14.527344 29.140625 14.296875 C 29.382812 14.070312 29.574219 13.804688 29.714844 13.503906 C 29.859375 13.203125 29.941406 12.886719 29.960938 12.554688 C 29.984375 12.222656 29.941406 11.898438 29.839844 11.582031 C 29.738281 11.265625 29.582031 10.976562 29.371094 10.722656 C 29.160156 10.464844 28.90625 10.253906 28.617188 10.09375 C 28.324219 9.933594 28.015625 9.832031 27.6875 9.789062 C 27.703125 9.53125 27.722656 9.269531 27.722656 9.007812 C 27.722656 8.800781 27.648438 8.621094 27.503906 8.476562 C 27.359375 8.332031 27.183594 8.257812 26.976562 8.257812 L 15.757812 8.257812 C 15.550781 8.257812 15.375 8.332031 15.230469 8.476562 C 15.082031 8.621094 15.011719 8.800781 15.011719 9.007812 C 15.011719 12.238281 16.230469 15.25 18.277344 17.0625 Z M 28.472656 12.378906 C 28.472656 12.527344 28.441406 12.671875 28.386719 12.808594 C 28.328125 12.949219 28.246094 13.070312 28.144531 13.175781 C 28.039062 13.28125 27.917969 13.359375 27.777344 13.417969 C 27.640625 13.476562 27.5 13.503906 27.351562 13.503906 L 26.878906 13.503906 C 27.164062 12.78125 27.378906 12.039062 27.515625 11.273438 C 27.789062 11.3125 28.015625 11.4375 28.199219 11.648438 C 28.378906 11.859375 28.472656 12.101562 28.472656 12.378906 Z M 26.203125 9.757812 C 26.1875 10.007812 26.15625 10.257812 26.125 10.503906 L 26.125 10.507812 C 25.839844 12.609375 24.972656 14.492188 23.667969 15.753906 L 19.0625 15.753906 C 17.609375 14.34375 16.691406 12.160156 16.53125 9.757812 Z M 26.203125 9.757812 " fill-opacity="1" fill-rule="nonzero"/><path fill="#000000" d="M 18.75 7.507812 C 18.957031 7.507812 19.132812 7.433594 19.277344 7.289062 C 19.425781 7.140625 19.496094 6.964844 19.496094 6.757812 L 19.496094 4.507812 C 19.496094 4.300781 19.425781 4.125 19.277344 3.980469 C 19.132812 3.832031 18.957031 3.757812 18.75 3.757812 C 18.542969 3.757812 18.367188 3.832031 18.21875 3.980469 C 18.074219 4.125 18 4.300781 18 4.507812 L 18 6.757812 C 18 6.964844 18.074219 7.140625 18.21875 7.289062 C 18.367188 7.433594 18.542969 7.507812 18.75 7.507812 Z M 18.75 7.507812 " fill-opacity="1" fill-rule="nonzero"/><path fill="#000000" d="M 20.992188 7.507812 C 21.199219 7.507812 21.375 7.433594 21.523438 7.289062 C 21.667969 7.140625 21.742188 6.964844 21.742188 6.757812 L 21.742188 4.507812 C 21.742188 4.300781 21.667969 4.125 21.523438 3.980469 C 21.375 3.832031 21.199219 3.757812 20.992188 3.757812 C 20.785156 3.757812 20.609375 3.832031 20.464844 3.980469 C 20.316406 4.125 20.246094 4.300781 20.246094 4.507812 L 20.246094 6.757812 C 20.246094 6.964844 20.316406 7.140625 20.464844 7.289062 C 20.609375 7.433594 20.785156 7.507812 20.992188 7.507812 Z M 20.992188 7.507812 " fill-opacity="1" fill-rule="nonzero"/><path fill="#000000" d="M 23.238281 7.507812 C 23.441406 7.507812 23.621094 7.433594 23.765625 7.289062 C 23.910156 7.140625 23.984375 6.964844 23.984375 6.757812 L 23.984375 4.507812 C 23.984375 4.300781 23.910156 4.125 23.765625 3.980469 C 23.621094 3.832031 23.441406 3.757812 23.238281 3.757812 C 23.03125 3.757812 22.855469 3.832031 22.707031 3.980469 C 22.5625 4.125 22.488281 4.300781 22.488281 4.507812 L 22.488281 6.757812 C 22.488281 6.964844 22.5625 7.140625 22.707031 7.289062 C 22.855469 7.433594 23.03125 7.507812 23.238281 7.507812 Z M 23.238281 7.507812 " fill-opacity="1" fill-rule="nonzero"/><path fill="#000000" d="M 26.570312 31.722656 C 26.949219 31.972656 27.367188 32.101562 27.824219 32.105469 C 28.066406 32.109375 28.300781 32.066406 28.53125 31.980469 C 29.152344 31.742188 29.625 31.199219 29.832031 30.488281 C 30.019531 29.78125 29.984375 29.089844 29.71875 28.410156 C 29.140625 26.882812 27.714844 26.054688 26.472656 26.523438 C 25.851562 26.757812 25.375 27.304688 25.167969 28.015625 C 25.082031 28.359375 25.046875 28.710938 25.066406 29.0625 C 25.085938 29.417969 25.160156 29.761719 25.285156 30.089844 C 25.410156 30.421875 25.582031 30.726562 25.800781 31.007812 C 26.019531 31.285156 26.277344 31.523438 26.570312 31.722656 Z M 26.605469 28.433594 C 26.648438 28.285156 26.757812 28.019531 27 27.925781 C 27.058594 27.90625 27.117188 27.894531 27.175781 27.894531 C 27.558594 27.894531 28.0625 28.269531 28.316406 28.941406 C 28.464844 29.308594 28.492188 29.683594 28.394531 30.070312 C 28.351562 30.21875 28.242188 30.484375 28 30.578125 C 27.757812 30.667969 27.5 30.542969 27.371094 30.457031 C 27.050781 30.226562 26.824219 29.929688 26.683594 29.5625 C 26.546875 29.191406 26.519531 28.816406 26.605469 28.433594 Z M 26.605469 28.433594 " fill-opacity="1" fill-rule="nonzero"/><path fill="#000000" d="M 35.042969 37.78125 C 34.636719 37.527344 34.316406 37.191406 34.089844 36.769531 C 33.859375 36.347656 33.746094 35.898438 33.753906 35.417969 C 33.753906 33.8125 32.253906 32.503906 30.410156 32.503906 C 28.566406 32.503906 27.070312 33.8125 27.070312 35.433594 C 27.074219 35.910156 26.960938 36.359375 26.730469 36.777344 C 26.5 37.195312 26.183594 37.53125 25.777344 37.78125 C 24.890625 38.320312 24.476562 39.085938 24.476562 40.1875 C 24.476562 40.976562 24.566406 41.945312 25.261719 42.449219 C 26.007812 42.984375 26.949219 42.671875 27.953125 42.335938 C 28.699219 42.085938 29.542969 41.804688 30.410156 41.804688 C 31.277344 41.804688 32.125 42.085938 32.871094 42.335938 C 33.480469 42.539062 34.070312 42.738281 34.609375 42.738281 C 34.957031 42.746094 35.273438 42.652344 35.558594 42.449219 C 36.257812 41.945312 36.347656 40.976562 36.347656 40.1875 C 36.347656 39.085938 35.933594 38.320312 35.042969 37.78125 Z M 34.691406 41.230469 C 34.515625 41.304688 33.808594 41.070312 33.34375 40.914062 C 32.53125 40.640625 31.519531 40.304688 30.410156 40.304688 C 29.300781 40.304688 28.289062 40.640625 27.476562 40.914062 C 27.011719 41.070312 26.308594 41.304688 26.140625 41.234375 C 26.136719 41.234375 25.96875 41.066406 25.96875 40.1875 C 25.96875 39.535156 26.167969 39.296875 26.554688 39.0625 C 27.183594 38.675781 27.675781 38.15625 28.035156 37.507812 C 28.394531 36.855469 28.570312 36.160156 28.5625 35.417969 C 28.5625 34.636719 29.394531 34.003906 30.410156 34.003906 C 31.429688 34.003906 32.257812 34.636719 32.257812 35.425781 C 32.25 36.167969 32.429688 36.859375 32.785156 37.507812 C 33.144531 38.15625 33.636719 38.675781 34.269531 39.0625 C 34.65625 39.296875 34.851562 39.535156 34.851562 40.1875 C 34.851562 41.054688 34.6875 41.230469 34.691406 41.230469 Z M 34.691406 41.230469 " fill-opacity="1" fill-rule="nonzero"/><path fill="#000000" d="M 25.59375 32.445312 C 25.179688 31.847656 24.625 31.429688 23.9375 31.195312 C 23.230469 30.972656 22.515625 31.066406 21.976562 31.453125 C 21.433594 31.839844 21.117188 32.488281 21.097656 33.230469 C 21.09375 33.960938 21.308594 34.621094 21.742188 35.207031 C 22.371094 36.09375 23.285156 36.582031 24.148438 36.582031 C 24.59375 36.585938 24.996094 36.457031 25.359375 36.199219 C 26.441406 35.421875 26.542969 33.773438 25.59375 32.445312 Z M 24.488281 34.980469 C 24.15625 35.21875 23.441406 35.015625 22.957031 34.335938 C 22.722656 34.019531 22.597656 33.660156 22.59375 33.265625 C 22.597656 33.109375 22.632812 32.824219 22.84375 32.671875 C 22.945312 32.605469 23.058594 32.570312 23.179688 32.574219 C 23.285156 32.578125 23.386719 32.59375 23.484375 32.625 C 23.855469 32.761719 24.15625 32.988281 24.378906 33.316406 C 24.863281 33.996094 24.824219 34.738281 24.488281 34.980469 Z M 24.488281 34.980469 " fill-opacity="1" fill-rule="nonzero"/><path fill="#000000" d="M 32.125 32.007812 C 32.347656 32.09375 32.582031 32.132812 32.824219 32.132812 C 33.863281 32.132812 34.890625 31.339844 35.351562 30.089844 C 35.609375 29.40625 35.640625 28.714844 35.445312 28.011719 C 35.234375 27.300781 34.753906 26.761719 34.128906 26.535156 C 32.882812 26.074219 31.464844 26.917969 30.902344 28.453125 C 30.339844 29.988281 30.875 31.550781 32.125 32.007812 Z M 32.304688 28.96875 C 32.59375 28.183594 33.226562 27.796875 33.613281 27.941406 C 33.855469 28.03125 33.96875 28.296875 34.011719 28.445312 C 34.113281 28.828125 34.089844 29.203125 33.945312 29.574219 C 33.660156 30.355469 33.023438 30.746094 32.640625 30.601562 C 32.25 30.457031 32.019531 29.753906 32.304688 28.96875 Z M 32.304688 28.96875 " fill-opacity="1" fill-rule="nonzero"/><path fill="#000000" d="M 38.671875 31.417969 C 38.128906 31.039062 37.414062 30.949219 36.707031 31.179688 C 36.375 31.300781 36.070312 31.46875 35.789062 31.6875 C 35.507812 31.902344 35.265625 32.15625 35.0625 32.445312 C 34.859375 32.734375 34.707031 33.050781 34.597656 33.386719 C 34.492188 33.726562 34.4375 34.074219 34.441406 34.429688 C 34.464844 35.171875 34.789062 35.816406 35.332031 36.195312 C 35.691406 36.449219 36.089844 36.570312 36.527344 36.566406 C 37.394531 36.566406 38.316406 36.070312 38.941406 35.171875 C 39.878906 33.832031 39.761719 32.183594 38.671875 31.417969 Z M 37.71875 34.308594 C 37.238281 34.996094 36.527344 35.207031 36.191406 34.96875 C 35.980469 34.820312 35.941406 34.535156 35.933594 34.378906 C 35.945312 33.984375 36.0625 33.628906 36.289062 33.304688 C 36.511719 32.984375 36.808594 32.75 37.175781 32.605469 C 37.273438 32.570312 37.378906 32.554688 37.484375 32.550781 C 37.605469 32.550781 37.714844 32.582031 37.8125 32.648438 C 38.152344 32.886719 38.195312 33.625 37.71875 34.308594 Z M 37.71875 34.308594 " fill-opacity="1" fill-rule="nonzero"/><g fill="#000000" fill-opacity="1"><g transform="translate(59.920059, 31.610882)"><g><path d="M 25.921875 -3.15625 C 25.921875 -1.550781 25.28125 -0.175781 24 0.96875 C 22.71875 2.113281 21.15625 2.6875 19.3125 2.6875 C 17.445312 2.6875 15.863281 2.117188 14.5625 0.984375 C 13.269531 -0.148438 12.625 -1.53125 12.625 -3.15625 C 12.625 -4.78125 13.269531 -6.160156 14.5625 -7.296875 C 15.863281 -8.429688 17.445312 -9 19.3125 -9 C 21.15625 -9 22.71875 -8.425781 24 -7.28125 C 25.28125 -6.132812 25.921875 -4.757812 25.921875 -3.15625 Z M 2.015625 -20.734375 C 2.015625 -21.160156 2.140625 -21.546875 2.390625 -21.890625 C 2.640625 -22.234375 3.097656 -22.40625 3.765625 -22.40625 L 11.703125 -22.40625 C 12.410156 -22.40625 12.757812 -21.929688 12.75 -20.984375 C 12.738281 -20.046875 12.390625 -19.578125 11.703125 -19.578125 L 5.59375 -19.578125 C 5.457031 -19.578125 5.378906 -19.550781 5.359375 -19.5 C 5.347656 -19.445312 5.34375 -19.382812 5.34375 -19.3125 L 5.34375 -10.28125 C 5.34375 -10.207031 5.363281 -10.132812 5.40625 -10.0625 C 5.445312 -10 5.507812 -9.976562 5.59375 -10 C 6.5 -10.257812 7.519531 -10.664062 8.65625 -11.21875 C 9.789062 -11.78125 10.945312 -12.546875 12.125 -13.515625 C 12.945312 -14.210938 13.632812 -14.109375 14.1875 -13.203125 C 14.75 -12.296875 14.65625 -11.523438 13.90625 -10.890625 C 12.9375 -10.054688 11.503906 -9.140625 9.609375 -8.140625 C 7.710938 -7.148438 5.765625 -6.429688 3.765625 -5.984375 C 3.335938 -5.890625 2.9375 -5.941406 2.5625 -6.140625 C 2.195312 -6.347656 2.015625 -6.664062 2.015625 -7.09375 Z M 18.5 -10.5625 C 18.5 -9.664062 17.941406 -9.21875 16.828125 -9.21875 C 15.722656 -9.21875 15.171875 -9.664062 15.171875 -10.5625 L 15.171875 -21.671875 C 15.171875 -22.566406 15.722656 -23.015625 16.828125 -23.015625 C 17.941406 -23.015625 18.5 -22.566406 18.5 -21.671875 L 18.5 -17.828125 L 20.59375 -17.828125 C 20.875 -17.828125 21.097656 -17.75 21.265625 -17.59375 L 21.265625 -21.671875 C 21.265625 -22.566406 21.816406 -23.015625 22.921875 -23.015625 C 24.023438 -23.015625 24.578125 -22.566406 24.578125 -21.671875 L 24.578125 -10.5625 C 24.578125 -9.664062 24.023438 -9.21875 22.921875 -9.21875 C 21.816406 -9.21875 21.265625 -9.664062 21.265625 -10.5625 L 21.265625 -15.21875 C 21.097656 -15.070312 20.875 -15 20.59375 -15 L 18.5 -15 Z M 22.59375 -3.15625 C 22.59375 -4 22.269531 -4.707031 21.625 -5.28125 C 20.988281 -5.851562 20.21875 -6.140625 19.3125 -6.140625 C 18.394531 -6.140625 17.613281 -5.851562 16.96875 -5.28125 C 16.332031 -4.707031 16.015625 -4 16.015625 -3.15625 C 16.015625 -2.320312 16.332031 -1.613281 16.96875 -1.03125 C 17.613281 -0.457031 18.394531 -0.171875 19.3125 -0.171875 C 20.21875 -0.171875 20.988281 -0.457031 21.625 -1.03125 C 22.269531 -1.613281 22.59375 -2.320312 22.59375 -3.15625 Z M 22.59375 -3.15625 "/></g></g></g><g fill="#000000" fill-opacity="1"><g transform="translate(87.850699, 31.610882)"><g><path d="M 25.921875 -3.15625 C 25.921875 -1.550781 25.28125 -0.175781 24 0.96875 C 22.71875 2.113281 21.15625 2.6875 19.3125 2.6875 C 17.445312 2.6875 15.863281 2.117188 14.5625 0.984375 C 13.269531 -0.148438 12.625 -1.53125 12.625 -3.15625 C 12.625 -4.78125 13.269531 -6.160156 14.5625 -7.296875 C 15.863281 -8.429688 17.445312 -9 19.3125 -9 C 21.15625 -9 22.71875 -8.425781 24 -7.28125 C 25.28125 -6.132812 25.921875 -4.757812 25.921875 -3.15625 Z M 2.015625 -20.734375 C 2.015625 -21.160156 2.140625 -21.546875 2.390625 -21.890625 C 2.640625 -22.234375 3.097656 -22.40625 3.765625 -22.40625 L 11.703125 -22.40625 C 12.410156 -22.40625 12.757812 -21.929688 12.75 -20.984375 C 12.738281 -20.046875 12.390625 -19.578125 11.703125 -19.578125 L 5.59375 -19.578125 C 5.457031 -19.578125 5.378906 -19.550781 5.359375 -19.5 C 5.347656 -19.445312 5.34375 -19.382812 5.34375 -19.3125 L 5.34375 -10.28125 C 5.34375 -10.207031 5.363281 -10.132812 5.40625 -10.0625 C 5.445312 -10 5.507812 -9.976562 5.59375 -10 C 6.5 -10.257812 7.519531 -10.664062 8.65625 -11.21875 C 9.789062 -11.78125 10.945312 -12.546875 12.125 -13.515625 C 12.945312 -14.210938 13.632812 -14.109375 14.1875 -13.203125 C 14.75 -12.296875 14.65625 -11.523438 13.90625 -10.890625 C 12.9375 -10.054688 11.503906 -9.140625 9.609375 -8.140625 C 7.710938 -7.148438 5.765625 -6.429688 3.765625 -5.984375 C 3.335938 -5.890625 2.9375 -5.941406 2.5625 -6.140625 C 2.195312 -6.347656 2.015625 -6.664062 2.015625 -7.09375 Z M 18.5 -10.5625 C 18.5 -9.664062 17.941406 -9.21875 16.828125 -9.21875 C 15.722656 -9.21875 15.171875 -9.664062 15.171875 -10.5625 L 15.171875 -21.671875 C 15.171875 -22.566406 15.722656 -23.015625 16.828125 -23.015625 C 17.941406 -23.015625 18.5 -22.566406 18.5 -21.671875 L 18.5 -17.828125 L 20.59375 -17.828125 C 20.875 -17.828125 21.097656 -17.75 21.265625 -17.59375 L 21.265625 -21.671875 C 21.265625 -22.566406 21.816406 -23.015625 22.921875 -23.015625 C 24.023438 -23.015625 24.578125 -22.566406 24.578125 -21.671875 L 24.578125 -10.5625 C 24.578125 -9.664062 24.023438 -9.21875 22.921875 -9.21875 C 21.816406 -9.21875 21.265625 -9.664062 21.265625 -10.5625 L 21.265625 -15.21875 C 21.097656 -15.070312 20.875 -15 20.59375 -15 L 18.5 -15 Z M 22.59375 -3.15625 C 22.59375 -4 22.269531 -4.707031 21.625 -5.28125 C 20.988281 -5.851562 20.21875 -6.140625 19.3125 -6.140625 C 18.394531 -6.140625 17.613281 -5.851562 16.96875 -5.28125 C 16.332031 -4.707031 16.015625 -4 16.015625 -3.15625 C 16.015625 -2.320312 16.332031 -1.613281 16.96875 -1.03125 C 17.613281 -0.457031 18.394531 -0.171875 19.3125 -0.171875 C 20.21875 -0.171875 20.988281 -0.457031 21.625 -1.03125 C 22.269531 -1.613281 22.59375 -2.320312 22.59375 -3.15625 Z M 22.59375 -3.15625 "/></g></g></g><g fill="#000000" fill-opacity="1"><g transform="translate(115.781338, 31.610882)"><g><path d="M 7.09375 2.046875 C 6.425781 2.046875 5.96875 1.867188 5.71875 1.515625 C 5.46875 1.171875 5.34375 0.785156 5.34375 0.359375 L 5.34375 -2.765625 C 5.34375 -3.191406 5.46875 -3.578125 5.71875 -3.921875 C 5.96875 -4.265625 6.425781 -4.4375 7.09375 -4.4375 L 18.359375 -4.4375 C 18.484375 -4.4375 18.554688 -4.460938 18.578125 -4.515625 C 18.597656 -4.578125 18.609375 -4.644531 18.609375 -4.71875 L 18.609375 -5.25 C 18.609375 -5.320312 18.597656 -5.382812 18.578125 -5.4375 C 18.554688 -5.5 18.484375 -5.53125 18.359375 -5.53125 L 6.234375 -5.53125 C 5.546875 -5.53125 5.195312 -5.976562 5.1875 -6.875 C 5.175781 -7.78125 5.523438 -8.234375 6.234375 -8.234375 L 20.171875 -8.234375 C 20.835938 -8.234375 21.296875 -8.0625 21.546875 -7.71875 C 21.804688 -7.375 21.9375 -6.988281 21.9375 -6.5625 L 21.9375 -3.40625 C 21.9375 -2.976562 21.804688 -2.59375 21.546875 -2.25 C 21.296875 -1.90625 20.835938 -1.734375 20.171875 -1.734375 L 8.90625 -1.734375 C 8.78125 -1.734375 8.707031 -1.703125 8.6875 -1.640625 C 8.664062 -1.585938 8.65625 -1.523438 8.65625 -1.453125 L 8.65625 -0.953125 C 8.65625 -0.878906 8.664062 -0.8125 8.6875 -0.75 C 8.707031 -0.695312 8.78125 -0.671875 8.90625 -0.671875 L 21.546875 -0.671875 C 22.265625 -0.671875 22.617188 -0.21875 22.609375 0.6875 C 22.597656 1.59375 22.242188 2.046875 21.546875 2.046875 Z M 1.484375 -9.328125 C 0.796875 -9.328125 0.445312 -9.765625 0.4375 -10.640625 C 0.425781 -11.515625 0.773438 -11.953125 1.484375 -11.953125 L 22.46875 -11.953125 C 23.1875 -11.953125 23.539062 -11.515625 23.53125 -10.640625 C 23.519531 -9.765625 23.164062 -9.328125 22.46875 -9.328125 Z M 3.90625 -19.578125 C 3.21875 -19.578125 2.867188 -20.046875 2.859375 -20.984375 C 2.847656 -21.929688 3.195312 -22.40625 3.90625 -22.40625 L 20.28125 -22.40625 C 21.007812 -22.40625 21.367188 -21.929688 21.359375 -20.984375 C 21.347656 -20.046875 20.988281 -19.578125 20.28125 -19.578125 Z M 15.5 -13.078125 C 14.832031 -13.078125 14.375 -13.25 14.125 -13.59375 C 13.875 -13.9375 13.75 -14.320312 13.75 -14.75 L 13.75 -17.828125 C 13.75 -18.722656 14.300781 -19.171875 15.40625 -19.171875 C 16.507812 -19.171875 17.0625 -18.722656 17.0625 -17.828125 L 17.0625 -16.171875 C 17.0625 -16.097656 17.070312 -16.03125 17.09375 -15.96875 C 17.113281 -15.914062 17.191406 -15.890625 17.328125 -15.890625 L 20.28125 -15.890625 C 20.96875 -15.890625 21.316406 -15.421875 21.328125 -14.484375 C 21.335938 -13.546875 20.988281 -13.078125 20.28125 -13.078125 Z M 10.453125 -14.75 C 10.453125 -14.320312 10.320312 -13.9375 10.0625 -13.59375 C 9.8125 -13.25 9.351562 -13.078125 8.6875 -13.078125 L 3.890625 -13.078125 C 3.179688 -13.078125 2.828125 -13.546875 2.828125 -14.484375 C 2.835938 -15.421875 3.191406 -15.890625 3.890625 -15.890625 L 6.875 -15.890625 C 7 -15.890625 7.070312 -15.914062 7.09375 -15.96875 C 7.113281 -16.03125 7.125 -16.097656 7.125 -16.171875 L 7.125 -17.828125 C 7.125 -18.722656 7.675781 -19.171875 8.78125 -19.171875 C 9.894531 -19.171875 10.453125 -18.722656 10.453125 -17.828125 Z M 10.453125 -14.75 "/></g></g></g><g fill="#000000" fill-opacity="1"><g transform="translate(139.689959, 31.610882)"><g><path d="M 13.1875 -14.296875 C 13.1875 -14.117188 13.160156 -13.941406 13.109375 -13.765625 L 15.953125 -13.765625 L 15.953125 -21.671875 C 15.953125 -22.566406 16.503906 -23.015625 17.609375 -23.015625 C 18.722656 -23.015625 19.28125 -22.566406 19.28125 -21.671875 L 19.28125 -0.609375 C 19.28125 0.273438 18.722656 0.71875 17.609375 0.71875 C 16.503906 0.71875 15.953125 0.273438 15.953125 -0.609375 L 15.953125 -10.953125 L 12.65625 -10.953125 C 11.96875 -10.953125 11.613281 -11.414062 11.59375 -12.34375 L 11.59375 -12.625 L 5.59375 -12.625 C 5.457031 -12.625 5.378906 -12.59375 5.359375 -12.53125 C 5.347656 -12.476562 5.34375 -12.414062 5.34375 -12.34375 L 5.34375 -6.265625 C 5.34375 -6.179688 5.363281 -6.113281 5.40625 -6.0625 C 5.445312 -6.007812 5.507812 -5.984375 5.59375 -5.984375 C 6.6875 -5.921875 7.992188 -6.113281 9.515625 -6.5625 C 11.046875 -7.007812 12.425781 -7.523438 13.65625 -8.109375 C 14.363281 -8.421875 14.90625 -8.128906 15.28125 -7.234375 C 15.65625 -6.335938 15.375 -5.664062 14.4375 -5.21875 C 13.25 -4.644531 11.796875 -4.117188 10.078125 -3.640625 C 8.367188 -3.171875 6.265625 -2.90625 3.765625 -2.84375 C 3.304688 -2.832031 2.898438 -3.007812 2.546875 -3.375 C 2.191406 -3.75 2.015625 -4.148438 2.015625 -4.578125 L 2.015625 -13.765625 C 2.015625 -14.203125 2.140625 -14.59375 2.390625 -14.9375 C 2.640625 -15.28125 3.097656 -15.453125 3.765625 -15.453125 L 9.609375 -15.453125 C 9.742188 -15.453125 9.816406 -15.476562 9.828125 -15.53125 C 9.847656 -15.582031 9.859375 -15.648438 9.859375 -15.734375 L 9.859375 -19.3125 C 9.859375 -19.382812 9.847656 -19.445312 9.828125 -19.5 C 9.816406 -19.550781 9.742188 -19.578125 9.609375 -19.578125 L 3.078125 -19.578125 C 2.390625 -19.578125 2.039062 -20.046875 2.03125 -20.984375 C 2.019531 -21.929688 2.367188 -22.40625 3.078125 -22.40625 L 11.421875 -22.40625 C 12.097656 -22.40625 12.5625 -22.234375 12.8125 -21.890625 C 13.0625 -21.546875 13.1875 -21.160156 13.1875 -20.734375 Z M 24.578125 -0.609375 C 24.578125 0.273438 24.023438 0.71875 22.921875 0.71875 C 21.816406 0.71875 21.265625 0.273438 21.265625 -0.609375 L 21.265625 -21.671875 C 21.265625 -22.566406 21.816406 -23.015625 22.921875 -23.015625 C 24.023438 -23.015625 24.578125 -22.566406 24.578125 -21.671875 Z M 24.578125 -0.609375 "/></g></g></g><g fill="#000000" fill-opacity="1"><g transform="translate(166.922323, 31.610882)"><g><path d="M 22.59375 -0.609375 C 22.59375 0.273438 22.039062 0.71875 20.9375 0.71875 C 19.832031 0.71875 19.28125 0.273438 19.28125 -0.609375 L 19.28125 -21.671875 C 19.28125 -22.566406 19.832031 -23.015625 20.9375 -23.015625 C 22.039062 -23.015625 22.59375 -22.566406 22.59375 -21.671875 Z M 15.453125 -12.796875 C 15.453125 -10.097656 14.820312 -7.769531 13.5625 -5.8125 C 12.300781 -3.851562 10.59375 -2.875 8.4375 -2.875 C 6.289062 -2.875 4.578125 -3.84375 3.296875 -5.78125 C 2.015625 -7.71875 1.375 -10.054688 1.375 -12.796875 C 1.375 -15.535156 2.015625 -17.875 3.296875 -19.8125 C 4.578125 -21.75 6.289062 -22.71875 8.4375 -22.71875 C 10.613281 -22.71875 12.328125 -21.742188 13.578125 -19.796875 C 14.828125 -17.847656 15.453125 -15.515625 15.453125 -12.796875 Z M 12.1875 -12.796875 C 12.1875 -14.785156 11.863281 -16.460938 11.21875 -17.828125 C 10.570312 -19.203125 9.644531 -19.890625 8.4375 -19.890625 C 7.257812 -19.890625 6.335938 -19.203125 5.671875 -17.828125 C 5.015625 -16.460938 4.6875 -14.785156 4.6875 -12.796875 C 4.6875 -10.804688 5.015625 -9.125 5.671875 -7.75 C 6.335938 -6.382812 7.257812 -5.703125 8.4375 -5.703125 C 9.644531 -5.703125 10.570312 -6.382812 11.21875 -7.75 C 11.863281 -9.125 12.1875 -10.804688 12.1875 -12.796875 Z M 12.1875 -12.796875 "/></g></g></g><g fill="#000000" fill-opacity="1"><g transform="translate(192.841953, 31.610882)"><g><path d="M 20.625 -12.515625 C 21.21875 -11.828125 21.082031 -11.15625 20.21875 -10.5 C 19.363281 -9.851562 18.648438 -9.875 18.078125 -10.5625 L 10.984375 -19.21875 L 3.890625 -10.5625 C 3.304688 -9.875 2.585938 -9.851562 1.734375 -10.5 C 0.890625 -11.15625 0.757812 -11.828125 1.34375 -12.515625 L 9.359375 -22.296875 C 9.804688 -22.816406 10.347656 -22.9375 10.984375 -22.65625 C 11.597656 -22.9375 12.132812 -22.816406 12.59375 -22.296875 Z M 1.484375 -1.953125 C 0.796875 -1.953125 0.445312 -2.421875 0.4375 -3.359375 C 0.425781 -4.304688 0.773438 -4.78125 1.484375 -4.78125 L 20.53125 -4.78125 C 21.257812 -4.78125 21.617188 -4.304688 21.609375 -3.359375 C 21.597656 -2.421875 21.238281 -1.953125 20.53125 -1.953125 Z M 1.484375 -1.953125 "/></g></g></g></svg>