<svg xmlns="http://www.w3.org/2000/svg" xmlns:xlink="http://www.w3.org/1999/xlink" width="300" zoomAndPan="magnify" viewBox="0 0 224.87999 225" height="300" preserveAspectRatio="xMidYMid meet" version="1.0"><defs><clipPath id="614918127a"><path d="M 0 0.0585938 L 224.761719 0.0585938 L 224.761719 224.9375 L 0 224.9375 Z M 0 0.0585938 " clip-rule="nonzero"/></clipPath></defs><g clip-path="url(#614918127a)"><path fill="#ffffff" d="M 0 0.0585938 L 224.878906 0.0585938 L 224.878906 224.941406 L 0 224.941406 Z M 0 0.0585938 " fill-opacity="1" fill-rule="nonzero"/><path fill="#ffffff" d="M 0 0.0585938 L 224.878906 0.0585938 L 224.878906 224.941406 L 0 224.941406 Z M 0 0.0585938 " fill-opacity="1" fill-rule="nonzero"/><path fill="#020066" d="M 112.441406 0.0585938 C 118.453125 0.0585938 123.78125 7.582031 129.53125 8.519531 C 135.28125 9.457031 142.566406 3.992188 147.976562 5.792969 C 153.386719 7.59375 155.855469 16.304688 160.855469 18.894531 C 165.851562 21.484375 174.339844 18.457031 178.84375 21.753906 C 183.351562 25.058594 182.996094 34.054688 186.941406 38 C 190.878906 41.9375 199.875 41.582031 203.179688 46.089844 C 206.476562 50.59375 203.449219 59.085938 206.039062 64.082031 C 208.628906 69.078125 217.339844 71.546875 219.140625 76.957031 C 220.941406 82.367188 215.476562 89.652344 216.414062 95.402344 C 217.351562 101.152344 224.875 106.480469 224.875 112.5 C 224.875 118.511719 217.351562 123.839844 216.414062 129.589844 C 215.476562 135.34375 220.941406 142.625 219.140625 148.035156 C 217.339844 153.445312 208.628906 155.917969 206.039062 160.917969 C 203.449219 165.910156 206.476562 174.398438 203.179688 178.902344 C 199.875 183.410156 190.878906 183.058594 186.941406 187 C 182.996094 190.9375 183.351562 199.9375 178.84375 203.242188 C 174.339844 206.539062 165.851562 203.507812 160.855469 206.097656 C 155.855469 208.6875 153.386719 217.402344 147.976562 219.203125 C 142.566406 221.003906 135.28125 215.539062 129.53125 216.476562 C 123.78125 217.414062 118.453125 224.933594 112.441406 224.933594 C 106.421875 224.933594 101.09375 217.414062 95.34375 216.476562 C 89.589844 215.539062 82.308594 221.003906 76.898438 219.203125 C 71.488281 217.402344 69.015625 208.6875 64.023438 206.097656 C 59.023438 203.507812 50.535156 206.539062 46.03125 203.242188 C 41.523438 199.9375 41.878906 190.9375 37.941406 187 C 33.996094 183.058594 24.996094 183.410156 21.691406 178.902344 C 18.394531 174.398438 21.425781 165.910156 18.835938 160.917969 C 16.246094 155.917969 7.535156 153.445312 5.730469 148.035156 C 3.929688 142.625 9.394531 135.34375 8.457031 129.589844 C 7.519531 123.839844 0 118.511719 0 112.5 C 0 106.480469 7.519531 101.152344 8.457031 95.402344 C 9.394531 89.652344 3.929688 82.367188 5.730469 76.957031 C 7.535156 71.546875 16.246094 69.078125 18.835938 64.082031 C 21.425781 59.085938 18.394531 50.59375 21.691406 46.089844 C 24.996094 41.582031 33.996094 41.9375 37.941406 38 C 41.878906 34.054688 41.523438 25.058594 46.03125 21.753906 C 50.535156 18.457031 59.023438 21.484375 64.023438 18.894531 C 69.015625 16.304688 71.488281 7.59375 76.898438 5.792969 C 82.308594 3.992188 89.589844 9.457031 95.34375 8.519531 C 101.09375 7.582031 106.421875 0.0585938 112.441406 0.0585938 Z M 112.441406 0.0585938 " fill-opacity="1" fill-rule="evenodd"/></g><path fill="#fefefe" d="M 130.933594 84.863281 L 145.996094 84.863281 C 153.660156 84.863281 159.925781 91.128906 159.925781 98.800781 L 159.925781 136.9375 C 159.925781 144.601562 153.660156 150.875 145.996094 150.875 L 108.707031 150.875 C 101.042969 150.875 94.769531 144.601562 94.769531 136.9375 L 94.769531 98.800781 C 94.769531 95.351562 96.039062 92.1875 98.132812 89.75 L 98.148438 89.734375 C 98.285156 89.570312 98.429688 89.414062 98.570312 89.261719 C 108.09375 78.671875 114.78125 69.652344 121.289062 58.617188 C 124.160156 53.753906 128.878906 51.300781 132.355469 52.238281 C 144.105469 55.414062 137.0625 74.921875 130.933594 84.863281 Z M 130.933594 84.863281 " fill-opacity="1" fill-rule="evenodd"/><path fill="#fefefe" d="M 75.828125 84.863281 C 81.808594 84.863281 86.703125 89.757812 86.703125 95.746094 L 86.703125 139.992188 C 86.703125 145.972656 81.808594 150.875 75.828125 150.875 C 69.84375 150.875 64.949219 145.972656 64.949219 139.992188 L 64.949219 95.746094 C 64.949219 89.757812 69.84375 84.863281 75.828125 84.863281 Z M 75.828125 84.863281 " fill-opacity="1" fill-rule="evenodd"/><path fill="#fefefe" d="M 112.441406 176.585938 L 116.140625 186.179688 L 126.40625 186.734375 L 118.425781 193.222656 L 121.074219 203.160156 L 112.441406 197.578125 L 103.800781 203.160156 L 106.445312 193.222656 L 98.464844 186.734375 L 108.730469 186.179688 Z M 112.441406 176.585938 " fill-opacity="1" fill-rule="evenodd"/><path fill="#fefefe" d="M 79.691406 174.058594 L 82.339844 180.90625 L 89.667969 181.304688 L 83.972656 185.9375 L 85.859375 193.035156 L 79.691406 189.042969 L 73.523438 193.035156 L 75.414062 185.9375 L 69.710938 181.304688 L 77.046875 180.90625 Z M 79.691406 174.058594 " fill-opacity="1" fill-rule="evenodd"/><path fill="#fefefe" d="M 145.179688 174.058594 L 147.828125 180.90625 L 155.160156 181.304688 L 149.460938 185.9375 L 151.347656 193.035156 L 145.179688 189.042969 L 139.015625 193.035156 L 140.902344 185.9375 L 135.207031 181.304688 L 142.535156 180.90625 Z M 145.179688 174.058594 " fill-opacity="1" fill-rule="evenodd"/><path fill="#fefefe" d="M 112.441406 26.058594 C 136.308594 26.058594 157.917969 35.734375 173.5625 51.371094 C 189.207031 67.015625 198.882812 88.628906 198.882812 112.5 C 198.882812 136.367188 189.207031 157.980469 173.5625 173.625 C 169.601562 177.585938 165.253906 181.164062 160.582031 184.300781 L 160.582031 177.902344 C 163.875 175.472656 166.972656 172.804688 169.863281 169.921875 C 184.554688 155.226562 193.648438 134.917969 193.648438 112.5 C 193.648438 90.074219 184.554688 69.773438 169.863281 55.070312 C 155.167969 40.378906 134.859375 31.285156 112.441406 31.285156 C 90.015625 31.285156 69.710938 40.378906 55.011719 55.070312 C 40.316406 69.773438 31.226562 90.074219 31.226562 112.5 C 31.226562 134.917969 40.316406 155.226562 55.011719 169.921875 C 57.898438 172.804688 61 175.472656 64.289062 177.902344 L 64.289062 184.300781 C 59.621094 181.164062 55.273438 177.585938 51.3125 173.625 C 35.671875 157.980469 25.996094 136.367188 25.996094 112.5 C 25.996094 88.628906 35.671875 67.015625 51.3125 51.371094 C 66.953125 35.734375 88.566406 26.058594 112.441406 26.058594 Z M 112.441406 26.058594 " fill-opacity="1" fill-rule="nonzero"/></svg>